<svg width="105" height="84" viewBox="0 0 105 84" fill="none" xmlns="http://www.w3.org/2000/svg">
<path d="M93.3936 29.2157L92.1879 31.8429C91.2033 33.9915 89.2848 35.5294 86.9845 36.0569C83.9105 36.7459 79.3665 37.5876 75.0372 37.6618C67.568 37.793 65.0078 33.3214 60.1897 37.5616C57.2925 40.1035 45.6489 56.2717 36.8437 68.7848C34.6342 71.9237 32.5997 74.8187 30.9366 77.2155C30.6083 77.6928 30.2912 78.1381 29.9741 78.5835C27.9283 81.5104 24.0055 82.3706 20.935 80.5885C19.7132 79.8779 18.7959 78.8608 18.2237 77.6769C17.1835 75.5243 17.3077 72.8622 18.8166 70.7522L20.3695 68.5679L25.815 60.9444L58.587 15.0229C58.587 15.0229 64.1115 5.63531 74.133 6.81979C84.1544 8.00426 87.8215 13.7199 91.7799 20.0383C92.2303 20.75 92.7215 21.6012 93.1808 22.4414C94.297 24.5307 94.3893 27.0351 93.3936 29.2157Z" fill="#FF6B06"/>
<path d="M36.7569 62.9321C37.3186 64.0945 37.5151 65.3272 37.4229 66.5134C37.3474 67.2934 37.1543 68.0505 36.8333 68.7633C34.6238 71.9021 32.5893 74.7971 30.9262 77.194C30.5979 77.6713 30.2808 78.1166 29.9636 78.562C27.9179 81.4889 23.995 82.3491 20.9246 80.567C19.7028 79.8563 18.7854 78.8393 18.2133 77.6554C17.1731 75.5028 17.2972 72.8407 18.8062 70.7307L20.3591 68.5464L25.8046 60.9229C26.2935 60.4477 26.8993 60.0487 27.5466 59.7359C30.9455 58.0668 35.1029 59.5095 36.7569 62.9321Z" fill="white"/>
<path d="M21.9479 78.7443C23.379 77.9556 24.8328 77.1544 26.264 76.3656C28.422 75.1763 27.2713 72.7075 25.1133 73.8968C23.6821 74.6856 22.2283 75.4868 20.7972 76.2755C18.6392 77.4648 19.7899 79.9336 21.9479 78.7443Z" fill="#161838"/>
<path d="M88.5181 32.8692C89.9143 30.7871 91.3106 28.7049 92.6833 26.6361C93.2496 25.7943 93.2942 24.8433 92.4779 24.4732C91.7725 24.1527 90.4751 24.4855 89.8933 25.3587C88.4971 27.4408 87.1008 29.523 85.7281 31.5918C85.1618 32.4336 85.1172 33.3845 85.9335 33.7547C86.6308 34.0572 87.9518 33.711 88.5181 32.8692Z" fill="#161838"/>
<path d="M74.0786 23.1015C75.0827 23.4565 76.0868 23.8114 77.0669 24.1802C77.8929 24.4744 79.0029 24.1851 79.7107 23.2641C80.3232 22.468 80.3268 21.3227 79.5008 21.0284C78.4967 20.6735 77.4926 20.3185 76.5125 19.9497C75.6865 19.6555 74.5765 19.9449 73.8687 20.8659C73.2645 21.6805 73.2609 22.8259 74.0786 23.1015Z" fill="#161838"/>
</svg>
