<svg width="69" height="41" viewBox="0 0 69 41" fill="none" xmlns="http://www.w3.org/2000/svg">
<path d="M64.2597 18.9763H64.197C64.2283 19.0077 64.2597 18.9763 64.2597 18.9763Z" fill="#FF6B06"/>
<path d="M4.13807 19.0078H4.07532C4.07532 18.9765 4.10669 19.0078 4.13807 19.0078Z" fill="#FF6B06"/>
<path d="M67.1381 19.0079H64.1652C63.6908 19.0079 60.7812 18.7549 58.6938 14.1375C57.6501 11.8287 56.5116 11.892 56.5116 11.892C56.5116 11.892 55.4047 11.8287 54.361 14.1375C54.0447 14.8016 53.7601 15.3393 53.4438 15.7504C52.5266 17.0787 50.7872 17.5531 49.2691 16.9522C47.2134 16.0983 44.4302 13.8844 41.6155 7.7489C37.9784 -0.189361 34.3098 0.000398074 34.3098 0.000398074C34.3098 0.000398074 30.3564 -0.189361 26.6878 7.71727C23.8414 13.8528 21.0582 16.0983 19.0342 16.9206C17.5477 17.5215 15.8082 17.0471 14.8595 15.7188C14.5748 15.3076 14.2585 14.77 13.9423 14.1058C12.8986 11.7971 11.7917 11.8603 11.7917 11.8603C11.7917 11.8603 10.6531 11.7971 9.60945 14.1058C7.5221 18.7549 4.64408 18.9763 4.13806 19.0079H1.16517C0.627515 19.0079 0.153117 19.3875 0.0266114 19.8935C-0.131521 20.6209 0.437756 21.2534 1.13354 21.2534H3.72691C5.18173 21.2534 6.5733 21.8227 7.58535 22.8664C8.28113 23.5938 8.97692 24.5742 9.60945 25.9658C10.6531 28.2745 11.7917 28.2113 11.7917 28.2113C11.7917 28.2113 12.8986 28.2745 13.9423 25.9658C14.2585 25.3016 14.5432 24.764 14.8595 24.3528C15.7766 23.0245 17.5161 22.5501 19.0342 23.151C21.0899 24.0049 23.873 26.2188 26.6878 32.3543C30.3564 40.261 34.1516 40.0712 34.1516 40.0712C34.1516 40.0712 37.9468 40.261 41.6155 32.3543C44.4619 26.2188 47.245 23.9733 49.2691 23.151C50.7556 22.5501 52.495 23.0245 53.4438 24.3528C53.7284 24.764 54.0447 25.3016 54.361 25.9658C55.4047 28.2745 56.5116 28.2113 56.5116 28.2113C56.5116 28.2113 57.6501 28.2745 58.6938 25.9658C59.3263 24.5742 60.0221 23.5622 60.7179 22.8664C61.73 21.8227 63.1215 21.2534 64.5763 21.2534H67.1697C67.8655 21.2534 68.4032 20.6209 68.2766 19.8935C68.1818 19.3558 67.6757 19.0079 67.1381 19.0079Z" fill="#FF6B06"/>
<path d="M33.0447 10.9115C33.0447 16.889 33.0447 22.8664 33.0447 28.8438C33.0447 30.2986 35.2902 30.2986 35.2902 28.8438C35.2902 22.8664 35.2902 16.889 35.2902 10.9115C35.2902 9.48835 33.0447 9.48835 33.0447 10.9115Z" fill="white"/>
<path d="M37.8833 14.8332C37.8833 18.3122 37.8833 21.7595 37.8833 25.2384C37.8833 26.6932 40.1288 26.6932 40.1288 25.2384C40.1288 21.7595 40.1288 18.3122 40.1288 14.8332C40.1288 13.3784 37.8833 13.3784 37.8833 14.8332Z" fill="white"/>
<path d="M28.2058 14.8332C28.2058 18.3122 28.2058 21.7595 28.2058 25.2384C28.2058 26.6932 30.4513 26.6932 30.4513 25.2384C30.4513 21.7595 30.4513 18.3122 30.4513 14.8332C30.4513 13.3784 28.2058 13.3784 28.2058 14.8332Z" fill="white"/>
<path d="M42.7225 17.7745C42.7225 19.1661 42.7225 20.5893 42.7225 21.9808C42.7225 23.4356 44.968 23.4356 44.968 21.9808C44.968 20.5893 44.968 19.1661 44.968 17.7745C44.968 16.3197 42.7225 16.3197 42.7225 17.7745Z" fill="white"/>
<path d="M23.3669 17.7745C23.3669 19.1661 23.3669 20.5893 23.3669 21.9808C23.3669 23.4356 25.6124 23.4356 25.6124 21.9808C25.6124 20.5893 25.6124 19.1661 25.6124 17.7745C25.6124 16.3197 23.3669 16.3197 23.3669 17.7745Z" fill="white"/>
<path d="M47.5612 19.3558C47.5612 19.7037 47.5612 20.0832 47.5612 20.4311C47.5612 21.032 48.0672 21.5697 48.6681 21.538C49.269 21.5064 49.775 21.032 49.775 20.4311C49.775 20.0832 49.775 19.7037 49.775 19.3558C49.775 18.7549 49.269 18.2173 48.6681 18.2489C48.0988 18.2489 47.5612 18.7233 47.5612 19.3558Z" fill="white"/>
<path d="M18.528 19.3558C18.528 19.7037 18.528 20.0832 18.528 20.4311C18.528 21.032 19.034 21.5697 19.6349 21.538C20.2358 21.5064 20.7418 21.032 20.7418 20.4311C20.7418 20.0832 20.7418 19.7037 20.7418 19.3558C20.7418 18.7549 20.2358 18.2173 19.6349 18.2489C19.034 18.2489 18.528 18.7233 18.528 19.3558Z" fill="white"/>
</svg>
