<svg width="55" height="40" viewBox="0 0 55 40" fill="none" xmlns="http://www.w3.org/2000/svg">
<path d="M47.7967 3.08139H26.0931C24.0884 3.08139 22.4613 4.7093 22.4613 6.71511V33.343C22.4613 35.3488 24.0884 36.9767 26.0931 36.9767H47.7967C49.8015 36.9767 51.4286 35.3488 51.4286 33.343V6.68604C51.4286 4.7093 49.7724 3.08139 47.7967 3.08139Z" fill="white"/>
<path d="M7.20324 3.08139H28.9069C30.9116 3.08139 32.5387 4.7093 32.5387 6.71511V33.343C32.5387 35.3488 30.9116 36.9767 28.9069 36.9767H7.20324C5.19849 36.9767 3.57144 35.3488 3.57144 33.343V6.68604C3.57144 4.7093 5.19849 3.08139 7.20324 3.08139Z" fill="white"/>
<path d="M40.7053 0H14.2948C11.9123 0 9.93665 1.94767 9.93665 4.3314V35.6686C9.93665 38.0523 11.8833 40 14.2658 40H40.6762C43.0587 40 45.0053 38.0523 45.0053 35.6686V4.3314C45.0344 1.94767 43.0877 0 40.7053 0Z" fill="#FF6B06"/>
<path d="M19.6701 20.9344C21.7329 22.9983 23.7958 25.0623 25.8296 27.0972C26.1782 27.446 26.9337 27.5332 27.2823 27.0972C30.1296 23.4635 33.006 19.8007 35.8534 16.1669C36.6669 15.1204 35.2142 13.6669 34.4006 14.7135C31.5533 18.3472 28.6769 22.01 25.8296 25.6437C26.3235 25.6437 26.7884 25.6437 27.2823 25.6437C25.2194 23.5797 23.1566 21.5158 21.1228 19.4809C20.164 18.5216 18.7113 20.0042 19.6701 20.9344Z" fill="white"/>
<path d="M16.2995 0V13.9724C16.2995 14.3189 16.7227 14.4728 16.9535 14.2419L20.416 10.7776C20.7237 10.4697 21.2238 10.4697 21.5316 10.8161L24.5708 14.1649C24.8017 14.4343 25.2249 14.2419 25.2249 13.8955V0H16.2995Z" fill="white"/>
</svg>
