<svg width="40" height="40" viewBox="0 0 40 40" fill="none" xmlns="http://www.w3.org/2000/svg">
<path d="M35.3704 0H4.62963C2.09877 0 0 2.09877 0 4.62963V35.3704C0 37.9321 2.09877 40 4.62963 40H35.3704C37.9321 40 40 37.9012 40 35.3704V4.62963C40 2.09877 37.9321 0 35.3704 0Z" fill="#FF6B06"/>
<path d="M32.8086 28.3951C24.2592 28.3951 15.7407 28.3951 7.19128 28.3951C5.77153 28.3951 5.77153 30.5864 7.19128 30.5864C15.7407 30.5864 24.2592 30.5864 32.8086 30.5864C34.1975 30.5864 34.2283 28.3951 32.8086 28.3951Z" fill="white"/>
<path d="M10.9875 12.0679V7.49999C10.9875 6.17283 12.0678 5.06172 13.4258 5.06172H13.7653C15.0925 5.06172 16.2036 6.14197 16.2036 7.49999V12.0679C16.2036 13.3951 15.1234 14.5062 13.7653 14.5062H13.4258C12.0987 14.5062 10.9875 13.4259 10.9875 12.0679Z" fill="white"/>
<path d="M24.8149 21.2654V16.6975C24.8149 15.3704 25.8951 14.2593 27.2532 14.2593H27.5927C28.9198 14.2593 30.0309 15.3395 30.0309 16.6975V21.2654C30.0309 22.5926 28.9507 23.7037 27.5927 23.7037H27.2532C25.8951 23.7037 24.8149 22.6235 24.8149 21.2654Z" fill="white"/>
<path d="M11.0803 31.4197V26.8518C11.0803 25.5247 12.1606 24.4136 13.5186 24.4136H13.8581C15.1853 24.4136 16.2964 25.4938 16.2964 26.8518V31.4197C16.2964 32.7469 15.2161 33.858 13.8581 33.858H13.5186C12.1914 33.858 11.0803 32.7778 11.0803 31.4197Z" fill="white"/>
<path d="M32.8086 8.7037C24.2592 8.7037 15.7407 8.7037 7.19128 8.7037C5.77153 8.7037 5.77153 10.8951 7.19128 10.8951C15.7407 10.8951 24.2592 10.8951 32.8086 10.8951C34.1975 10.8951 34.2283 8.7037 32.8086 8.7037Z" fill="white"/>
<path d="M32.8086 17.9012C24.2592 17.9012 15.7407 17.9012 7.19128 17.9012C5.77153 17.9012 5.77153 20.0926 7.19128 20.0926C15.7407 20.0926 24.2592 20.0926 32.8086 20.0926C34.1975 20.0617 34.2283 17.9012 32.8086 17.9012Z" fill="white"/>
</svg>
