<svg width="45" height="41" viewBox="0 0 45 41" fill="none" xmlns="http://www.w3.org/2000/svg">
<path d="M7.84515 0H37.5352C40.2568 0 42.4526 2.24751 42.4526 5.03315V35.8652H2.92773V5.03315C2.92773 2.24751 5.12356 0 7.84515 0Z" fill="white"/>
<path d="M44.9408 13.4026V36.345C44.9408 38.8975 42.8713 40.958 40.3077 40.958H4.63307C2.06944 40.958 0 38.8975 0 36.345V13.4026C0 10.85 2.06944 8.78949 4.63307 8.78949H15.6598C18.2234 8.78949 20.2928 10.85 20.2928 13.4026V26.473C18.4396 24.6277 16.5864 22.7825 14.7332 20.9065C12.7255 18.9075 9.63678 22.0137 11.6444 23.9819L20.8488 33.1466C21.6828 33.9769 23.1036 33.9769 23.9375 33.1466C26.9953 30.1019 30.0841 27.0265 33.1419 23.9819C35.1496 21.9829 32.03 18.9075 30.0532 20.9065C28.2308 22.6902 26.4394 24.474 24.6479 26.2577V13.4026C24.6479 10.85 26.7174 8.78949 29.281 8.78949H40.3077C42.8713 8.78949 44.9408 10.85 44.9408 13.4026Z" fill="#FF6B06"/>
</svg>
