<svg width="424" height="373" viewBox="0 0 424 373" fill="none" xmlns="http://www.w3.org/2000/svg">
<path d="M14.7757 211.478L28.909 211.478C46.8969 211.478 63.6 219.789 73.2363 234.494C83.5151 249.198 96.3636 272.214 112.424 310.574C138.764 373.228 195.939 364.278 220.994 303.541C258.254 212.756 379.03 211.478 379.03 211.478L409.224 211.478C417.576 211.478 424 205.084 424 196.773C424 188.462 417.576 182.069 409.224 182.069L389.309 182.069C372.606 182.069 356.545 174.397 346.267 160.971C334.703 146.266 319.927 121.332 302.582 81.0546C276.242 19.0396 226.133 27.9902 201.721 88.7265C165.103 180.151 44.9696 182.069 44.9696 182.069L14.7757 182.069C6.42418 182.069 -4.66051e-05 188.462 -4.73317e-05 196.773C-4.80583e-05 205.084 6.42418 211.478 14.7757 211.478Z" fill="#F1F3F8"/>
<path d="M268.101 138.386C268.101 138.386 296.039 148.558 301.411 191.448C305.075 220.645 309.07 254.297 312.624 279.123C314.112 289.57 306.563 299.111 296.039 300.073L277.028 311.867C277 311.84 240.164 148.009 268.101 138.386Z" fill="#D5DAEE"/>
<path d="M133.677 125.959L209.223 116.364C209.223 116.364 272.867 134.51 272.867 143.582C272.867 152.655 289.811 331.8 296.011 355.829L266.255 372.847C266.255 372.847 250.551 340.268 235.673 332.845C235.673 332.845 205.917 356.351 197.238 372.847L135.11 348.213C135.11 348.213 156.352 311.4 139.408 256.551C122.464 201.703 133.677 125.959 133.677 125.959Z" fill="url(#paint0_linear)"/>
<path d="M133.677 125.959L209.223 116.364C209.223 116.364 272.867 134.51 272.867 143.582C272.867 152.655 289.811 331.8 296.011 355.829L266.255 372.847C266.255 372.847 250.551 340.268 235.673 332.845C235.673 332.845 205.917 356.351 197.238 372.847L135.11 348.213C135.11 348.213 156.352 311.4 139.408 256.551C122.464 201.703 133.677 125.959 133.677 125.959Z" fill="url(#paint1_linear)"/>
<path d="M138.384 120.206C143.673 115.743 158.813 138.156 177.061 263.51M154.252 117.231C158.549 110.289 172.499 129.826 193.921 263.51M263.341 120.206V238.221M244.498 117.231V228.8M205.325 128.635L215.243 224.833" stroke="url(#paint2_linear)"/>
<circle cx="236.565" cy="332.214" r="1.98345" fill="#292E4A"/>
<circle cx="236.565" cy="308.412" r="1.98345" fill="#292E4A"/>
<path d="M191.701 128.049C191.701 128.049 186.396 143.461 214.251 160.15C215.109 160.664 216.923 162.574 216.73 162.629C213.948 163.344 199.498 166.512 194.456 184.327C194.456 184.327 168.989 159.746 176.565 122.96L191.701 128.049Z" fill="white"/>
<path d="M260.111 284.724L188.698 293.137C180.763 294.071 173.572 288.408 172.635 280.49L162.552 195.316C161.615 187.398 167.29 180.222 175.225 179.288L246.639 170.875C254.573 169.94 261.764 175.604 262.701 183.522L272.785 268.695C273.722 276.613 268.046 283.789 260.111 284.724Z" fill="#292E4A"/>
<path d="M267.578 283.845L196.164 292.257C188.229 293.192 181.039 287.529 180.102 279.611L170.018 194.437C169.081 186.519 174.757 179.343 182.692 178.409L254.105 169.996C262.04 169.061 269.231 174.725 270.168 182.643L280.251 267.816C281.188 275.734 275.513 282.91 267.578 283.845Z" fill="#767DA4"/>
<path d="M275.377 289.463L204.217 298.388C196.307 299.379 189.139 293.371 188.205 284.971L178.153 194.615C177.219 186.215 182.877 178.602 190.787 177.611L261.975 168.686C269.885 167.694 277.053 173.702 277.987 182.102L288.039 272.459C288.945 280.859 283.287 288.471 275.377 289.463Z" fill="white"/>
<path d="M270.504 280.071L210.884 287.497C204.256 288.322 198.251 283.323 197.468 276.334L189.046 201.151C188.264 194.162 193.004 187.828 199.631 187.003L259.275 179.577C265.902 178.752 271.908 183.751 272.69 190.74L281.112 265.923C281.872 272.912 277.132 279.246 270.504 280.071Z" fill="#FF6B06"/>
<path d="M209.58 233.083L211.479 232.857C213.896 232.569 216.273 233.421 217.803 235.245C219.419 237.06 221.514 239.951 224.285 244.856C228.827 252.866 236.365 250.748 238.76 242.176C242.314 229.365 258.521 227.263 258.521 227.263L262.577 226.781C263.7 226.647 264.46 225.685 264.327 224.566C264.194 223.448 263.229 222.69 262.107 222.824L259.431 223.142C257.187 223.409 254.906 222.633 253.31 220.991C251.522 219.197 249.137 216.078 246.162 210.935C241.631 203.012 235.042 205.017 232.734 213.579C229.276 226.466 213.166 228.643 213.166 228.643L209.109 229.125C207.987 229.259 207.226 230.222 207.359 231.34C207.492 232.458 208.458 233.216 209.58 233.083Z" fill="white"/>
<path d="M226.223 277.914C226.223 277.914 221.689 273.838 212.764 277.914C205.159 279.811 197.172 268.997 194.417 271.719C191.662 274.468 192.405 280.429 196.896 283.124C201.359 285.79 210.932 289.296 206.028 289.296C201.096 289.296 188.119 289.901 189.166 286.904C190.213 283.907 190.654 275.577 190.654 275.577C190.654 275.577 178.724 283.467 178.724 287.041C178.724 290.615 183.959 309.971 188.726 311.015C193.492 312.06 207.516 313.682 214.541 311.895C221.567 310.108 231.265 305.654 231.265 305.654C231.265 305.654 233.607 281.598 226.223 277.914Z" fill="#FFE2D1"/>
<path d="M226.223 277.914C226.223 277.914 221.689 273.838 212.764 277.914C205.159 279.811 197.172 268.997 194.417 271.719C191.662 274.468 192.405 280.429 196.896 283.124C201.359 285.79 210.932 289.296 206.028 289.296C201.096 289.296 188.119 289.901 189.166 286.904C190.213 283.907 190.654 275.577 190.654 275.577C190.654 275.577 178.724 283.467 178.724 287.041C178.724 290.615 183.959 309.971 188.726 311.015C193.492 312.06 207.516 313.682 214.541 311.895C221.567 310.108 231.265 305.654 231.265 305.654C231.265 305.654 233.607 281.598 226.223 277.914Z" fill="url(#paint3_linear)"/>
<path d="M248.622 90.3557C248.622 90.3557 249.697 113.23 247.686 137.671C246.225 155.322 227.546 169.948 227.546 169.948C227.546 169.948 178.917 139.953 187.458 125.602C195.999 111.25 248.622 90.3557 248.622 90.3557Z" fill="#FFD6BF"/>
<path d="M238.786 158.236C239.943 159.061 249.642 159.473 250.33 168.903C250.33 168.903 263.335 157.659 263.445 139.458C263.555 121.258 248.126 100.253 248.126 100.253C248.126 100.253 249.228 136.104 238.786 158.236Z" fill="white"/>
<path d="M261.594 276.083C261.594 276.083 279.01 273.21 293.443 267.483C306.244 262.389 313.249 274.412 313.423 282.132C313.597 289.852 304.524 315.021 253.288 305.207C200.202 295.086 261.594 276.083 261.594 276.083Z" fill="#D5DAEE"/>
<path d="M242.616 277.666L225.176 276.704C225.176 276.704 236.279 288.278 223.991 309.173L241.569 308.073C246.17 307.441 249.89 304.004 250.826 299.441C251.57 295.729 251.873 290.918 250.579 285.639C249.614 281.735 246.556 278.656 242.616 277.666Z" fill="white"/>
<path d="M254.27 263.48L272.537 256.029C287.993 249.705 296.093 232.715 291.299 216.769L281.16 183.2C275.843 183.667 274.768 187.214 275.953 192.41C277.772 200.438 276.725 212.535 273.749 216.356C268.707 222.817 273.887 204.864 262.012 198.623C258.403 196.726 257.852 199.778 260.69 205.607C263.527 211.435 264.437 212.452 261.489 221.58C259.918 226.419 263.638 237.334 263.638 237.334L227.49 251.3L254.27 263.48Z" fill="#FFD6BF"/>
<path d="M190.214 26.8468C190.214 26.8468 177.816 36.7443 176.162 43.0677C174.509 49.3911 169.275 59.5635 171.203 66.7117C173.132 73.8599 163.902 83.345 160.183 87.0566C156.463 90.7682 164.866 91.7304 168.448 95.3045C172.03 98.8786 165.831 111.388 165.831 118.536C165.831 125.684 212.53 137.919 229.061 131.87C245.592 125.822 249.174 90.0808 261.572 74.1348C273.97 58.1889 222.173 13.6501 190.214 26.8468Z" fill="#FFE2D1"/>
<path d="M181.028 35.5895C181.028 35.5895 176.647 13.5401 184.499 5.70455C192.351 -2.13098 211.5 -2.26844 228.031 7.62907C244.562 17.5266 261.644 30.1734 270.736 39.2461C279.827 48.3188 273.628 74.8496 269.358 79.111C265.087 83.3725 252.552 101.353 248.97 101.353C244.571 89.7371 252.928 93.704 256.399 84.2826C259.87 69.9026 252.432 70.8943 248.97 74.3653C245.182 78.1628 242.523 85.1595 238.5 83.5099C235.47 82.2728 239.878 73.3375 237.674 63.9899C235.47 54.6422 216.955 35.5895 181.028 35.5895Z" fill="#292E4A"/>
<path d="M260.056 260.703L168.282 295.371L148.996 302.657C140.179 305.984 130.481 300.788 128.36 291.66L123.29 269.693L104.142 187.021C95.9866 151.858 108.963 131.375 129.93 125.822C136.57 124.062 144.753 133.52 147.37 151.39L164.59 248.743L252.204 237.196L260.056 260.703Z" fill="#D5DAEE"/>
<circle cx="227.639" cy="170.562" r="1.98345" fill="#292E4A"/>
<path d="M168.31 295.372L156.738 299.743L152.605 301.31L149.024 302.657C145.084 304.142 140.979 303.922 137.452 302.437C136.653 302.08 135.854 301.695 135.138 301.2C131.859 299.111 129.352 295.784 128.388 291.633L127.974 289.901L127.313 287.096L125.136 277.666L124.503 274.917L123.29 269.693C127.313 267.879 131.776 266.861 136.488 266.861C137.507 266.861 138.499 266.916 139.491 266.999C141.006 267.136 142.494 267.384 143.927 267.741C147.012 268.483 149.905 269.666 152.55 271.205C153.432 271.7 154.258 272.25 155.085 272.827C156.683 273.982 158.198 275.274 159.548 276.704C160.182 277.364 160.788 278.051 161.367 278.738C162.303 279.921 163.185 281.158 163.956 282.45C164.508 283.357 165.003 284.292 165.444 285.254C166.932 288.416 167.924 291.798 168.31 295.372Z" fill="white"/>
<path d="M182.019 65.9354C177.061 67.9189 174.582 66.4313 173.59 65.9354C171.606 65.1461 171.11 71.3899 173.59 70.3982C176.069 69.4065 180.532 74.3651 183.011 77.3403C185.491 80.3154 195.408 79.3237 199.375 77.3403C203.342 75.3568 196.895 65.9354 190.945 67.423C184.995 68.9106 186.978 63.952 182.019 65.9354Z" fill="#FFD6BF"/>
<path d="M172.598 95.6874C167.045 94.4974 166.317 97.175 166.648 98.6626C166.328 100.646 167.64 104.613 168.631 103.125C169.623 101.638 180.036 103.621 182.02 105.605C184.003 107.588 192.929 112.051 189.953 105.605C186.978 99.1585 179.54 97.175 172.598 95.6874Z" fill="#292E4A"/>
<path fill-rule="evenodd" clip-rule="evenodd" d="M128.318 291.339L127.977 289.909C133.972 279.541 142.626 272.376 147.985 269.008C148.371 269.158 148.753 269.314 149.13 269.477C143.811 272.68 134.457 280.217 128.318 291.339ZM135.413 301.382C135.32 301.323 135.228 301.262 135.138 301.2C134.947 301.078 134.758 300.952 134.572 300.821C136.586 296.533 139.626 291.899 142.905 287.522C147.133 281.879 151.8 276.61 155.293 272.978C155.563 273.176 155.831 273.379 156.096 273.585C152.62 277.193 147.939 282.47 143.705 288.121C140.39 292.547 137.373 297.169 135.413 301.382ZM147.98 303.01C147.544 303.141 147.106 303.251 146.669 303.342C148.216 300.424 150.175 296.994 152.234 293.505C155.362 288.207 158.742 282.743 161.314 278.675C161.332 278.696 161.349 278.717 161.367 278.738C161.57 278.994 161.77 279.252 161.967 279.513C159.425 283.54 156.14 288.856 153.095 294.014C151.217 297.196 149.437 300.305 147.98 303.01ZM162.334 297.629L161.059 298.111C162.674 294.071 164.68 289.986 166.228 287.055C166.394 287.469 166.552 287.887 166.7 288.309C165.345 290.919 163.722 294.265 162.334 297.629ZM139.923 267.041C136.101 269.06 130.029 272.995 125.261 278.205L125.137 277.666L124.99 277.029C129.238 272.534 134.362 269.028 138.096 266.904C138.563 266.927 139.027 266.96 139.491 266.998C139.635 267.012 139.779 267.026 139.923 267.041Z" fill="#DDE0EE"/>
<path d="M240.986 281.909L245.533 285.319" stroke="#C6CCE9" stroke-linecap="round"/>
<path d="M245.533 281.909L242.123 286.456" stroke="#C6CCE9" stroke-linecap="round"/>
<path d="M310.038 263.721C309.24 272.267 304.387 293.599 293.276 304.643C303.493 301.685 321.532 288.176 310.038 263.721Z" fill="#EDEDED"/>
<path fill-rule="evenodd" clip-rule="evenodd" d="M313.34 271.603C311.939 270.938 310.595 270.481 309.452 270.182C309.387 270.504 309.32 270.831 309.249 271.162C310.517 271.497 312.053 272.04 313.632 272.864C313.544 272.448 313.447 272.027 313.34 271.603ZM314.191 280.959C312.012 279.299 309.726 278.022 307.778 277.117C307.687 277.439 307.595 277.764 307.499 278.09C309.504 279.033 311.865 280.378 314.067 282.13C314.117 281.745 314.158 281.355 314.191 280.959ZM312.377 288.4C311.439 287.704 310.464 287.058 309.492 286.465C308.113 285.625 306.732 284.888 305.463 284.273C305.348 284.586 305.23 284.9 305.11 285.213C306.328 285.807 307.651 286.514 308.972 287.319C309.99 287.94 311.001 288.615 311.959 289.337C312.104 289.029 312.244 288.717 312.377 288.4ZM308.368 294.933C306.243 294 304.027 292.999 302.093 292.114C301.944 292.412 301.793 292.71 301.639 293.006C303.5 293.858 305.625 294.818 307.684 295.724C307.916 295.466 308.144 295.202 308.368 294.933ZM301.964 300.698C300.549 299.891 299.317 299.151 298.364 298.559C298.177 298.836 297.988 299.111 297.796 299.383C298.665 299.924 299.766 300.588 301.027 301.314C301.34 301.115 301.652 300.91 301.964 300.698Z" fill="white"/>
<path d="M173.759 63.228C172.998 61.9462 171.222 62.6939 170.43 63.228C170.43 64.1181 168.052 64.8301 170.43 66.9664C171.172 67.6336 174.71 64.8301 173.759 63.228Z" fill="#292E4A"/>
<path d="M206.394 71.2139C202.438 63.3198 193.029 62.6866 186.876 63.6514C184.793 63.9781 182.461 62.0108 182.857 59.9391C198.156 53.7892 204.923 63.5265 206.885 69.1639L206.394 71.2139Z" fill="#292E4A"/>
<path fill-rule="evenodd" clip-rule="evenodd" d="M249.948 93.7043C252.427 90.7291 252.768 88.588 251.578 86.2079C250.09 83.2327 245.628 88.1914 246.619 89.6789C246.845 90.0182 247.133 90.4374 247.451 90.8788L239.761 99.4965C239.09 100.248 239.156 101.401 239.907 102.071C240.659 102.742 241.812 102.676 242.482 101.925L249.868 93.6484C249.895 93.6681 249.922 93.6867 249.948 93.7043Z" fill="#FF6B06"/>
<path d="M158.005 313.737C164.46 316.389 182.135 321.694 201.201 321.694" stroke="#E8EAF6" stroke-width="3" stroke-linecap="round"/>
<path d="M263.21 237.858L259.05 239.175C258.501 239.349 258.212 239.95 258.419 240.488L265.253 258.232C265.452 258.751 266.037 259.007 266.554 258.803L270.749 257.142C271.262 256.939 271.514 256.359 271.311 255.845L264.442 238.444C264.249 237.956 263.711 237.699 263.21 237.858Z" fill="#292E4A"/>
<rect x="263.032" y="258.062" width="9.3908" height="3.92369" rx="1.96185" transform="rotate(-24.4199 263.032 258.062)" fill="#656D95"/>
<path d="M238.426 235.225L254.842 233.052C255.987 232.896 257.051 233.569 257.378 234.63L264.768 259.367C265.096 260.454 264.496 261.592 263.405 262.006L247.07 268.113C245.789 268.604 244.316 267.88 243.989 266.612L236.517 237.942C236.162 236.674 237.062 235.406 238.426 235.225Z" fill="white"/>
<path d="M247.4 243.613L242.515 240.767" stroke="#C6CCE9" stroke-linecap="round"/>
<path d="M243.534 244.632L246.38 239.747" stroke="#C6CCE9" stroke-linecap="round"/>
<g clip-path="url(#clip0)">
<path d="M386.712 268.565L375.948 264.208C374.324 263.551 372.507 263.551 370.869 264.208L360.118 268.565C357.503 269.612 355.796 272.182 355.796 275.031V290.114C355.796 292.474 356.98 294.681 358.934 295.965L369.698 305.797C371.97 307.278 374.874 307.278 377.132 305.797L387.896 295.965C389.851 294.681 391.034 292.488 391.034 290.114V275.031C391.034 272.182 389.327 269.612 386.712 268.565ZM386.12 288.773C386.12 290.477 385.267 292.069 383.863 292.991L376.113 300.085C374.489 301.147 372.383 301.147 370.758 300.085L363.009 292.991C361.591 292.069 360.751 290.477 360.751 288.773V277.894C360.751 275.841 361.99 273.998 363.862 273.229L371.626 270.087C372.796 269.612 374.103 269.612 375.287 270.087L383.051 273.229C384.923 273.984 386.162 275.841 386.162 277.894V288.773H386.12Z" fill="#292E4A"/>
</g>
<g clip-path="url(#clip1)">
<path d="M93.5006 26.6041L74.4027 19.0362C71.5209 17.8961 68.2972 17.8961 65.391 19.0362L46.3175 26.6041C41.6773 28.4233 38.649 32.8864 38.649 37.8347V64.0312C38.649 68.1305 40.7493 71.963 44.2172 74.1945L63.3151 91.2708C67.3448 93.842 72.4978 93.842 76.503 91.2708L95.6009 74.1945C99.0688 71.963 101.169 68.1305 101.169 64.0312V37.8347C101.169 32.8864 98.1408 28.4233 93.5006 26.6041ZM96.4068 62.7699C96.4068 66.2628 94.624 69.4889 91.6934 71.3808L75.5017 85.8617C72.107 88.0448 67.7111 88.0448 64.3164 85.8617L48.1247 71.3808C45.1697 69.4889 43.4113 66.2628 43.4113 62.7699V40.5513C43.4113 36.355 45.9756 32.5711 49.9075 31.0187L66.0992 24.6151C68.5414 23.6448 71.2767 23.6448 73.7433 24.6151L89.935 31.0187C93.867 32.5711 96.4313 36.3308 96.4313 40.5513V62.7699H96.4068Z" fill="#292E4A"/>
<path d="M61.5266 50.7824C60.5554 49.801 58.9725 49.7927 57.9911 50.7639C57.0097 51.735 57.0014 53.3179 57.9726 54.2993L61.5266 50.7824ZM68.7368 61.6227L66.9598 63.3812C67.4882 63.9152 68.2287 64.1832 68.9765 64.1112C69.7242 64.0392 70.4 63.6348 70.8167 63.0098L68.7368 61.6227ZM82.93 44.8461C83.6961 43.6974 83.3859 42.1451 82.2372 41.3791C81.0885 40.613 79.5363 40.9232 78.7702 42.0719L82.93 44.8461ZM57.9726 54.2993L66.9598 63.3812L70.5138 59.8642L61.5266 50.7824L57.9726 54.2993ZM70.8167 63.0098L82.93 44.8461L78.7702 42.0719L66.6569 60.2356L70.8167 63.0098Z" fill="#FF6B06"/>
</g>
<defs>
<linearGradient id="paint0_linear" x1="205.325" y1="197.835" x2="293.093" y2="364.941" gradientUnits="userSpaceOnUse">
<stop stop-color="#BFC4D9"/>
<stop offset="1" stop-color="white"/>
</linearGradient>
<linearGradient id="paint1_linear" x1="162.681" y1="210.728" x2="320.365" y2="400.147" gradientUnits="userSpaceOnUse">
<stop stop-color="#A1ACDB"/>
<stop offset="1" stop-color="white"/>
</linearGradient>
<linearGradient id="paint2_linear" x1="143.838" y1="-2.98942" x2="200.863" y2="263.51" gradientUnits="userSpaceOnUse">
<stop stop-color="white"/>
<stop offset="1" stop-color="white" stop-opacity="0"/>
</linearGradient>
<linearGradient id="paint3_linear" x1="176.566" y1="276.677" x2="224.168" y2="312.379" gradientUnits="userSpaceOnUse">
<stop stop-color="#FFE2D1"/>
<stop offset="1" stop-color="#FFE2D1"/>
</linearGradient>
<clipPath id="clip0">
<rect width="35.2386" height="43.1957" fill="white" transform="translate(355.796 263.721)"/>
</clipPath>
<clipPath id="clip1">
<rect width="62.5201" height="75.0241" fill="white" transform="translate(38.649 18.1877)"/>
</clipPath>
</defs>
</svg>
