<svg width="220" height="182" viewBox="0 0 220 182" fill="none" xmlns="http://www.w3.org/2000/svg">
<path d="M6.5271 152.215L4.55042 162.297H106.934C106.934 142.199 86.6096 124.969 70.146 119.827H31.7307L11.2461 142.73C8.8491 145.41 7.21889 148.686 6.5271 152.215Z" fill="url(#paint0_linear)"/>
<path d="M191.116 117.551L195.666 131.961" stroke="#1C2035" stroke-width="3" stroke-linecap="round"/>
<path d="M31.4131 123.177C30.97 118.815 30.4901 106.093 30.3054 100.277C23.6594 50.66 64.6432 83.9197 66.8585 91.5531C69.0738 99.1864 71.2892 112.272 71.2892 120.996C71.2892 129.72 31.9669 128.629 31.4131 123.177Z" fill="#FFD6BF"/>
<path d="M77.4769 33.7686L56.6551 16.6847C0.217144 56.9146 23.2307 76.2029 36.9292 80.6116C42.3567 82.3584 49.7146 92.1846 58.299 95.4912C64.3263 98.2467 85.6961 98.2467 87.3399 97.1445C88.6549 96.2627 87.8878 86.8574 87.3399 82.2649C88.4358 81.1627 90.5179 78.6277 90.0796 77.3051C89.5316 75.6518 75.2852 77.3051 77.4769 75.1007C79.2303 73.3372 87.7052 67.3854 91.7234 64.6299C90.2622 62.4255 87.3399 57.7963 87.3399 56.9146C87.3399 55.8124 92.2713 51.4036 91.7234 49.7504C91.1755 48.0971 77.4769 42.5861 77.4769 41.4839V33.7686Z" fill="#FFE2D1"/>
<path d="M175.325 104.314L199.916 97.7249L204.313 114.133C205.028 116.801 203.445 119.542 200.778 120.257L185.845 124.258C183.178 124.973 180.436 123.39 179.721 120.723L175.325 104.314Z" fill="#1C2035"/>
<path d="M163.305 69.6989C161.085 61.4136 166.002 52.8973 174.287 50.6773C182.572 48.4572 191.089 53.3741 193.309 61.6594L205.368 106.665L175.364 114.705L163.305 69.6989Z" fill="#D1DAFF"/>
<path d="M186.565 87.9739L190.449 90.4506" stroke="#E8ECFF" stroke-width="2" stroke-linecap="round"/>
<path d="M173.673 89.801L182.319 94.7929" stroke="#E8ECFF" stroke-width="2" stroke-linecap="round"/>
<path d="M180.492 87.9739L175.5 96.6201" stroke="#E8ECFF" stroke-width="2" stroke-linecap="round"/>
<path d="M169.881 94.4967L199.884 86.4572L205.534 107.54C206.248 110.207 204.665 112.949 201.998 113.664L181.654 119.115C178.986 119.83 176.244 118.247 175.53 115.579L169.881 94.4967Z" fill="#A1A8CE"/>
<path d="M169.881 94.4967L199.884 86.4572L205.534 107.54C206.248 110.207 204.665 112.949 201.998 113.664L181.654 119.115C178.986 119.83 176.244 118.247 175.53 115.579L169.881 94.4967Z" fill="url(#paint1_linear)"/>
<path d="M169.501 94.7995L200.217 86.8363" stroke="#BCC3ED" stroke-width="3" stroke-linecap="round"/>
<path d="M190.963 102.721L195.054 101.625" stroke="#5C6286" stroke-width="3" stroke-linecap="round"/>
<path d="M167.129 71.2068L177.504 77.1971" stroke="#E8ECFF" stroke-width="2" stroke-linecap="round"/>
<path d="M175.312 69.014L169.321 79.3895" stroke="#E8ECFF" stroke-width="2" stroke-linecap="round"/>
<path d="M179.305 60.5892L189.681 66.5795" stroke="#E8ECFF" stroke-width="2" stroke-linecap="round"/>
<path d="M187.488 58.3965L181.498 68.7719" stroke="#E8ECFF" stroke-width="2" stroke-linecap="round"/>
<path d="M167.566 58.325L174.483 62.3185" stroke="#E8ECFF" stroke-width="2" stroke-linecap="round"/>
<path d="M178.981 53.0878L182.865 55.5645" stroke="#E8ECFF" stroke-width="2" stroke-linecap="round"/>
<path d="M185.807 71.2892L189.69 73.7659" stroke="#E8ECFF" stroke-width="2" stroke-linecap="round"/>
<path d="M172.914 83.4236L176.798 85.9003" stroke="#E8ECFF" stroke-width="2" stroke-linecap="round"/>
<path d="M173.021 56.8633L169.028 63.7802" stroke="#E8ECFF" stroke-width="2" stroke-linecap="round"/>
<path d="M187.324 77.6667L195.97 82.6586" stroke="#E8ECFF" stroke-width="2" stroke-linecap="round"/>
<path d="M194.143 75.8396L189.151 84.4858" stroke="#E8ECFF" stroke-width="2" stroke-linecap="round"/>
<path d="M180.498 79.6102L183.986 81.6241" stroke="#E8ECFF" stroke-width="2" stroke-linecap="round"/>
<path d="M183.249 78.8732L181.235 82.3613" stroke="#E8ECFF" stroke-width="2" stroke-linecap="round"/>
<path d="M189.599 103.087L192.327 102.356" stroke="white" stroke-width="3" stroke-linecap="round"/>
<path d="M135.283 100.31L169.122 125.894" stroke="#5C6286" stroke-width="3" stroke-linecap="round"/>
<path d="M36.0906 98.0191L31.3034 103.9L8.67353 74.094C3.48893 67.2653 3.18562 57.853 8.43141 51.0712C26.4523 27.7736 49.4163 5.97651 57.1151 0C65.902 8.79579 59.3118 19.424 54.9183 23.6387C60.1442 29.8507 60.7196 38.7404 56.3381 45.5743L40.0904 70.916C38.4428 65.4187 29.1067 61.5705 25.2624 65.4187C21.0799 69.6053 32.7679 76.0469 38.4428 78.6124C41.4628 84.9943 40.5478 92.5435 36.0906 98.0191Z" fill="#1C2035"/>
<path d="M195.666 134.236L195.666 180.498" stroke="url(#paint2_linear)" stroke-width="3" stroke-linecap="round"/>
<path d="M77.1413 64.0546L87.3919 57.6381L91.7659 64.7164L73.1764 78.8731C70.4042 73.6586 72.1355 67.1881 77.1413 64.0546Z" fill="#1C2035"/>
<path d="M83.4236 84.477L87.51 81.9334C89.5532 81.5307 88.5316 85.7926 88.0208 87.9739L83.4236 84.477Z" fill="#454545"/>
<path d="M68.6928 88.0746L87.742 90.8782L91.0075 98.1675C81.7551 103.775 72.5027 102.093 60.5289 96.4853C56.0911 94.4072 50.5834 91.1153 45.3103 85.8444C44.9454 85.4796 44.7454 84.9824 44.7454 84.4665C44.7454 83.1699 45.9686 82.2218 47.2242 82.5452L68.6928 88.0746Z" fill="#1C2035"/>
<path d="M124.377 89.4908V56.8798C124.377 51.0158 129.131 46.2622 134.994 46.2622V100.108C129.131 100.108 124.377 95.3547 124.377 89.4908Z" fill="#5C6286"/>
<mask id="mask0" mask-type="alpha" maskUnits="userSpaceOnUse" x="124" y="46" width="11" height="55">
<path d="M124.377 89.4908V56.8798C124.377 51.0158 129.131 46.2622 134.994 46.2622V100.108C129.131 100.108 124.377 95.3547 124.377 89.4908Z" fill="#5C6286"/>
</mask>
<g mask="url(#mask0)">
<path d="M120.585 44.3662L138.786 62.5677" stroke="#505679"/>
<path d="M120.585 50.8125L138.786 69.014" stroke="#505679"/>
<path d="M120.585 57.6381L138.786 75.8396" stroke="#505679"/>
<path d="M120.585 64.0845L138.786 82.286" stroke="#505679"/>
<path d="M120.585 69.7725L138.786 87.974" stroke="#505679"/>
<path d="M120.585 76.2188L138.786 94.4203" stroke="#505679"/>
<path d="M120.585 81.9067L138.786 100.108" stroke="#505679"/>
<path d="M120.585 88.3531L138.786 106.555" stroke="#505679"/>
<path d="M138.786 44.3662L120.585 62.5677" stroke="#505679"/>
<path d="M138.786 50.8125L120.585 69.014" stroke="#505679"/>
<path d="M138.786 57.6381L120.585 75.8396" stroke="#505679"/>
<path d="M138.786 64.0845L120.585 82.286" stroke="#505679"/>
<path d="M138.786 69.7725L120.585 87.974" stroke="#505679"/>
<path d="M138.786 76.2188L120.585 94.4203" stroke="#505679"/>
<path d="M138.786 81.9067L120.585 100.108" stroke="#505679"/>
<path d="M138.786 88.3531L120.585 106.555" stroke="#505679"/>
</g>
<rect x="131.961" y="45.5038" width="6.06717" height="56.8797" rx="3.03358" fill="#767DA4"/>
<path d="M64.9727 41.2209L67.8916 31.8527L72.806 35.1732L71.9601 37.1329C69.993 41.6898 67.195 45.8408 63.709 49.3739L60.793 52.3294C59.8151 51.0079 59.7943 49.2084 60.7413 47.8646L63.9234 43.3496C64.3819 42.699 64.7359 41.9808 64.9727 41.2209Z" fill="#1C2035"/>
<path d="M66.6711 49.7132C68.8288 44.7302 70.5315 44.0526 73.8405 40.6562C74.7597 39.9014 76.598 39.5241 76.598 44.0526C76.598 48.5811 76.598 48.5811 76.0465 49.7132C75.06 51.7384 74.7058 53.4756 73.8405 54.8077C72.7375 56.5059 71.083 57.6381 68.877 57.6381C64.4651 57.6381 64.4651 54.8077 66.6711 49.7132Z" fill="#FFD6BF"/>
<path d="M168.903 125.836L174.528 114.097L185.269 121.451L190.893 109.712L201.634 117.066L207.259 105.327L218 112.681" stroke="#5C6286" stroke-width="3" stroke-linecap="round" stroke-linejoin="round"/>
<path d="M169.122 125.894L197.26 134.236L217.66 112.243" stroke="#5C6286" stroke-width="3" stroke-linecap="round"/>
<rect x="191.116" y="128.927" width="9.10075" height="14.4095" rx="2" fill="#484D69"/>
<rect x="191.116" y="128.927" width="6.06717" height="14.4095" rx="2" fill="#5C6286"/>
<circle cx="182.394" cy="104.279" r="2.65439" fill="#5C6286"/>
<defs>
<linearGradient id="paint0_linear" x1="30.7151" y1="116.793" x2="33.3695" y2="168.743" gradientUnits="userSpaceOnUse">
<stop stop-color="#A1ACDB"/>
<stop offset="1" stop-color="white" stop-opacity="0"/>
</linearGradient>
<linearGradient id="paint1_linear" x1="215.005" y1="95.9371" x2="189.599" y2="112.243" gradientUnits="userSpaceOnUse">
<stop stop-color="#555A7B"/>
<stop offset="1" stop-color="#858DBB"/>
</linearGradient>
<linearGradient id="paint2_linear" x1="195.666" y1="143.489" x2="195.666" y2="180.498" gradientUnits="userSpaceOnUse">
<stop stop-color="#1C2035"/>
<stop offset="1" stop-color="white" stop-opacity="0"/>
</linearGradient>
</defs>
</svg>
