<svg width="456" height="375" viewBox="0 0 456 375" fill="none" xmlns="http://www.w3.org/2000/svg">
<path d="M329.978 305.401C331.314 302.213 331.587 296.098 332.112 291.371C333.423 279.592 335.372 267.701 337.957 255.922C341.404 240.167 345.976 224.637 352.009 209.632C358.604 193.201 366.997 177.371 377.789 163.342C388.881 148.899 402.67 136.52 418.82 127.967C420.881 126.88 422.98 125.867 425.116 124.891C427.102 123.991 426.015 120.915 424.029 120.915C418.221 120.915 412.413 120.915 406.605 120.915C392.665 120.915 378.689 120.915 364.749 120.915C347.887 120.915 330.987 120.915 314.125 120.915C299.511 120.915 284.935 120.915 270.321 120.915C263.239 120.915 256.082 120.652 249 120.915C248.888 120.915 248.813 120.915 248.7 120.915C245.965 120.915 245.965 125.154 248.7 125.154C254.508 125.154 260.316 125.154 266.124 125.154C280.064 125.154 294.041 125.154 307.98 125.154C324.842 125.154 341.742 125.154 358.604 125.154C373.218 125.154 387.794 125.154 402.408 125.154C407.204 125.154 412.038 125.154 416.834 125.154C419.045 125.154 421.481 125.454 423.692 125.154C423.804 125.154 423.879 125.154 423.992 125.154C423.617 123.841 423.28 122.528 422.905 121.178C405.855 128.943 391.017 140.797 378.951 155.089C367.26 168.931 358.079 184.761 350.847 201.342C344.14 216.722 339.006 232.777 335.109 249.095C332.074 261.774 329.826 274.641 328.215 287.583C327.503 293.397 326.528 299.511 326.603 305.401C326.603 305.476 326.603 305.551 326.603 305.626C326.566 308.364 329.903 308.139 329.978 305.401Z" fill="#292E4A"/>
<path d="M356.2 179.083C348.656 186.953 338.227 191.402 327.326 191.402H265.288C265.288 191.402 284.811 102.123 315.163 96.0456C339.404 91.192 394.264 102.035 415.371 106.598C419.152 107.416 420.492 112.021 417.815 114.813L356.2 179.083Z" fill="#DD4828"/>
<path d="M409.329 116.925C411.778 114.147 410.339 110.116 406.637 110.209C394.074 110.524 368.943 116.653 347.822 155.945C320.128 207.463 365.431 166.722 409.329 116.925Z" fill="#653131"/>
<path d="M347.924 212.22C338.444 212.22 329.001 212.22 319.521 212.22C304.42 212.22 289.319 212.22 274.255 212.22C270.808 212.22 267.323 212.22 263.876 212.22C261.14 212.22 261.14 216.459 263.876 216.459C273.356 216.459 282.799 216.459 292.279 216.459C307.38 216.459 322.481 216.459 337.545 216.459C340.992 216.459 344.477 216.459 347.924 216.459C350.66 216.459 350.66 212.22 347.924 212.22Z" fill="#292E4A"/>
<path d="M327.803 302.881C315.212 302.881 302.622 302.881 290.031 302.881C269.909 302.881 249.787 302.881 229.665 302.881C225.056 302.881 220.484 302.881 215.875 302.881C213.14 302.881 213.14 307.12 215.875 307.12C228.466 307.12 241.056 307.12 253.647 307.12C273.769 307.12 293.891 307.12 314.013 307.12C318.622 307.12 323.194 307.12 327.803 307.12C330.538 307.158 330.538 302.881 327.803 302.881Z" fill="#292E4A"/>
<path d="M332.649 214.71H271.731L215.087 304.218H316.238C327.305 304.218 347.344 214.71 332.649 214.71Z" fill="#DD4828"/>
<path d="M322.288 322.821C298.849 311.741 260.494 315.896 249.84 315.896L175.793 345.728H276.475C302.898 345.728 318.027 330.457 322.288 322.821Z" fill="#EBEDF3"/>
<path d="M325.34 220.69C327.03 218.775 329.979 219.942 329.978 222.496C329.973 236.722 328.588 271.432 316.198 295.531C315.125 297.62 312.638 297.338 312.044 295.066C308.628 282.003 302.347 246.739 325.34 220.69Z" fill="#653131"/>
<path d="M164.127 242.23C169.26 246.957 175.555 250.258 182.338 251.758C187.958 252.996 193.617 252.884 198.825 255.735C207.444 260.461 210.891 270.027 212.465 279.18C213.439 284.844 213.701 290.621 213.814 296.398C213.889 302.137 213.814 307.914 213.139 313.654C212.128 322.507 209.579 332.26 202.347 338.112C193.542 345.239 180.876 343.589 170.272 343.476C154.384 343.326 138.496 343.176 122.646 343.026C115.376 342.951 108.069 342.876 100.8 342.838C96.9403 342.801 92.9683 342.463 89.1462 342.726C88.9588 342.726 88.7715 342.726 88.5841 342.726C89.2961 343.439 90.0081 344.151 90.72 344.864C90.72 343.701 89.7458 342.726 88.5841 342.726C67.9374 342.651 48.115 334.023 34.1006 318.868C20.0114 303.638 13.0042 282.856 14.6529 262.187C16.3017 241.855 26.6438 222.949 42.5317 210.232C59.5812 196.615 82.7011 190.988 103.91 196.277C115.451 199.166 126.768 204.155 135.911 211.883C144.492 219.122 151.049 228.238 158.543 236.528C160.342 238.479 162.216 240.392 164.127 242.23C166.113 244.106 169.11 241.105 167.124 239.229C158.768 231.314 152.248 221.748 144.117 213.646C135.274 204.83 124.744 198.641 112.978 194.552C100.725 190.313 88.1345 188.963 75.3192 191.101C64.7898 192.864 54.635 196.878 45.7168 202.73C27.8429 214.471 15.1401 233.377 11.3929 254.459C7.57084 275.991 12.8543 298.574 26.1567 315.979C39.1968 333.085 58.8318 344.189 80.228 346.515C83.0009 346.815 85.7738 346.965 88.5841 346.965C87.8722 346.252 87.1602 345.539 86.4483 344.826C86.4483 345.989 87.4225 346.927 88.5841 346.965C98.4017 347.04 108.219 347.152 118.037 347.227C134.524 347.377 151.012 347.527 167.499 347.677C178.591 347.79 191.481 349.403 201.523 343.739C209.842 339.05 214.226 330.234 216.174 321.194C218.61 309.902 218.535 297.823 217.598 286.345C216.737 276.141 214.676 265 207.519 257.16C204.184 253.521 199.799 250.971 195.041 249.62C192.118 248.757 189.158 248.607 186.16 248.157C182.637 247.632 179.153 246.657 175.93 245.156C172.67 243.618 169.71 241.667 167.087 239.229C165.138 237.391 162.103 240.392 164.127 242.23Z" fill="url(#paint0_linear)"/>
<path d="M12.2927 284.994C10.5315 276.966 10.0818 268.714 10.9062 260.461C10.9812 259.598 11.0936 258.735 11.206 257.873C11.0936 258.773 11.206 257.91 11.2435 257.723C11.3184 257.197 11.3933 256.71 11.5058 256.185C11.8055 254.497 12.1428 252.809 12.5175 251.12C13.3044 247.782 14.2787 244.518 15.4777 241.292C15.74 240.579 16.0023 239.867 16.3021 239.154C16.3771 238.929 16.8267 237.916 16.452 238.779C16.6019 238.479 16.7143 238.141 16.8642 237.841C17.6136 236.153 18.438 234.465 19.2998 232.814C20.8362 229.888 22.5224 227.075 24.3585 224.337C26.4943 221.186 27.5061 219.873 30.0167 217.022C32.19 214.546 34.4758 212.22 36.9114 210.044C38.148 208.919 39.422 207.831 40.7335 206.781C40.9958 206.556 41.2581 206.368 41.5204 206.143C40.696 206.781 42.0075 205.805 42.045 205.768C42.7195 205.28 43.394 204.793 44.0685 204.305C46.8039 202.392 49.6892 200.629 52.6494 199.053C54.1483 198.266 55.6471 197.515 57.146 196.84C57.4458 196.69 57.7455 196.577 58.0828 196.427C59.5442 195.79 57.5582 196.652 58.42 196.277C59.2819 195.94 60.1437 195.602 61.0056 195.265C64.1532 194.102 67.4132 193.126 70.7107 192.376C72.2845 192.001 73.8583 191.701 75.4695 191.438C75.8817 191.363 76.3314 191.288 76.7436 191.251C75.8068 191.401 76.7061 191.251 76.856 191.251C77.8677 191.138 78.9169 191.026 79.9286 190.951C83.451 190.65 86.9733 190.613 90.4956 190.838C98.0274 191.288 105.559 192.864 113.053 195.302C114.89 195.902 116.688 196.54 118.487 197.253C118.861 197.403 119.274 197.553 119.648 197.703C119.723 197.74 121.222 198.341 120.173 197.928C121.035 198.303 121.897 198.678 122.721 199.053C125.382 200.254 127.967 201.567 130.515 202.992C132.876 204.305 135.236 205.693 137.41 207.306C139.733 208.994 143.33 207.681 144.679 205.393C146.253 202.692 145.091 199.841 142.768 198.115C135.986 193.089 127.93 189.488 120.098 186.524C104.922 180.785 88.3972 178.572 72.3594 181.235C43.7687 185.924 18.7378 206.706 7.34643 233.19C-0.0729148 250.483 -1.94649 269.351 2.06296 287.808C2.6625 290.621 5.92252 292.234 8.58299 291.521C11.5058 290.734 12.9297 287.808 12.2927 284.994Z" fill="#FF6B06"/>
<path d="M291.391 66.4167C291.391 66.4167 398.276 57.736 404.646 68.3145C411.016 78.893 392.564 118.109 369.706 115.483C346.848 112.857 288.018 88.8491 288.018 76.0949C288.018 63.3407 291.391 66.4167 291.391 66.4167Z" fill="#BABCC9"/>
<path d="M105.477 302.578C105.477 302.578 135.27 156.171 206.691 114.532C206.691 114.532 199.766 41.0183 233.859 29.8315C275.452 12.2006 304.956 103.854 304.956 103.854C304.956 103.854 305.893 119.872 317.584 124.561C343.889 135.14 322.755 166.087 318.821 170.026C312.151 176.741 235.147 247.977 219.147 332.305C203.146 416.595 85.7665 358.059 105.477 302.578Z" fill="url(#paint1_linear)"/>
<path d="M296.814 196.728C296.814 196.728 334.472 178.047 353.021 159.478C371.569 140.909 412.825 103.734 410.577 86.2537C408.329 68.7354 372.056 64.4965 345.114 96.7572C323.493 122.641 282.987 147.962 282.987 174.333C282.949 187.8 296.814 196.728 296.814 196.728Z" fill="#D5D8E5"/>
<path fill-rule="evenodd" clip-rule="evenodd" d="M78.3492 262.941C78.5099 262.793 78.6994 262.546 78.9072 262.249C79.1226 261.941 79.3818 261.542 79.6836 261.062C80.2872 260.1 81.0744 258.787 82.0428 257.169L82.2356 256.847C84.1575 253.635 86.7699 249.27 90.0832 244.029C96.934 233.193 106.78 218.616 119.698 202.786C145.536 171.122 183.645 134.467 234.621 112.702L234.229 111.782C183.05 133.634 144.819 170.419 118.923 202.154C105.973 218.023 96.1036 232.635 89.238 243.495C85.9182 248.746 83.3007 253.12 81.3786 256.332L81.3781 256.332L81.1848 256.655C80.2145 258.276 79.4333 259.579 78.8365 260.53C78.538 261.006 78.289 261.388 78.0877 261.676C77.8789 261.975 77.7435 262.139 77.6707 262.206L78.3492 262.941ZM90.8913 289.813C90.7159 290.131 90.5534 290.396 90.4092 290.56L89.6571 289.901C89.7225 289.827 89.8398 289.649 90.0159 289.33C90.1858 289.022 90.3931 288.616 90.6399 288.111C91.1332 287.103 91.7728 285.725 92.5669 284.011L92.7251 283.669C94.2982 280.272 96.4406 275.647 99.1889 270.075C104.872 258.552 113.148 242.982 124.354 225.837C146.763 191.551 180.906 150.943 229.498 123.822L229.985 124.695C181.585 151.709 147.55 192.174 125.191 226.384C114.013 243.486 105.757 259.02 100.086 270.517C97.3429 276.078 95.2049 280.694 93.632 284.09L93.4743 284.431C92.6817 286.142 92.0372 287.53 91.5382 288.551C91.2888 289.061 91.073 289.484 90.8913 289.813ZM185.344 331.691C185.43 331.489 185.503 331.187 185.571 330.831C185.642 330.462 185.716 329.992 185.796 329.43C185.954 328.306 186.138 326.786 186.362 324.914L186.406 324.541L186.406 324.541L186.407 324.539L186.407 324.539L186.407 324.537L186.407 324.536C186.852 320.82 187.456 315.77 188.343 309.637C190.178 296.949 193.222 279.623 198.559 259.901C209.235 220.452 229.078 171.441 266.743 130.775L266.009 130.096C228.195 170.922 208.293 220.102 197.594 259.64C192.244 279.411 189.192 296.778 187.354 309.494C186.464 315.643 185.859 320.704 185.414 324.421L185.369 324.795C185.144 326.671 184.962 328.179 184.805 329.29C184.727 329.847 184.655 330.297 184.589 330.642C184.52 331 184.464 331.205 184.425 331.297L185.344 331.691ZM208.723 331.691C208.809 331.489 208.882 331.187 208.95 330.831C209.021 330.462 209.095 329.992 209.174 329.43C209.333 328.306 209.517 326.786 209.741 324.914L209.785 324.541L209.786 324.539C210.23 320.823 210.835 315.773 211.722 309.637C213.557 296.949 216.601 279.623 221.938 259.901C232.614 220.452 252.457 171.441 290.122 130.775L289.388 130.096C251.574 170.922 231.672 220.102 220.973 259.64C215.622 279.411 212.571 296.778 210.732 309.494C209.843 315.643 209.237 320.704 208.793 324.421L208.748 324.795C208.523 326.671 208.341 328.179 208.184 329.29C208.106 329.847 208.034 330.297 207.968 330.642C207.899 331 207.843 331.205 207.804 331.297L208.723 331.691ZM143.776 325.643C143.667 325.989 143.561 326.281 143.452 326.471L142.584 325.975C142.633 325.889 142.712 325.692 142.821 325.344C142.926 325.009 143.048 324.569 143.189 324.025C143.472 322.939 143.823 321.461 144.259 319.623L144.346 319.256L144.346 319.255L144.347 319.254L144.347 319.253C145.21 315.611 146.386 310.652 147.967 304.646C151.236 292.221 156.237 275.312 163.795 256.275C178.91 218.206 204.261 171.601 246.463 135.327L247.115 136.085C205.08 172.216 179.806 218.66 164.725 256.644C157.185 275.633 152.196 292.502 148.934 304.9C147.356 310.896 146.182 315.846 145.319 319.488L145.232 319.854C144.797 321.688 144.443 323.177 144.157 324.277C144.015 324.826 143.888 325.284 143.776 325.643ZM105.133 316.822C105.261 316.645 105.399 316.367 105.544 316.034C105.695 315.69 105.871 315.248 106.072 314.717C106.475 313.655 106.988 312.214 107.62 310.437L107.745 310.083C108.998 306.556 110.701 301.762 112.92 295.972C117.506 284.001 124.294 267.772 133.847 249.712C152.955 213.586 183.113 170.153 228.816 138.79L228.25 137.966C182.366 169.453 152.114 213.037 132.963 249.244C123.386 267.35 116.582 283.617 111.986 295.615C109.763 301.416 108.057 306.22 106.804 309.747L106.803 309.747L106.677 310.102C106.045 311.882 105.535 313.313 105.137 314.363C104.938 314.888 104.769 315.312 104.628 315.634C104.482 315.967 104.382 316.155 104.323 316.236L105.133 316.822Z" fill="url(#paint2_linear)"/>
<path d="M217.345 341.466C265.678 336.028 251.807 290.326 240.251 278.074C210.952 280.737 163.172 277.541 133.341 273.279C107.479 269.585 45.28 272.746 39.4202 311.634C33.5604 350.522 174.728 346.26 217.345 341.466Z" fill="url(#paint3_radial)"/>
<path d="M106.542 250.373C102.28 266.354 165.503 287.129 240.083 277.541" stroke="#292E4A" stroke-width="8" stroke-linecap="round"/>
<rect x="107.309" y="253.569" width="29.8221" height="14.3091" rx="7.15456" transform="rotate(20.5788 107.309 253.569)" fill="#A5A8BD"/>
<path d="M300.01 189.27C300.01 189.27 337.668 170.589 356.217 152.02C374.765 133.451 416.021 96.2767 413.773 78.7959C411.525 61.2776 375.252 57.0387 348.31 89.2994C326.689 115.183 286.183 140.504 286.183 166.875C286.145 180.342 300.01 189.27 300.01 189.27Z" fill="#D5D8E5"/>
<path d="M243.441 151.003C243.441 151.003 239.394 60.035 253.746 47.2433C268.098 34.4516 296.276 111.652 296.276 111.652L243.441 151.003Z" fill="#9FA5BE"/>
<path d="M260.89 106.255C260.89 106.255 245.901 107.268 232.898 113.42C223.193 117.996 216.298 127.149 215.024 137.84C214.912 138.853 214.837 139.828 214.837 140.804C214.837 140.804 235.634 115.783 276.365 112.032C311.963 108.731 260.89 106.255 260.89 106.255Z" fill="white"/>
<path fill-rule="evenodd" clip-rule="evenodd" d="M223.432 132.445C228.897 126.683 241.555 110.194 241.555 110.194C241.555 110.194 309.003 103.817 305.856 110.906C302.708 117.996 301.134 119.572 271.757 134.202C266.423 136.858 261.247 138.679 256.376 139.851C264.773 143.322 268.425 147.481 255.794 151.457C226.004 160.835 210.079 151.457 210.079 151.457C210.079 151.457 211.952 146.393 214.837 140.766C216.929 136.687 221.226 133.752 223.432 132.445Z" fill="#FFD6BF"/>
<path fill-rule="evenodd" clip-rule="evenodd" d="M223.432 132.445C228.897 126.683 241.555 110.194 241.555 110.194C241.555 110.194 309.003 103.817 305.856 110.906C302.708 117.996 301.134 119.572 271.757 134.202C266.423 136.858 261.247 138.679 256.376 139.851C264.773 143.322 268.425 147.481 255.794 151.457C226.004 160.835 210.079 151.457 210.079 151.457C210.079 151.457 211.952 146.393 214.837 140.766C216.929 136.687 221.226 133.752 223.432 132.445Z" fill="url(#paint4_linear)"/>
<path d="M207.967 155.861C208.042 154.661 207.131 153.629 205.933 153.554C204.735 153.48 203.703 154.392 203.629 155.591C203.555 156.791 204.466 157.823 205.664 157.898C206.862 157.972 207.893 157.06 207.967 155.861Z" fill="#292E4A"/>
<path d="M188.79 173.973C188.864 172.773 187.953 171.741 186.755 171.666C185.557 171.592 184.526 172.504 184.452 173.703C184.377 174.903 185.288 175.935 186.486 176.01C187.684 176.084 188.716 175.172 188.79 173.973Z" fill="#292E4A"/>
<path d="M174.551 191.772C174.625 190.573 173.714 189.54 172.516 189.466C171.318 189.391 170.286 190.303 170.212 191.503C170.138 192.702 171.049 193.734 172.247 193.809C173.445 193.883 174.476 192.971 174.551 191.772Z" fill="#292E4A"/>
<path d="M157.718 214.787C157.793 213.588 156.882 212.555 155.684 212.481C154.486 212.406 153.454 213.318 153.38 214.518C153.305 215.717 154.216 216.75 155.414 216.824C156.612 216.898 157.644 215.986 157.718 214.787Z" fill="#292E4A"/>
<path d="M141.809 241.256C141.883 240.057 140.972 239.024 139.774 238.95C138.576 238.876 137.545 239.787 137.471 240.987C137.396 242.186 138.307 243.219 139.505 243.293C140.703 243.368 141.735 242.456 141.809 241.256Z" fill="#292E4A"/>
<path d="M234.434 155.846C234.434 155.846 234.809 131.388 243.802 129.888C252.795 128.387 291.391 133.789 307.129 107.568C307.129 107.568 311.063 115.858 311.063 119.797C311.063 123.736 305.93 149.844 234.434 155.846Z" fill="white"/>
<path d="M261.553 242.23C266.687 246.957 272.982 250.258 279.764 251.758C282.912 252.471 286.097 252.584 289.245 253.146C292.167 253.671 295.015 254.497 297.788 255.585C308.28 259.636 316.936 267.776 321.957 277.829C327.203 288.333 328.028 300.749 324.505 311.928C321.095 322.694 313.601 331.922 303.821 337.549C296.627 341.713 288.533 343.664 280.252 343.589C276.055 343.551 271.895 343.514 267.699 343.476C251.811 343.326 235.923 343.176 220.072 343.026C212.803 342.951 205.496 342.876 198.227 342.838C194.367 342.801 190.395 342.463 186.573 342.726C186.386 342.726 186.198 342.726 186.011 342.726C186.723 343.439 187.435 344.151 188.147 344.864C188.147 343.701 187.172 342.726 186.011 342.726C165.364 342.651 145.542 334.023 131.527 318.868C117.438 303.638 110.431 282.856 112.08 262.187C113.728 241.855 124.071 222.949 139.958 210.232C157.008 196.615 180.128 190.988 201.337 196.277C212.878 199.166 224.194 204.155 233.337 211.883C241.918 219.122 248.476 228.238 255.97 236.528C257.769 238.479 259.642 240.392 261.553 242.23C263.539 244.106 266.537 241.105 264.551 239.229C256.195 231.314 249.675 221.748 241.544 213.646C232.7 204.83 222.171 198.641 210.405 194.552C198.152 190.313 185.561 188.963 172.746 191.101C162.217 192.864 152.062 196.878 143.144 202.73C125.27 214.471 112.567 233.377 108.82 254.459C104.998 275.991 110.281 298.574 123.583 315.979C136.624 333.085 156.259 344.189 177.655 346.515C180.428 346.815 183.201 346.965 186.011 346.965C185.299 346.252 184.587 345.539 183.875 344.826C183.875 345.989 184.849 346.927 186.011 346.965C195.828 347.04 205.646 347.152 215.463 347.227C231.951 347.377 248.438 347.527 264.926 347.677C269.797 347.715 274.668 347.752 279.54 347.827C287.184 347.902 294.566 346.59 301.573 343.439C323.756 333.573 335.634 307.952 329.114 284.619C325.929 273.253 318.697 263.275 308.917 256.672C304.083 253.371 298.613 250.97 292.917 249.583C289.844 248.832 286.734 248.607 283.624 248.157C280.102 247.632 276.617 246.657 273.394 245.156C270.134 243.618 267.174 241.667 264.551 239.229C262.565 237.391 259.53 240.392 261.553 242.23Z" fill="#292E4A"/>
<path d="M109.718 284.994C107.957 276.966 107.507 268.714 108.332 260.461C108.407 259.598 108.519 258.735 108.632 257.873C108.519 258.773 108.632 257.91 108.669 257.723C108.744 257.197 108.819 256.71 108.931 256.185C109.231 254.497 109.568 252.809 109.943 251.12C110.73 247.782 111.704 244.518 112.903 241.292C113.166 240.579 113.428 239.867 113.728 239.154C113.803 238.929 114.252 237.916 113.878 238.779C114.027 238.479 114.14 238.141 114.29 237.841C115.039 236.153 115.864 234.465 116.725 232.814C118.262 229.888 119.948 227.075 121.784 224.337C123.92 221.186 124.932 219.873 127.442 217.022C129.616 214.546 131.901 212.22 134.337 210.044C135.574 208.919 136.848 207.831 138.159 206.781C138.421 206.556 138.684 206.368 138.946 206.143C138.122 206.781 139.433 205.805 139.471 205.768C140.145 205.28 140.82 204.793 141.494 204.305C144.229 202.392 147.115 200.629 150.075 199.053C151.574 198.266 153.073 197.515 154.572 196.84C154.871 196.69 155.171 196.577 155.508 196.427C156.97 195.79 154.984 196.652 155.846 196.277C156.707 195.94 157.569 195.602 158.431 195.265C161.579 194.102 164.839 193.126 168.136 192.376C169.71 192.001 171.284 191.701 172.895 191.438C173.307 191.363 173.757 191.288 174.169 191.251C173.232 191.401 174.132 191.251 174.282 191.251C175.293 191.138 176.343 191.026 177.354 190.951C180.877 190.65 184.399 190.613 187.921 190.838C195.453 191.288 202.985 192.864 210.479 195.302C212.315 195.902 214.114 196.54 215.912 197.253C216.287 197.403 216.699 197.553 217.074 197.703C217.149 197.74 218.648 198.341 217.599 197.928C218.46 198.303 219.322 198.678 220.147 199.053C222.807 200.254 225.393 201.567 227.941 202.992C230.301 204.305 232.662 205.693 234.835 207.306C237.159 208.994 240.756 207.681 242.105 205.393C243.679 202.692 242.517 199.841 240.194 198.115C233.412 193.089 225.355 189.488 217.524 186.524C202.348 180.785 185.823 178.572 169.785 181.235C141.194 185.924 116.163 206.706 104.772 233.19C97.3152 250.483 95.4416 269.351 99.4511 287.808C100.051 290.621 103.311 292.234 105.971 291.521C108.931 290.734 110.355 287.808 109.718 284.994Z" fill="#FF6B06"/>
<path d="M254.669 43.4217C254.669 43.4217 240.055 53.5501 240.055 60.6774C240.055 64.2411 236.383 66.6044 232.748 68.0299C228.364 69.7554 221.623 69.6505 225.441 78.6459C225.441 78.6459 210.94 96.5393 213.938 103.292C220.27 117.546 255.044 122.535 279.025 122.535C303.007 122.535 329.987 89.5245 329.987 68.8926C329.987 48.2608 277.152 20.9143 254.669 43.4217Z" fill="#FFE2D1"/>
<path d="M254.669 43.4218C254.669 43.4218 252.683 27.2914 271.644 21.0269C290.605 14.7623 303.457 29.017 310.614 38.7702C322.83 55.4632 332.835 63.2658 332.835 69.5304C332.835 75.795 333.322 92.0378 323.842 99.0526C314.361 106.067 309.303 110.869 305.818 110.869C302.333 110.869 287.907 112.543 291.391 106.541C291.391 106.541 300.98 103.878 305.818 100.149C312.167 96.42 311.102 85.6955 294.588 89.4948C288.555 90.8828 295.588 70.5057 292.328 62.253C289.368 54.638 257.817 41.7712 254.669 43.4218Z" fill="#292E4A"/>
<path d="M259.698 66.3106C253.841 58.9896 250.346 71.6543 250.346 72.9903C253.018 79.002 265.709 83.0097 267.713 80.3379C269.871 77.4602 265.041 72.9903 259.698 66.3106Z" fill="#FFD6BF"/>
<path d="M232.978 81.674C230.841 82.2084 226.521 79.8928 225.631 79.0022C222.959 81.674 224.358 83.2898 229.638 84.3459C232.978 85.0139 236.452 96.2022 238.99 93.0295C241.662 89.6896 244.334 73.6584 242.998 72.9905C241.662 72.3225 239.658 72.9905 237.654 74.9944C235.65 76.9983 235.65 81.0061 232.978 81.674Z" fill="#FFD6BF"/>
<path d="M275.729 119.748C273.591 122.954 265.932 123.311 262.37 123.088C260.366 131.771 302.448 121.084 294.432 114.404C286.416 107.725 278.401 115.74 275.729 119.748Z" fill="#FFD6BF"/>
<path d="M258.53 59.1551C258.005 58.0815 260.127 54.9391 260.577 54.4979C273.838 65.3071 269.75 73.9537 269.113 70.6079C268.476 67.2621 259.186 60.4971 258.53 59.1551Z" fill="#292E4A"/>
<path d="M247.803 51.3151C247.351 50.4122 244.961 51.3528 243.29 52.2034C242.737 52.4852 242.268 52.9222 241.949 53.4553C238.951 58.4752 243.859 56.6271 245.131 55.9909C246.467 55.3229 248.471 52.651 247.803 51.3151Z" fill="#292E4A"/>
<path d="M228.304 81.0058C225.632 79.9371 223.628 80.1152 222.96 80.3378C217.616 81.0058 216.948 84.3457 221.624 85.6816C226.3 87.0175 239.659 96.3691 239.659 92.3613C239.659 88.3535 231.644 82.3417 228.304 81.0058Z" fill="#292E4A"/>
<path fill-rule="evenodd" clip-rule="evenodd" d="M293.024 103.41C297.018 102.244 298.606 100.54 298.972 97.7048C299.43 94.1608 292.479 95.9047 292.471 97.8254C292.469 98.2636 292.473 98.8099 292.492 99.3943L280.472 102.464C279.423 102.732 278.79 103.799 279.058 104.847C279.326 105.896 280.393 106.529 281.441 106.261L292.986 103.312C292.999 103.346 293.011 103.378 293.024 103.41Z" fill="#FF6B06"/>
<path d="M399.242 65.8348C408.39 67.5287 413.509 75.4083 412.394 81.7311C409.944 95.6125 399.917 104.598 386.905 107.7C373.894 110.802 369.02 107.314 369.034 96.44C369.047 85.5663 384.555 63.1156 399.242 65.8348Z" fill="#EDEDED"/>
<mask id="mask0" mask-type="alpha" maskUnits="userSpaceOnUse" x="369" y="65" width="44" height="44">
<path d="M399.242 65.8348C408.39 67.5287 413.509 75.4083 412.393 81.7311C409.944 95.6125 399.916 104.598 386.905 107.7C373.894 110.802 369.02 107.314 369.033 96.44C369.047 85.5663 384.555 63.1156 399.242 65.8348Z" fill="#B1B3C2"/>
</mask>
<g mask="url(#mask0)">
<path d="M365.905 93.0293C366.573 93.6973 376.592 94.3652 387.948 111.064" stroke="#D5D8E5"/>
<path d="M369.245 84.3455C370.095 85.2361 382.847 86.1267 397.299 108.392" stroke="#D5D8E5"/>
<path d="M375.924 77.666C376.774 78.5566 389.526 79.4473 403.978 101.713" stroke="#D5D8E5"/>
<path d="M382.604 70.9863C383.454 71.877 396.206 72.7676 410.659 95.0331" stroke="#D5D8E5"/>
<path d="M386.611 64.3066C387.461 65.1973 400.214 66.0879 414.666 88.3535" stroke="#D5D8E5"/>
</g>
<rect x="420.841" y="217.846" width="4.32434" height="24.5046" rx="1" transform="rotate(90 420.841 217.846)" fill="#FF6B06"/>
<rect x="410.751" y="232.261" width="4.32434" height="24.5046" rx="1" transform="rotate(-180 410.751 232.261)" fill="#FF6B06"/>
<path d="M452.824 223.849C452.824 225.919 452.075 227.586 450.578 228.849C449.08 230.099 446.984 230.848 444.288 231.095V235.099H441.613V231.173C438.436 231.108 435.649 230.548 433.253 229.494V224.337C434.386 224.897 435.747 225.392 437.335 225.822C438.937 226.251 440.363 226.505 441.613 226.583V220.529L440.304 220.021C437.726 219.005 435.897 217.905 434.816 216.72C433.748 215.522 433.214 214.044 433.214 212.287C433.214 210.399 433.95 208.849 435.421 207.638C436.906 206.414 438.969 205.672 441.613 205.412V202.423H444.288V205.333C447.27 205.464 449.966 206.063 452.374 207.13L450.538 211.701C448.507 210.867 446.424 210.36 444.288 210.177V215.939C446.828 216.916 448.631 217.762 449.699 218.478C450.779 219.194 451.567 219.982 452.062 220.841C452.57 221.701 452.824 222.703 452.824 223.849ZM446.945 224.142C446.945 223.595 446.723 223.133 446.281 222.755C445.838 222.378 445.174 221.987 444.288 221.583V226.447C446.059 226.147 446.945 225.379 446.945 224.142ZM439.093 212.287C439.093 212.86 439.288 213.335 439.679 213.712C440.083 214.077 440.727 214.455 441.613 214.845V210.255C439.933 210.503 439.093 211.18 439.093 212.287Z" fill="#292E4A"/>
<rect x="58.5997" y="114.626" width="3.00823" height="17.0467" rx="1" transform="rotate(90 58.5997 114.626)" fill="#FF6B06"/>
<rect x="51.5803" y="124.654" width="3.00823" height="17.0467" rx="1" transform="rotate(-180 51.5803 124.654)" fill="#FF6B06"/>
<path d="M83.1189 119.128C83.1189 120.68 82.5574 121.93 81.4343 122.878C80.3113 123.815 78.739 124.377 76.7175 124.562V127.565H74.7107V124.621C72.3279 124.572 70.238 124.152 68.4412 123.361V119.494C69.2908 119.914 70.3113 120.285 71.5027 120.607C72.7039 120.929 73.7732 121.12 74.7107 121.178V116.637L73.7292 116.257C71.7957 115.495 70.4236 114.67 69.613 113.781C68.8123 112.883 68.4119 111.774 68.4119 110.456C68.4119 109.04 68.9636 107.878 70.0671 106.969C71.1804 106.052 72.7283 105.495 74.7107 105.3V103.058H76.7175V105.241C78.9539 105.339 80.9753 105.788 82.782 106.589L81.405 110.016C79.8816 109.391 78.3191 109.01 76.7175 108.874V113.195C78.6218 113.927 79.9744 114.562 80.7751 115.099C81.5857 115.636 82.1765 116.227 82.5476 116.872C82.9285 117.516 83.1189 118.268 83.1189 119.128ZM78.7097 119.347C78.7097 118.937 78.5437 118.591 78.2117 118.307C77.8796 118.024 77.3816 117.731 76.7175 117.428V121.076C78.0457 120.851 78.7097 120.275 78.7097 119.347ZM72.821 110.456C72.821 110.885 72.9675 111.242 73.2605 111.525C73.5632 111.799 74.0466 112.082 74.7107 112.375V108.932C73.4509 109.118 72.821 109.626 72.821 110.456ZM100.258 119.128C100.258 120.68 99.696 121.93 98.573 122.878C97.45 123.815 95.8777 124.377 93.8562 124.562V127.565H91.8494V124.621C89.4666 124.572 87.3767 124.152 85.5798 123.361V119.494C86.4294 119.914 87.45 120.285 88.6414 120.607C89.8425 120.929 90.9119 121.12 91.8494 121.178V116.637L90.8679 116.257C88.9343 115.495 87.5623 114.67 86.7517 113.781C85.9509 112.883 85.5505 111.774 85.5505 110.456C85.5505 109.04 86.1023 107.878 87.2058 106.969C88.3191 106.052 89.8669 105.495 91.8494 105.3V103.058H93.8562V105.241C96.0925 105.339 98.114 105.788 99.9207 106.589L98.5437 110.016C97.0203 109.391 95.4578 109.01 93.8562 108.874V113.195C95.7605 113.927 97.113 114.562 97.9138 115.099C98.7244 115.636 99.3152 116.227 99.6863 116.872C100.067 117.516 100.258 118.268 100.258 119.128ZM95.8484 119.347C95.8484 118.937 95.6824 118.591 95.3503 118.307C95.0183 118.024 94.5203 117.731 93.8562 117.428V121.076C95.1843 120.851 95.8484 120.275 95.8484 119.347ZM89.9597 110.456C89.9597 110.885 90.1062 111.242 90.3992 111.525C90.7019 111.799 91.1853 112.082 91.8494 112.375V108.932C90.5896 109.118 89.9597 109.626 89.9597 110.456ZM117.396 119.128C117.396 120.68 116.835 121.93 115.712 122.878C114.589 123.815 113.016 124.377 110.995 124.562V127.565H108.988V124.621C106.605 124.572 104.515 124.152 102.719 123.361V119.494C103.568 119.914 104.589 120.285 105.78 120.607C106.981 120.929 108.051 121.12 108.988 121.178V116.637L108.007 116.257C106.073 115.495 104.701 114.67 103.89 113.781C103.09 112.883 102.689 111.774 102.689 110.456C102.689 109.04 103.241 107.878 104.344 106.969C105.458 106.052 107.006 105.495 108.988 105.3V103.058H110.995V105.241C113.231 105.339 115.253 105.788 117.059 106.589L115.682 110.016C114.159 109.391 112.596 109.01 110.995 108.874V113.195C112.899 113.927 114.252 114.562 115.052 115.099C115.863 115.636 116.454 116.227 116.825 116.872C117.206 117.516 117.396 118.268 117.396 119.128ZM112.987 119.347C112.987 118.937 112.821 118.591 112.489 118.307C112.157 118.024 111.659 117.731 110.995 117.428V121.076C112.323 120.851 112.987 120.275 112.987 119.347ZM107.098 110.456C107.098 110.885 107.245 111.242 107.538 111.525C107.841 111.799 108.324 112.082 108.988 112.375V108.932C107.728 109.118 107.098 109.626 107.098 110.456Z" fill="#292E4A"/>
<rect x="364.374" y="19.804" width="3.00823" height="17.0467" rx="1" transform="rotate(90 364.374 19.804)" fill="#FF6B06"/>
<rect x="357.355" y="29.8315" width="3.00823" height="17.0467" rx="1" transform="rotate(-180 357.355 29.8315)" fill="#FF6B06"/>
<path d="M388.893 24.3057C388.893 25.8584 388.331 27.1084 387.208 28.0557C386.085 28.9932 384.513 29.5547 382.492 29.7402V32.7432H380.485V29.7988C378.102 29.75 376.012 29.3301 374.215 28.5391V24.6719C375.065 25.0918 376.085 25.4629 377.277 25.7852C378.478 26.1074 379.547 26.2979 380.485 26.3564V21.8154L379.503 21.4346C377.57 20.6729 376.198 19.8477 375.387 18.959C374.586 18.0605 374.186 16.9521 374.186 15.6338C374.186 14.2178 374.738 13.0557 375.841 12.1475C376.955 11.2295 378.502 10.6729 380.485 10.4775V8.23633H382.492V10.4189C384.728 10.5166 386.749 10.9658 388.556 11.7666L387.179 15.1943C385.656 14.5693 384.093 14.1885 382.492 14.0518V18.373C384.396 19.1055 385.748 19.7402 386.549 20.2773C387.36 20.8145 387.951 21.4053 388.322 22.0498C388.703 22.6943 388.893 23.4463 388.893 24.3057ZM384.484 24.5254C384.484 24.1152 384.318 23.7686 383.986 23.4854C383.654 23.2021 383.156 22.9092 382.492 22.6064V26.2539C383.82 26.0293 384.484 25.4531 384.484 24.5254ZM378.595 15.6338C378.595 16.0635 378.742 16.4199 379.035 16.7031C379.337 16.9766 379.821 17.2598 380.485 17.5527V14.1104C379.225 14.2959 378.595 14.8037 378.595 15.6338ZM406.032 24.3057C406.032 25.8584 405.47 27.1084 404.347 28.0557C403.224 28.9932 401.652 29.5547 399.63 29.7402V32.7432H397.623V29.7988C395.241 29.75 393.151 29.3301 391.354 28.5391V24.6719C392.204 25.0918 393.224 25.4629 394.415 25.7852C395.617 26.1074 396.686 26.2979 397.623 26.3564V21.8154L396.642 21.4346C394.708 20.6729 393.336 19.8477 392.526 18.959C391.725 18.0605 391.325 16.9521 391.325 15.6338C391.325 14.2178 391.876 13.0557 392.98 12.1475C394.093 11.2295 395.641 10.6729 397.623 10.4775V8.23633H399.63V10.4189C401.867 10.5166 403.888 10.9658 405.695 11.7666L404.318 15.1943C402.794 14.5693 401.232 14.1885 399.63 14.0518V18.373C401.535 19.1055 402.887 19.7402 403.688 20.2773C404.498 20.8145 405.089 21.4053 405.46 22.0498C405.841 22.6943 406.032 23.4463 406.032 24.3057ZM401.622 24.5254C401.622 24.1152 401.456 23.7686 401.124 23.4854C400.792 23.2021 400.294 22.9092 399.63 22.6064V26.2539C400.958 26.0293 401.622 25.4531 401.622 24.5254ZM395.734 15.6338C395.734 16.0635 395.88 16.4199 396.173 16.7031C396.476 16.9766 396.959 17.2598 397.623 17.5527V14.1104C396.364 14.2959 395.734 14.8037 395.734 15.6338Z" fill="#292E4A"/>
<defs>
<linearGradient id="paint0_linear" x1="82.5695" y1="252.503" x2="61.2612" y2="317.493" gradientUnits="userSpaceOnUse">
<stop stop-color="#292E4A"/>
<stop offset="1" stop-color="white"/>
</linearGradient>
<linearGradient id="paint1_linear" x1="359.893" y1="141.791" x2="150.151" y2="353.536" gradientUnits="userSpaceOnUse">
<stop offset="0.322513" stop-color="#D5D8E5"/>
<stop offset="0.856584" stop-color="white"/>
</linearGradient>
<linearGradient id="paint2_linear" x1="268.281" y1="213.316" x2="160.853" y2="153.27" gradientUnits="userSpaceOnUse">
<stop stop-color="white"/>
<stop offset="1" stop-color="white" stop-opacity="0"/>
</linearGradient>
<radialGradient id="paint3_radial" cx="0" cy="0" r="1" gradientUnits="userSpaceOnUse" gradientTransform="translate(-15.2848 368.634) rotate(-18.8346) scale(265.663 663.379)">
<stop stop-color="white"/>
<stop offset="0.341766" stop-color="white" stop-opacity="0.28"/>
<stop offset="0.958333" stop-color="#8389A7"/>
</radialGradient>
<linearGradient id="paint4_linear" x1="183.785" y1="176.326" x2="269.018" y2="144.896" gradientUnits="userSpaceOnUse">
<stop stop-color="#FF886D"/>
<stop offset="1" stop-color="#FFDFCC"/>
</linearGradient>
</defs>
</svg>
