<svg width="296" height="91" viewBox="0 0 296 91" fill="none" xmlns="http://www.w3.org/2000/svg">
<path fill-rule="evenodd" clip-rule="evenodd" d="M147.144 90.4012C147.151 90.4012 147.159 90.4012 147.167 90.4012C151.362 90.4012 155.066 89.1053 164.353 68.2825C167.302 61.6452 170.936 57.0043 174.57 53.7469C176.817 51.7329 180.258 51.6979 182.523 53.7294C184.612 55.5857 186.613 57.985 188.334 61.0672C195.637 74.1668 198.551 74.9724 201.851 74.9724C205.152 74.9724 208.066 74.1493 215.369 61.0672C218.072 56.2337 221.478 53.0814 224.778 51.0149C228.131 48.9133 232.555 49.5438 235.118 52.556L235.171 52.6085C239.507 57.7573 241.228 58.0725 243.194 58.0725C245.16 58.0725 246.88 57.7573 251.217 52.6085C254.025 49.2811 258.133 47.9676 260.925 47.4598H265.331H269.527C272.283 47.4598 272.265 43.2041 269.527 43.2041H269.263C267.918 43.1808 266.572 43.1886 265.226 43.1964C264.553 43.2003 263.88 43.2041 263.207 43.2041H260.925C258.151 42.6963 254.025 41.4003 251.217 38.0554C246.88 32.9066 245.16 32.5914 243.194 32.5914C241.228 32.5914 239.507 32.9066 235.171 38.0554L235.118 38.1079C232.555 41.1201 228.131 41.7506 224.778 39.649C221.478 37.5825 218.072 34.4302 215.369 29.5967C208.066 16.4971 205.152 15.6915 201.851 15.6915C198.551 15.6915 195.637 16.5146 188.334 29.5967C186.684 32.5563 184.77 34.868 182.786 36.7069C180.522 38.7909 177.046 38.8434 174.746 36.812C171.059 33.5371 167.355 28.8611 164.353 22.1187C155.066 1.29595 151.362 0 147.167 0C147.159 0 147.151 4.33309e-06 147.144 1.31097e-05C147.136 4.33274e-06 147.128 0 147.121 0C142.925 0 139.221 1.29595 129.934 22.1187C126.932 28.8611 123.228 33.5371 119.541 36.812C117.242 38.8434 113.766 38.7909 111.501 36.7069C109.517 34.868 107.604 32.5563 105.953 29.5967C98.6505 16.5146 95.7363 15.6915 92.4359 15.6915C89.1355 15.6915 86.2214 16.4971 78.9184 29.5967C76.2149 34.4302 72.8091 37.5825 69.5088 39.649C66.1557 41.7506 61.7318 41.1201 59.1687 38.1079L59.116 38.0554C54.7799 32.9066 53.0595 32.5914 51.0933 32.5914C49.1271 32.5914 47.4067 32.9066 43.0705 38.0554C40.2617 41.4003 36.1362 42.6963 33.3625 43.2041H31.0803C30.4073 43.2041 29.7344 43.2003 29.0614 43.1964C27.7155 43.1886 26.3696 43.1808 25.0237 43.2041H24.7604C22.0218 43.2041 22.0042 47.4598 24.7604 47.4598H28.9561H33.3625C36.1537 47.9676 40.2617 49.2811 43.0705 52.6085C47.4067 57.7573 49.1271 58.0725 51.0933 58.0725C53.0595 58.0725 54.7799 57.7573 59.116 52.6085L59.1687 52.556C61.7318 49.5438 66.1557 48.9133 69.5088 51.0149C72.8091 53.0814 76.2149 56.2337 78.9184 61.0672C86.2214 74.1493 89.1355 74.9724 92.4359 74.9724C95.7363 74.9724 98.6505 74.1668 105.953 61.0672C107.674 57.985 109.675 55.5857 111.764 53.7294C114.029 51.6979 117.47 51.7329 119.717 53.7469C123.351 57.0043 126.985 61.6452 129.934 68.2825C139.221 89.1053 142.925 90.4012 147.121 90.4012C147.128 90.4012 147.136 90.4012 147.144 90.4012Z" fill="#FF6B06"/>
<path d="M281.073 44.8646L284.115 44.8646" stroke="#FF6B06" stroke-width="4" stroke-linecap="round"/>
<path d="M293.24 44.8646L294 44.8646" stroke="#FF6B06" stroke-width="4" stroke-linecap="round"/>
<path d="M14.9271 44.8646L11.8854 44.8646" stroke="#FF6B06" stroke-width="4" stroke-linecap="round"/>
<path d="M2.76041 44.8646L1.99999 44.8646" stroke="#FF6B06" stroke-width="4" stroke-linecap="round"/>
<path fill-rule="evenodd" clip-rule="evenodd" d="M113.102 73.4077C113.112 73.4077 113.121 73.4077 113.131 73.4077C115.75 73.4077 118.061 72.599 123.856 59.6047C125.697 55.4627 127.965 52.5665 130.232 50.5338C131.635 49.277 133.782 49.2551 135.195 50.5229C136.499 51.6813 137.748 53.1786 138.821 55.102C143.379 63.2768 145.197 63.7795 147.257 63.7795C149.316 63.7795 151.135 63.2658 155.692 55.102C157.38 52.0857 159.505 50.1185 161.564 48.8289C163.657 47.5174 166.418 47.9109 168.017 49.7906L168.05 49.8234C170.756 53.0365 171.83 53.2332 173.057 53.2332C174.284 53.2332 175.357 53.0365 178.063 49.8234C179.816 47.7469 182.38 46.9273 184.121 46.6103H186.871H189.489C191.209 46.6103 191.198 43.9546 189.489 43.9546H189.325C188.485 43.9401 187.645 43.9449 186.805 43.9498C186.385 43.9522 185.966 43.9546 185.546 43.9546H184.121C182.39 43.6377 179.816 42.829 178.063 40.7416C175.357 37.5285 174.284 37.3318 173.057 37.3318C171.83 37.3318 170.756 37.5285 168.05 40.7416L168.017 40.7744C166.418 42.6541 163.657 43.0476 161.564 41.7361C159.505 40.4465 157.38 38.4793 155.692 35.463C151.135 27.2882 149.316 26.7855 147.257 26.7855C145.197 26.7855 143.379 27.2992 138.821 35.463C137.792 37.3099 136.597 38.7525 135.359 39.9001C133.946 41.2006 131.777 41.2334 130.342 39.9656C128.041 37.922 125.73 35.004 123.856 30.7964C118.062 17.8039 115.75 16.9935 113.132 16.9933C113.122 16.9933 113.112 16.9933 113.102 16.9933C110.484 16.9933 108.173 17.802 102.377 30.7963C100.504 35.0039 98.1923 37.9219 95.8917 39.9656C94.4566 41.2333 92.2875 41.2006 90.8742 39.9C89.6363 38.7525 88.4422 37.3099 87.4124 35.4629C82.855 27.2991 81.0364 26.7855 78.9768 26.7855C76.9172 26.7855 75.0986 27.2882 70.5412 35.4629C68.8541 38.4793 66.7288 40.4465 64.6692 41.7361C62.5768 43.0475 59.816 42.6541 58.2166 40.7743L58.1837 40.7415C55.4777 37.5285 54.4041 37.3318 53.1771 37.3318C51.9501 37.3318 50.8765 37.5285 48.1706 40.7415C46.4177 42.8289 43.8432 43.6377 42.1123 43.9546H40.6881C40.2682 43.9546 39.8482 43.9522 39.4283 43.9498C38.5884 43.9449 37.7485 43.94 36.9086 43.9546H36.7442C35.0352 43.9546 35.0242 46.6103 36.7442 46.6103H39.3625H42.1123C43.8542 46.9272 46.4177 47.7469 48.1706 49.8234C50.8765 53.0364 51.9501 53.2332 53.1771 53.2332C54.4041 53.2332 55.4777 53.0364 58.1837 49.8234L58.2166 49.7906C59.816 47.9108 62.5768 47.5174 64.6692 48.8289C66.7288 50.1185 68.8541 52.0856 70.5412 55.102C75.0986 63.2658 76.9172 63.7794 78.9768 63.7794C81.0364 63.7794 82.855 63.2767 87.4124 55.102C88.486 53.1785 89.7349 51.6813 91.0386 50.5228C92.4518 49.2551 94.599 49.2769 96.0013 50.5337C98.269 52.5665 100.537 55.4626 102.377 59.6046C108.172 72.5981 110.484 73.4076 113.102 73.4077Z" fill="url(#paint0_linear)"/>
<path fill-rule="evenodd" clip-rule="evenodd" d="M182.295 16.9933C182.306 16.9933 182.318 16.9932 182.329 16.9932C184.947 16.9932 187.259 17.802 193.054 30.7963C194.895 34.9383 197.163 37.8344 199.43 39.8672C200.833 41.124 202.98 41.1459 204.393 39.8781C205.697 38.7197 206.946 37.2224 208.019 35.299C212.577 27.1242 214.395 26.6215 216.455 26.6215C218.514 26.6215 220.333 27.1352 224.89 35.299C226.577 38.3153 228.703 40.2825 230.762 41.5721C232.855 42.8836 235.616 42.4901 237.215 40.6104L237.248 40.5776C239.954 37.3645 241.027 37.1678 242.254 37.1678C243.481 37.1678 244.555 37.3645 247.261 40.5776C249.014 42.654 251.577 43.4737 253.319 43.7906L256.069 43.7906L258.687 43.7906C260.407 43.7906 260.396 46.4463 258.687 46.4463L258.523 46.4463C257.683 46.4609 256.843 46.4561 256.003 46.4512C255.583 46.4488 255.163 46.4463 254.743 46.4463L253.319 46.4463C251.588 46.7633 249.014 47.572 247.261 49.6594C244.555 52.8725 243.481 53.0692 242.254 53.0692C241.027 53.0692 239.954 52.8725 237.248 49.6594L237.215 49.6266C235.616 47.7469 232.855 47.3534 230.762 48.6649C228.703 49.9545 226.577 51.9217 224.89 54.938C220.333 63.1127 218.514 63.6155 216.455 63.6155C214.395 63.6155 212.577 63.1018 208.019 54.938C206.989 53.091 205.795 51.6484 204.557 50.5009C203.144 49.2004 200.975 49.1676 199.54 50.4353C197.239 52.479 194.928 55.397 193.054 59.6046C187.262 72.5911 184.95 73.4067 182.334 73.4077C182.323 73.4077 182.312 73.4077 182.3 73.4077C179.682 73.4077 177.37 72.599 171.575 59.6046C169.702 55.3971 167.39 52.4791 165.09 50.4354C163.654 49.1676 161.485 49.2004 160.072 50.501C158.834 51.6485 157.64 53.0911 156.61 54.938C152.053 63.1019 150.234 63.6155 148.175 63.6155C146.115 63.6155 144.297 63.1128 139.739 54.938C138.052 51.9217 135.927 49.9545 133.867 48.6649C131.775 47.3535 129.014 47.7469 127.414 49.6267L127.382 49.6594C124.676 52.8725 123.602 53.0692 122.375 53.0692C121.148 53.0692 120.074 52.8725 117.368 49.6594C115.616 47.572 113.041 46.7633 111.31 46.4464L109.886 46.4464C109.466 46.4464 109.046 46.4488 108.626 46.4512C107.786 46.4561 106.946 46.4609 106.106 46.4464L105.942 46.4464C104.233 46.4464 104.222 43.7907 105.942 43.7907L108.56 43.7907L111.31 43.7907C113.052 43.4737 115.616 42.6541 117.368 40.5776C120.074 37.3645 121.148 37.1678 122.375 37.1678C123.602 37.1678 124.676 37.3645 127.382 40.5776L127.414 40.6104C129.014 42.4902 131.775 42.8836 133.867 41.5721C135.927 40.2825 138.052 38.3154 139.739 35.299C144.297 27.1352 146.115 26.6216 148.175 26.6216C150.234 26.6216 152.053 27.1243 156.61 35.299C157.684 37.2225 158.933 38.7197 160.236 39.8782C161.65 41.1459 163.797 41.1241 165.199 39.8672C167.467 37.8345 169.735 34.9384 171.575 30.7963C177.366 17.8111 179.679 16.9944 182.295 16.9933Z" fill="url(#paint1_linear)"/>
<path d="M146.889 46.5862C147.996 46.5862 148.894 45.6901 148.894 44.5848C148.894 43.4794 147.996 42.5834 146.889 42.5834C145.782 42.5834 144.885 43.4794 144.885 44.5848C144.885 45.6901 145.782 46.5862 146.889 46.5862Z" fill="white"/>
<path d="M157.434 46.5862C158.541 46.5862 159.439 45.6901 159.439 44.5848C159.439 43.4794 158.541 42.5834 157.434 42.5834C156.327 42.5834 155.429 43.4794 155.429 44.5848C155.429 45.6901 156.327 46.5862 157.434 46.5862Z" fill="white"/>
<path d="M136.317 46.5862C137.424 46.5862 138.322 45.6901 138.322 44.5848C138.322 43.4794 137.424 42.5834 136.317 42.5834C135.21 42.5834 134.312 43.4794 134.312 44.5848C134.312 45.6901 135.21 46.5862 136.317 46.5862Z" fill="white"/>
<defs>
<linearGradient id="paint0_linear" x1="106.938" y1="8.36452" x2="113.117" y2="44.8645" gradientUnits="userSpaceOnUse">
<stop stop-color="#FFC700"/>
<stop offset="0.895833" stop-color="#FF6B06"/>
<stop offset="1" stop-color="#FF6B06" stop-opacity="0"/>
</linearGradient>
<linearGradient id="paint1_linear" x1="192.484" y1="92.0104" x2="170.812" y2="44.8646" gradientUnits="userSpaceOnUse">
<stop stop-color="#FFC700"/>
<stop offset="0.895833" stop-color="#FF6B06"/>
<stop offset="1" stop-color="#FF6B06" stop-opacity="0"/>
</linearGradient>
</defs>
</svg>
