<svg width="125" height="60" viewBox="0 0 125 60" fill="none" xmlns="http://www.w3.org/2000/svg">
<g opacity="0.3">
<path d="M122.369 27.7731C117.946 27.7731 101.208 27.7731 96.7855 27.7731C86.0714 27.7731 99.5872 27.7731 88.8731 27.7731C87.2336 27.7731 79.8748 27.7731 78.2353 27.7731C69.6946 27.7731 65.5004 23.7003 60.315 16.8997C50.4397 4.02831 41.594 7.14049 35.1503 13.5954C28.7828 19.935 25.0081 27.4657 17.8781 27.4657C13.5696 27.4657 8.4416 27.5425 3.63742 27.7346C3.56116 27.7346 2.60226 27.7346 2.60226 27.7346C-0.86742 27.7346 -0.86742 33.1905 2.60226 33.1905C7.02515 33.1905 18.0438 33.1905 7.14523 33.1905C17.8593 33.1905 10.501 33.1905 21.2151 33.1905C26.2099 33.1905 38.7923 33.1905 43.7871 33.1905C50.2308 33.1905 56.2169 36.5332 59.7247 41.9892C60.7161 43.4876 61.6312 44.8324 62.5844 46.0235C71.6971 57.4732 78.8271 52.901 86.3765 46.0235C99.3783 34.1127 96.328 33.229 106.013 33.229C106.089 33.229 122.293 33.229 122.369 33.229C125.877 33.229 125.877 27.7731 122.369 27.7731Z" fill="#FF6B06"/>
<path d="M3.9963 28C7.35242 28 19.9451 27.6 23.3012 27.6C31.4311 27.6 21.6019 27.6 29.7317 27.6C30.9758 27.6 36.5259 27.6 37.7699 27.6C44.2507 27.6 47.1486 20.9338 51.0833 11.8662C58.5767 -5.29558 65.2889 -1.14601 70.1784 7.46049C75.0101 15.9133 76.9716 27.5586 82.3819 27.5586C85.6512 27.5586 90.3918 27.3439 94.0372 27.6C94.4391 27.6 94.7771 27.5586 94.7771 27.5586C97.4099 27.5586 97.8758 32.8 95.243 32.8C91.8869 32.8 92.6266 32.8 91.6258 32.8C83.4959 32.8 89.306 32.8 81.1761 32.8C77.3861 32.8 67.2822 32.8 63.4921 32.8C58.6026 32.8 54.1929 38.0443 51.5312 45.3189C50.779 47.3168 50.0846 49.1098 49.3613 50.6979C42.4465 65.9643 37.0362 59.868 31.3077 50.6979C21.4419 34.8169 23.8175 32 16.4687 32C16.353 30.7614 3.9963 30.7614 3.9963 32C1.33456 32 1.33456 28 3.9963 28Z" fill="#D5D8E5"/>
<path d="M3.42644 30.818C5.45982 30.818 8.4703 30.818 10.5037 30.818C15.4294 30.818 9.21563 30.818 14.1413 30.818C14.8951 30.818 18.2782 30.818 19.032 30.818C22.9585 30.818 24.8867 33.5331 27.2707 38.0669C31.8108 46.6478 35.8775 44.573 38.84 40.2698C41.7673 36.0433 43.5027 31.0229 46.7807 31.0229C48.7615 31.0229 51.119 30.9717 53.3277 30.8436C53.3628 30.8436 53.8036 30.8436 53.8036 30.8436C55.3988 30.8436 55.3988 27.2063 53.8036 27.2063C51.7702 27.2063 46.7045 27.2063 51.715 27.2063C46.7893 27.2063 50.1722 27.2063 45.2465 27.2063C42.9502 27.2063 37.1656 27.2063 34.8693 27.2063C31.9068 27.2063 29.1547 24.9778 27.5421 21.3406C27.0863 20.3416 26.6656 19.4451 26.2274 18.651C22.0379 11.0179 18.7599 14.066 15.2892 18.651C9.3117 26.5916 10.3235 27.7838 5.87114 27.7838C5.87114 29.1977 2.6315 29.1977 3.02897 28.1892C1.41628 28.1892 1.81375 30.818 3.42644 30.818Z" fill="#D5D8E5"/>
<path d="M62.4221 31.9345C64.4493 31.9345 67.4505 31.9345 69.4777 31.9345C74.3884 31.9345 68.1936 31.9345 73.1042 31.9345C73.8557 31.9345 85.1534 31.9636 77.98 31.9345C81.8945 31.9345 88.9821 37.1674 91.3587 41.9646C95.8849 51.0442 101.883 41.9646 101.883 41.9646C101.883 41.9646 110.301 32.1804 113.569 32.1804C115.544 32.1804 109.969 32.0972 112.171 31.9617C112.206 31.9617 112.645 31.9617 112.645 31.9617C114.236 31.9617 114.236 28.113 112.645 28.113C110.618 28.113 105.568 28.113 110.563 28.113C105.653 28.113 109.025 28.113 104.114 28.113C101.825 28.113 96.0582 28.113 93.7689 28.113C90.8155 28.113 89.7282 29.9988 88.1205 26.1501C87.6661 25.0931 83.2952 29.9932 82.8583 29.153C76.3818 29.153 81.4401 23.8726 77.98 28.724C72.0208 37.126 69.2981 28.724 64.8593 28.724C64.8593 30.2201 61.6296 30.2201 62.0258 29.153C60.4181 29.153 60.8143 31.9345 62.4221 31.9345Z" fill="#D5D8E5"/>
<path d="M114.609 31.4998C112.377 31.4998 109.073 31.4998 106.841 31.4998C101.434 31.4998 108.254 31.4998 102.848 31.4998C102.021 31.4998 98.3071 31.4998 97.4797 31.4998C93.1698 31.4998 91.0534 34.4864 88.4366 39.4736C83.4533 48.9126 78.9895 46.6303 75.7378 41.8967C72.5246 37.2477 70.6198 31.7252 67.0218 31.7252C64.8476 31.7252 62.2599 31.6688 59.8355 31.5279C59.7971 31.5279 59.3132 31.5279 59.3132 31.5279C57.5623 31.5279 57.5623 27.5269 59.3132 27.5269C61.5451 27.5269 67.1054 27.5269 61.6057 27.5269C67.0123 27.5269 63.2991 27.5269 68.7057 27.5269C71.2263 27.5269 77.5757 27.5269 80.0962 27.5269C83.3479 27.5269 86.3686 25.0756 88.1388 21.0746C88.639 19.9757 89.1008 18.9896 89.5818 18.1161C94.1803 9.71966 97.7783 13.0726 101.588 18.1161C108.149 26.8507 106.61 27.4988 111.497 27.4988C110.161 27.4878 117.401 27.8902 117.439 27.8902C119.209 27.8902 116.379 31.4998 114.609 31.4998Z" fill="#FF6B06"/>
<path d="M122.369 27.7731C117.946 27.7731 111.673 27.6329 107.25 27.6329C96.5358 27.6329 99.5872 27.7731 88.8731 27.7731C87.2336 27.7731 79.8748 27.7731 78.2353 27.7731C69.6946 27.7731 65.5004 23.7003 60.315 16.8997C50.4397 4.02831 41.594 7.14049 35.1503 13.5954C28.7828 19.935 25.0081 27.4657 17.8781 27.4657C13.5696 27.4657 8.4416 27.5425 3.63742 27.7346C3.56116 27.7346 2.60226 27.7346 2.60226 27.7346C-0.86742 27.7346 -0.86742 33.1905 2.60226 33.1905C7.02515 33.1905 18.0438 33.1905 7.14523 33.1905C17.8593 33.1905 10.501 33.1905 21.2151 33.1905C26.2099 33.1905 38.7923 33.1905 43.7871 33.1905C50.2308 33.1905 56.2169 36.5332 59.7247 41.9892C60.7161 43.4876 61.6312 44.8324 62.5844 46.0235C71.6971 57.4732 78.8271 52.901 86.3765 46.0235C99.3783 34.1127 96.328 33.229 106.013 33.229C106.089 33.229 122.293 33.229 122.369 33.229C125.877 33.229 125.877 27.7731 122.369 27.7731Z" fill="#FF6B06"/>
</g>
</svg>
