<svg width="106" height="60" viewBox="0 0 106 60" fill="none" xmlns="http://www.w3.org/2000/svg">
<g opacity="0.3">
<path d="M5.57988 32.2978H8.02758C12.0534 32.2978 15.7572 34.6116 17.4641 38.2753C18.076 39.5607 18.8168 40.782 19.8152 41.7782C22.4239 44.3813 24.6462 42.0996 26.7396 37.986C28.511 34.4831 32.1181 32.2978 36.0473 32.2978H65.935C70.605 32.2978 74.663 35.5115 75.758 40.0428C77.9159 49.0091 80.0737 55.8864 83.23 55.8864C88.6407 55.8864 90.7019 46.5345 93.2784 39.0466C94.6955 34.9973 98.5281 32.2656 102.812 32.2656H102.586C105.517 32.2656 105.517 27.7022 102.586 27.7022H74.8885C70.0253 27.7022 65.774 24.4563 64.4857 19.7964C61.5871 9.03052 57.7868 0 51.6997 0C46.5467 0 42.9073 10.6695 39.8155 20.2464C38.3984 24.7134 34.2437 27.7343 29.5416 27.7343H17.5285C13.5671 27.7343 9.5735 27.7343 5.61209 27.7343C2.64908 27.7343 2.64908 32.2978 5.57988 32.2978Z" fill="#FF6B06"/>
<path d="M102.973 27.6702H96.8211C92.7953 27.6702 89.0915 25.3563 87.3845 21.6927C86.7726 20.4072 86.0319 19.186 85.0335 18.1897C82.4247 15.5866 80.2025 17.8684 78.109 21.9819C76.3377 25.4848 72.7306 27.6702 68.8013 27.6702H38.9136C34.2437 27.6702 30.1856 24.4565 29.0906 19.9251C26.9328 10.9589 24.7749 4.08154 21.5865 4.08154C16.1758 4.08154 14.1145 13.4334 11.538 20.9214C10.1209 24.9706 6.28834 27.6702 1.97265 27.6702H2.1981C-0.7327 27.6702 -0.7327 32.2336 2.1981 32.2336H29.8958C34.759 32.2336 39.0102 35.4795 40.2985 40.1394C43.2615 50.9374 47.0297 60.0001 53.1167 60.0001C58.2698 60.0001 61.9091 49.3306 65.001 39.7537C66.4181 35.2867 70.5727 32.2658 75.2749 32.2658H87.3201C91.2815 32.2658 98.9789 32.2658 102.94 32.2658C105.903 32.2336 105.903 27.6702 102.973 27.6702Z" fill="#FF6B06"/>
</g>
</svg>
