<svg width="927" height="338" viewBox="0 0 927 338" fill="none" xmlns="http://www.w3.org/2000/svg">
<path fill-rule="evenodd" clip-rule="evenodd" d="M463.126 337.217C463.155 337.217 463.183 337.217 463.212 337.217C478.826 337.217 492.612 332.394 527.173 254.901C538.149 230.2 551.673 212.928 565.197 200.806C573.56 193.31 586.365 193.18 594.793 200.74C602.567 207.649 610.015 216.578 616.418 228.049C643.597 276.8 654.442 279.798 666.725 279.798C679.007 279.798 689.853 276.735 717.031 228.049C727.092 210.06 739.767 198.329 752.05 190.638C764.528 182.817 780.992 185.163 790.531 196.374L790.727 196.569C806.864 215.731 813.267 216.904 820.584 216.904C827.901 216.904 834.304 215.731 850.441 196.569C860.895 184.186 876.183 179.298 886.571 177.408H902.969H918.584C928.841 177.408 928.776 161.57 918.584 161.57H917.604C912.595 161.483 907.586 161.512 902.577 161.541C900.073 161.556 897.568 161.57 895.064 161.57H886.571C876.248 159.68 860.895 154.857 850.441 142.409C834.304 123.247 827.901 122.074 820.584 122.074C813.267 122.074 806.864 123.247 790.727 142.409L790.531 142.604C780.992 153.814 764.528 156.161 752.05 148.339C739.767 140.649 727.092 128.917 717.031 110.929C689.853 62.1778 679.007 59.1798 666.725 59.1798C654.442 59.1798 643.597 62.243 616.418 110.929C610.277 121.944 603.155 130.547 595.773 137.39C587.345 145.146 574.409 145.341 565.85 137.781C552.13 125.593 538.345 108.192 527.173 83.0991C492.612 5.60574 478.826 0.782776 463.212 0.782776C463.183 0.782776 463.155 0.782792 463.126 0.782825C463.098 0.782792 463.069 0.782776 463.041 0.782776C447.426 0.782776 433.641 5.60574 399.079 83.0991C387.907 108.192 374.122 125.593 360.402 137.781C351.844 145.341 338.908 145.146 330.48 137.39C323.097 130.547 315.976 121.944 309.834 110.929C282.656 62.243 271.81 59.1798 259.528 59.1798C247.245 59.1798 236.4 62.1778 209.221 110.929C199.16 128.917 186.485 140.649 174.203 148.339C161.724 156.161 145.26 153.814 135.721 142.604L135.525 142.409C119.388 123.247 112.986 122.074 105.668 122.074C98.3509 122.074 91.9483 123.247 75.811 142.409C65.3577 154.857 50.0044 159.68 39.6817 161.57H31.1884C28.684 161.57 26.1796 161.556 23.6751 161.541C18.6662 161.512 13.6574 161.483 8.6485 161.57H7.6685C-2.52347 161.57 -2.58881 177.408 7.6685 177.408H23.2831H39.6817C50.0697 179.298 65.3577 184.186 75.811 196.569C91.9483 215.731 98.3509 216.904 105.668 216.904C112.986 216.904 119.388 215.731 135.525 196.569L135.721 196.374C145.26 185.163 161.724 182.817 174.203 190.638C186.485 198.329 199.16 210.06 209.221 228.049C236.4 276.735 247.245 279.798 259.528 279.798C271.81 279.798 282.656 276.8 309.834 228.049C316.237 216.578 323.685 207.649 331.46 200.74C339.888 193.18 352.693 193.31 361.056 200.806C374.579 212.928 388.103 230.2 399.079 254.901C433.641 332.394 447.426 337.217 463.041 337.217C463.069 337.217 463.098 337.217 463.126 337.217Z" fill="#3A3F63"/>
</svg>
