<svg width="18" height="18" viewBox="0 0 18 18" fill="none" xmlns="http://www.w3.org/2000/svg">
<path d="M10.5919 9.00017L17.6702 1.92161C18.1099 1.4822 18.1099 0.769246 17.6702 0.329837C17.2304 -0.109946 16.5182 -0.109946 16.0785 0.329837L9.00019 7.4084L1.92154 0.329837C1.48177 -0.109946 0.76959 -0.109946 0.329824 0.329837C-0.109941 0.769246 -0.109941 1.4822 0.329824 1.92161L7.40848 9.00017L0.329824 16.0787C-0.109941 16.5181 -0.109941 17.2311 0.329824 17.6705C0.549707 17.89 0.837881 18 1.12568 18C1.41348 18 1.70165 17.89 1.92154 17.6701L9.00019 10.5916L16.0785 17.6701C16.2983 17.89 16.5865 18 16.8743 18C17.1621 18 17.4503 17.89 17.6702 17.6701C18.1099 17.2307 18.1099 16.5178 17.6702 16.0784L10.5919 9.00017Z" fill="#666666"/>
</svg>
