<svg width="148" height="24" viewBox="0 0 148 24" fill="none" xmlns="http://www.w3.org/2000/svg">
<path d="M1.0796 12.6469L2.11231 12.6469C3.42666 12.6469 4.64714 13.2551 5.35126 14.3311C6.10232 15.4072 7.04114 17.0914 8.21467 19.8984C10.1393 24.4832 14.317 23.8282 16.1478 19.3838C18.8703 12.7405 27.6953 12.6469 27.6953 12.6469L29.9016 12.6469C30.5118 12.6469 30.9812 12.1791 30.9812 11.5709C30.9812 10.9627 30.5118 10.4949 29.9016 10.4949L28.4464 10.4949C27.2259 10.4949 26.0524 9.93349 25.3013 8.95103C24.4564 7.87501 23.3767 6.05045 22.1093 3.10309C20.1847 -1.43492 16.5233 -0.77995 14.7395 3.66449C12.0639 10.3545 3.28584 10.4949 3.28584 10.4949L1.0796 10.4949C0.46936 10.4949 -5.23498e-05 10.9627 -5.2403e-05 11.5709C-5.24562e-05 12.1791 0.469359 12.6469 1.0796 12.6469Z" fill="#FF6B06"/>
<g clip-path="url(#clip0)">
<path d="M41.9309 17.2652V15.6201C41.9309 15.2088 42.3936 14.9517 42.7021 15.2088C43.2677 15.5686 43.936 15.8771 44.7072 16.1856C45.8898 16.6483 47.0723 16.8539 48.2548 16.8539C50.517 16.8539 52.2651 15.8771 52.2651 14.2834C52.2651 13.615 51.9052 13.0495 51.4938 12.6896C51.2882 12.5354 50.9797 12.3298 50.6198 12.1755C49.8486 11.8157 49.3859 11.6614 48.2548 11.353L47.8949 11.2501C46.918 10.9931 46.1468 10.736 45.6327 10.5304C45.1186 10.3248 44.553 10.0163 43.8846 9.65642C42.6507 8.88526 42.0851 7.75423 42.0851 6.1605C42.0851 3.28151 44.5016 1.43073 48.3576 1.43073C50.3113 1.43073 52.0594 1.84201 53.6018 2.71599C53.756 2.81881 53.8589 2.97304 53.8589 3.17869V4.721C53.8589 5.08088 53.4476 5.33793 53.1391 5.1837C51.5967 4.41254 50.0543 4.00126 48.409 4.00126C46.044 4.00126 44.8615 4.92665 44.8615 6.21191C44.8615 6.93166 45.2728 7.34294 45.8898 7.75423C46.1982 7.95987 47.0209 8.21692 47.4322 8.37116L49.3859 8.93667C50.6712 9.34796 51.4424 9.60501 52.5221 10.2219C54.0645 11.0445 54.8871 12.2784 54.99 14.232C54.99 15.8257 54.373 17.111 53.0877 17.9849C51.8537 18.9103 50.2599 19.373 48.3576 19.373C45.8383 19.373 43.7304 18.8075 42.0851 17.6765C42.0337 17.5737 41.9309 17.4194 41.9309 17.2652Z" fill="white"/>
<path d="M69.4887 8.47395C70.6198 9.7078 71.1339 11.1987 71.1339 12.9981C71.1339 14.7975 70.5684 16.2884 69.4887 17.5222C68.3576 18.7561 66.9694 19.373 65.2728 19.373C63.4219 19.373 61.9823 18.7047 60.954 17.4194V23.4858C60.954 23.7943 60.7484 23.9999 60.4399 23.9999H58.7947C58.4862 23.9999 58.2805 23.7943 58.2805 23.4858V7.44574C58.2805 7.13727 58.4862 6.93163 58.7947 6.93163H60.4399C60.7484 6.93163 60.954 7.13727 60.954 7.44574V8.57677C61.9823 7.29151 63.4219 6.62317 65.2728 6.62317C66.9694 6.62317 68.3576 7.2401 69.4887 8.47395ZM60.954 11.1473V14.9003C61.6224 16.1341 62.9592 17.0595 64.553 17.0595C65.6841 17.0595 66.6095 16.6482 67.3293 15.8771C68.0491 15.1059 68.4604 14.1291 68.4604 12.9981C68.4604 11.867 68.1005 10.8902 67.3293 10.1191C66.6095 9.34793 65.6327 8.93665 64.553 8.93665C62.9592 8.93665 61.6224 9.86204 60.954 11.1473Z" fill="white"/>
<path d="M74.9385 8.42262C76.121 7.18876 77.5606 6.57184 79.4115 6.57184C80.6454 6.57184 81.7251 6.8803 82.5991 7.54864C84.3986 8.8339 85.1698 10.8389 85.1698 13.0496V13.7179H75.864C76.1724 15.7743 77.9719 16.9568 80.4398 16.9568C81.5709 16.9568 82.5991 16.6997 83.6274 16.237C83.9873 16.0828 84.3472 16.3398 84.3472 16.6997V17.8308C84.3472 17.985 84.2444 18.1906 84.1416 18.242C83.0619 18.9104 81.6737 19.2703 79.9256 19.2703C78.0747 19.2703 76.4809 18.6533 75.1442 17.4709C73.8588 16.2884 73.2419 14.7461 73.2419 12.8439C73.1904 11.1988 73.756 9.65647 74.9385 8.42262ZM82.4963 11.7643C82.4963 11.0446 82.1878 10.3762 81.6223 9.75929C81.0567 9.14237 80.2855 8.88531 79.3087 8.88531C77.355 8.88531 76.121 10.1706 75.9154 11.7643H82.4963Z" fill="white"/>
<path d="M89.0259 8.42262C90.2084 7.18876 91.648 6.57184 93.4989 6.57184C94.7328 6.57184 95.8125 6.8803 96.6865 7.54864C98.486 8.8339 99.2572 10.8389 99.2572 13.0496V13.7179H90.0028C90.3112 15.7743 92.1107 16.9568 94.5786 16.9568C95.7097 16.9568 96.7379 16.6997 97.7662 16.237C98.1261 16.0828 98.486 16.3398 98.486 16.6997V17.8308C98.486 17.985 98.3832 18.1906 98.2803 18.242C97.2007 18.9104 95.8125 19.2703 94.0644 19.2703C92.2135 19.2703 90.6197 18.6533 89.283 17.4709C87.9976 16.2884 87.3807 14.7461 87.3807 12.8439C87.3292 11.1988 87.8948 9.65647 89.0259 8.42262ZM96.5837 11.7643C96.5837 11.0446 96.2752 10.3762 95.7097 9.75929C95.1441 9.14237 94.3729 8.88531 93.396 8.88531C91.4423 8.88531 90.2084 10.1706 90.0028 11.7643H96.5837Z" fill="white"/>
<path d="M103.319 17.5737C102.085 16.3399 101.417 14.8489 101.417 12.9468C101.417 11.096 102.033 9.55365 103.319 8.37121C104.604 7.18877 106.147 6.57184 107.997 6.57184C109.231 6.57184 110.362 6.77748 111.339 7.29159C111.494 7.39441 111.648 7.54864 111.648 7.75428V8.93673C111.648 9.2966 111.288 9.55365 110.928 9.39942C110.054 9.09096 109.231 8.88532 108.357 8.88532C107.123 8.88532 106.147 9.24519 105.273 10.0163C104.45 10.7875 104.039 11.7643 104.039 12.8953C104.039 14.0264 104.45 15.0546 105.273 15.8257C106.095 16.5969 107.123 16.9568 108.357 16.9568C109.334 16.9568 110.26 16.8025 111.082 16.4427C111.442 16.2884 111.802 16.5455 111.802 16.9054V18.0364C111.802 18.242 111.699 18.3963 111.545 18.4991C110.465 19.0646 109.283 19.3217 107.946 19.3217C106.147 19.3731 104.604 18.7562 103.319 17.5737Z" fill="white"/>
<path d="M117.303 19.0646H115.658C115.35 19.0646 115.144 18.859 115.144 18.5505V2.30476C115.144 1.99629 115.35 1.79065 115.658 1.79065H117.303C117.612 1.79065 117.817 1.99629 117.817 2.30476V8.57685C119 7.29158 120.491 6.67466 122.239 6.67466C125.118 6.67466 126.712 8.57685 126.712 11.7129V18.6019C126.712 18.9104 126.506 19.116 126.198 19.116H124.553C124.244 19.116 124.038 18.9104 124.038 18.6019V12.227C124.038 11.0446 123.781 10.2734 123.216 9.75929C122.65 9.2966 121.982 9.09095 121.211 9.09095C119.874 9.09095 118.486 9.96493 117.766 11.0446V18.4991C117.817 18.8076 117.56 19.0646 117.303 19.0646Z" fill="white"/>
<path d="M130.26 18.5505V2.30476C130.26 1.99629 130.465 1.79065 130.774 1.79065H132.419C132.727 1.79065 132.933 1.99629 132.933 2.30476V11.5587L137.56 7.08594C137.663 6.98312 137.766 6.93171 137.92 6.93171H139.822C140.285 6.93171 140.491 7.49723 140.182 7.80569L135.349 12.3298L141.159 18.1906C141.468 18.4991 141.262 19.0646 140.799 19.0646H138.589C138.434 19.0646 138.331 19.0132 138.229 18.9104L132.933 13.5637V18.5505C132.933 18.859 132.727 19.0646 132.419 19.0646H130.774C130.517 19.0646 130.26 18.8076 130.26 18.5505Z" fill="white"/>
<path d="M144.244 3.07588C144.244 2.09908 144.964 1.37933 145.941 1.37933C146.866 1.37933 147.586 2.09908 147.586 3.07588C147.586 4.05268 146.866 4.77243 145.941 4.77243C144.964 4.77243 144.244 4.05268 144.244 3.07588ZM144.604 18.5505V7.44579C144.604 7.13732 144.81 6.93168 145.118 6.93168H146.763C147.072 6.93168 147.277 7.13732 147.277 7.44579V18.5505C147.277 18.8589 147.072 19.0646 146.763 19.0646H145.118C144.81 19.0646 144.604 18.8075 144.604 18.5505Z" fill="white"/>
</g>
<defs>
<clipPath id="clip0">
<rect width="105.655" height="22.6207" fill="white" transform="translate(41.9309 1.37933)"/>
</clipPath>
</defs>
</svg>
