<svg width="106" height="60" viewBox="0 0 106 60" fill="none" xmlns="http://www.w3.org/2000/svg">
<g opacity="0.3">
<path d="M5.57988 32.2978H8.02758C12.0534 32.2978 15.7572 34.6116 17.4641 38.2753C18.076 39.5607 18.8168 40.782 19.8152 41.7782C22.4239 44.3813 24.6462 42.0996 26.7396 37.986C28.511 34.4831 32.1181 32.2978 36.0473 32.2978H65.935C70.605 32.2978 74.663 35.5115 75.758 40.0428C77.9159 49.0091 80.0737 55.8864 83.23 55.8864C88.6407 55.8864 90.7019 46.5345 93.2784 39.0466C94.6955 34.9973 98.5281 32.2656 102.812 32.2656H102.586C105.517 32.2656 105.517 27.7022 102.586 27.7022H74.8885C70.0253 27.7022 65.774 24.4563 64.4857 19.7964C61.5871 9.03052 57.7868 0 51.6997 0C46.5467 0 42.9073 10.6695 39.8155 20.2464C38.3984 24.7134 34.2437 27.7343 29.5416 27.7343H17.5285C13.5671 27.7343 9.5735 27.7343 5.61209 27.7343C2.64908 27.7343 2.64908 32.2978 5.57988 32.2978Z" fill="#FF6B06"/>
<path d="M102.973 27.6702H96.8211C92.7953 27.6702 89.0915 25.3563 87.3845 21.6927C86.7726 20.4072 86.0319 19.186 85.0335 18.1897C82.4247 15.5866 80.2025 17.8684 78.109 21.9819C76.3377 25.4848 72.7306 27.6702 68.8013 27.6702H38.9136C34.2437 27.6702 30.1856 24.4565 29.0906 19.9251C26.9328 10.9589 24.7749 4.08154 21.5865 4.08154C16.1758 4.08154 14.1145 13.4334 11.538 20.9214C10.1209 24.9706 6.28834 27.6702 1.97265 27.6702H2.1981C-0.7327 27.6702 -0.7327 32.2336 2.1981 32.2336H29.8958C34.759 32.2336 39.0102 35.4795 40.2985 40.1394C43.2615 50.9374 47.0297 60.0001 53.1167 60.0001C58.2698 60.0001 61.9091 49.3306 65.001 39.7537C66.4181 35.2867 70.5727 32.2658 75.2749 32.2658H87.3201C91.2815 32.2658 98.9789 32.2658 102.94 32.2658C105.903 32.2336 105.903 27.6702 102.973 27.6702Z" fill="#FF6B06"/>
</g>
<path d="M21.8398 24.4023C19.957 24.4023 18.4688 25.0312 17.375 26.2891C16.2891 27.5391 15.7461 29.2539 15.7461 31.4336C15.7461 33.6758 16.2695 35.4102 17.3164 36.6367C18.3711 37.8555 19.8711 38.4648 21.8164 38.4648C23.0117 38.4648 24.375 38.25 25.9062 37.8203V39.5664C24.7188 40.0117 23.2539 40.2344 21.5117 40.2344C18.9883 40.2344 17.0391 39.4688 15.6641 37.9375C14.2969 36.4062 13.6133 34.2305 13.6133 31.4102C13.6133 29.6445 13.9414 28.0977 14.5977 26.7695C15.2617 25.4414 16.2148 24.418 17.457 23.6992C18.707 22.9805 20.1758 22.6211 21.8633 22.6211C23.6602 22.6211 25.2305 22.9492 26.5742 23.6055L25.7305 25.3164C24.4336 24.707 23.1367 24.4023 21.8398 24.4023ZM41.9727 40H39.5586L31.6367 31.3164V40H29.6445V22.8672H31.6367V31.1641L39.3594 22.8672H41.6445L34.0625 31.1875L41.9727 40ZM59.2109 31.4102C59.2109 34.1523 58.5156 36.3086 57.125 37.8789C55.7422 39.4492 53.8164 40.2344 51.3477 40.2344C48.8242 40.2344 46.875 39.4648 45.5 37.9258C44.1328 36.3789 43.4492 34.1992 43.4492 31.3867C43.4492 28.5977 44.1367 26.4375 45.5117 24.9062C46.8867 23.3672 48.8398 22.5977 51.3711 22.5977C53.832 22.5977 55.7539 23.3789 57.1367 24.9414C58.5195 26.5039 59.2109 28.6602 59.2109 31.4102ZM45.5586 31.4102C45.5586 33.7305 46.0508 35.4922 47.0352 36.6953C48.0273 37.8906 49.4648 38.4883 51.3477 38.4883C53.2461 38.4883 54.6797 37.8906 55.6484 36.6953C56.6172 35.5 57.1016 33.7383 57.1016 31.4102C57.1016 29.1055 56.6172 27.3594 55.6484 26.1719C54.6875 24.9766 53.2617 24.3789 51.3711 24.3789C49.4727 24.3789 48.0273 24.9805 47.0352 26.1836C46.0508 27.3789 45.5586 29.1211 45.5586 31.4102ZM73.9062 27.8594C73.9062 29.5938 73.3125 30.9297 72.125 31.8672C70.9453 32.7969 69.2539 33.2617 67.0508 33.2617H65.0352V40H63.043V22.8672H67.4844C71.7656 22.8672 73.9062 24.5312 73.9062 27.8594ZM65.0352 31.5508H66.8281C68.5938 31.5508 69.8711 31.2656 70.6602 30.6953C71.4492 30.125 71.8438 29.2109 71.8438 27.9531C71.8438 26.8203 71.4727 25.9766 70.7305 25.4219C69.9883 24.8672 68.832 24.5898 67.2617 24.5898H65.0352V31.5508ZM92.375 31.4102C92.375 34.1523 91.6797 36.3086 90.2891 37.8789C88.9062 39.4492 86.9805 40.2344 84.5117 40.2344C81.9883 40.2344 80.0391 39.4648 78.6641 37.9258C77.2969 36.3789 76.6133 34.1992 76.6133 31.3867C76.6133 28.5977 77.3008 26.4375 78.6758 24.9062C80.0508 23.3672 82.0039 22.5977 84.5352 22.5977C86.9961 22.5977 88.918 23.3789 90.3008 24.9414C91.6836 26.5039 92.375 28.6602 92.375 31.4102ZM78.7227 31.4102C78.7227 33.7305 79.2148 35.4922 80.1992 36.6953C81.1914 37.8906 82.6289 38.4883 84.5117 38.4883C86.4102 38.4883 87.8438 37.8906 88.8125 36.6953C89.7812 35.5 90.2656 33.7383 90.2656 31.4102C90.2656 29.1055 89.7812 27.3594 88.8125 26.1719C87.8516 24.9766 86.4258 24.3789 84.5352 24.3789C82.6367 24.3789 81.1914 24.9805 80.1992 26.1836C79.2148 27.3789 78.7227 29.1211 78.7227 31.4102Z" fill="#292E4A"/>
</svg>
