<svg width="160" height="27" viewBox="0 0 160 27" fill="none" xmlns="http://www.w3.org/2000/svg">
<path d="M159.597 16.5039C160.363 17.7908 160.04 19.4396 158.831 20.2841C157.944 20.9275 157.218 21.5308 156.815 22.0938C151.817 29.1313 147.745 27.4825 144.601 23.9436C143.23 22.4155 142.141 20.7265 141.013 19.3592C140.368 18.3538 139.723 17.4289 139.037 16.6246C138.997 16.5844 138.957 16.5442 138.957 16.5039C138.836 16.3833 138.755 16.2627 138.634 16.142C137.788 15.1366 136.86 14.2921 135.853 13.6487C135.57 13.4879 135.288 13.327 135.006 13.1661C133.515 12.3619 131.821 11.9597 129.725 11.9597C128.516 11.9597 127.226 12.4423 126.016 13.1661C125.774 13.327 125.492 13.4879 125.25 13.6487C124.001 14.4932 122.872 15.5388 121.945 16.5039C120.614 17.8712 119.768 18.9972 119.768 18.9972H119.808C119.002 19.882 118.236 20.9275 117.43 22.134C112.633 29.1715 108.359 27.4825 105.215 23.9436C103.844 22.4155 102.716 20.7265 101.627 19.3592C100.942 18.3136 100.257 17.3484 99.5712 16.5039C99.4503 16.3833 99.3697 16.2627 99.289 16.142C95.419 12.1608 92.5568 10.9543 90.138 11.6782C90.138 11.6782 90.138 11.6782 90.0977 11.6782C88.848 12.1206 87.6386 12.8042 86.5502 13.6487C86.3486 13.8096 86.1471 13.9704 85.9455 14.1313C85.1796 14.7747 84.4539 15.4986 83.7686 16.2627C83.688 16.3431 83.6477 16.4235 83.5671 16.4637C82.7205 17.4691 81.9142 18.5549 81.1886 19.6809C80.1405 21.008 79.0923 22.4959 77.883 23.9436C74.7386 27.4825 70.4654 29.2117 65.6682 22.134C65.0635 21.2492 64.4588 20.4047 63.8944 19.7211C63.8944 19.7211 63.8944 19.7211 63.8944 19.6809C63.7332 19.4798 62.6447 18.1125 61.0726 16.5039C60.9516 16.3833 60.871 16.3029 60.7501 16.1822C60.1051 15.4986 59.3391 14.8149 58.5732 14.1715C58.3716 14.0106 58.17 13.8498 57.9685 13.6889C56.1544 12.2412 54.2194 11.1152 52.5263 11.1152C52.0425 11.1152 51.5588 11.1554 51.1153 11.2358C49.0594 11.5173 47.1647 12.4423 45.4715 13.7291C45.27 13.89 45.0684 14.0509 44.8668 14.2117C44.1815 14.8149 43.4962 15.4584 42.8915 16.142C42.7706 16.2627 42.6496 16.4235 42.5287 16.5442C41.6821 17.5495 40.8759 18.6353 40.1502 19.7613C39.1827 21.008 38.1749 22.4557 37.0059 23.823C33.8615 27.3618 29.5883 29.0911 24.7911 22.0133C24.2267 21.209 23.7027 20.445 23.1786 19.8015C23.1786 19.8015 22.0095 18.3136 20.3567 16.5844C20.1955 16.4235 19.9939 16.2224 19.8326 16.0616C19.2279 15.4584 18.5426 14.8551 17.8573 14.2519C17.6557 14.0911 17.4542 13.9302 17.2526 13.7694C15.4385 12.3216 13.4632 11.1956 11.8104 11.1956C9.14976 11.1956 6.81162 12.201 4.75568 13.7694C4.71536 13.8096 4.67505 13.8498 4.59442 13.9302C3.22379 15.1366 1.08722 14.5736 0.482526 12.8444L0.442213 12.7238C0.0793985 11.7184 0.442213 10.5924 1.24847 9.90877C3.02223 8.42083 4.55411 5.80689 6.61006 3.47445C9.67383 -0.22528 13.947 -1.91429 18.7442 5.16346C19.6311 6.49054 20.4776 7.65676 21.3645 8.54148C21.4048 8.62191 22.0901 9.58705 23.1786 10.7935C24.0252 11.7184 25.1136 12.764 26.3633 13.6487C26.6052 13.8096 26.8874 13.9704 27.1292 14.1313C28.3386 14.8551 29.7093 15.3377 31.0799 15.3377C33.1358 15.3377 34.8693 14.8954 36.3609 14.1313C36.643 13.9704 36.9252 13.8096 37.1671 13.6487C38.1749 13.0053 39.1021 12.1608 39.9487 11.1554C40.0696 11.0348 40.1502 10.9141 40.2309 10.7935C40.9565 9.94898 41.6015 8.98384 42.2868 7.93826C43.4156 6.57097 44.504 4.88196 45.8747 3.35381C49.019 -0.185065 53.2922 -1.91429 58.0894 5.16346C58.8957 6.36989 59.6616 7.41547 60.4679 8.30019H60.4276C60.4276 8.30019 61.2741 9.42619 62.6044 10.7935C63.5316 11.7184 64.6604 12.764 65.9101 13.6487C66.152 13.8096 66.4342 13.9704 66.676 14.1313C67.8854 14.8551 69.1754 15.3377 70.3848 15.3377C72.4407 15.3377 74.1742 14.8954 75.6658 14.1313C75.948 13.9704 76.2301 13.8096 76.5123 13.6487C77.5201 13.0053 78.4473 12.1608 79.2939 11.1554C79.4148 11.0348 79.4955 10.9141 79.6164 10.7935C80.342 9.94898 80.987 8.98384 81.6724 7.93826C82.8011 6.57097 83.8896 4.88196 85.2602 3.35381C86.8324 1.54416 88.6868 0.217079 90.7427 0.297508C90.783 0.297508 90.8233 0.297508 90.8637 0.297508C90.904 0.297508 90.9846 0.297508 91.0652 0.297508C91.1055 0.297508 91.1459 0.297508 91.1862 0.297508C91.3877 0.337723 91.5893 0.377937 91.7909 0.418152C93.4034 0.820297 94.8546 2.10716 96.1043 3.55488C97.2734 4.88196 98.2812 6.32968 99.2487 7.61654C99.9743 8.74255 100.781 9.82834 101.627 10.8337C101.748 10.9543 101.869 11.1152 101.99 11.2358C102.595 11.9195 103.28 12.5629 103.965 13.1661C104.167 13.327 104.368 13.4879 104.57 13.6487C106.263 14.9356 108.118 15.8605 110.214 16.142C110.698 16.2224 111.141 16.2627 111.625 16.2627C113.318 16.2627 115.253 15.1366 117.067 13.6889C117.269 13.5281 117.47 13.3672 117.672 13.2064C118.438 12.5629 119.163 11.8391 119.849 11.1956C119.969 11.075 120.09 10.9946 120.171 10.8739C121.703 9.26534 122.832 7.89804 122.993 7.69697C122.993 7.69697 122.993 7.69697 122.993 7.65676C123.598 6.9329 124.162 6.12861 124.767 5.24389C129.524 -1.83386 133.837 -0.144851 136.981 3.43424C138.231 4.84174 139.279 6.36989 140.287 7.69697C141.013 8.82298 141.819 9.90877 142.666 10.8739C142.706 10.9543 142.786 10.9946 142.867 11.075C143.552 11.8391 144.278 12.5629 145.044 13.2064C145.246 13.3672 145.447 13.5281 145.649 13.6889C146.011 13.9704 146.374 14.2117 146.777 14.4932C148.148 15.3779 149.64 15.9812 151.292 16.1822C151.736 16.2627 152.22 16.3029 152.703 16.3029C153.55 16.3029 154.679 15.9409 155.888 15.4584C157.339 14.8149 158.831 15.2975 159.597 16.5039Z" fill="#FF6B06"/>
</svg>
