<svg width="114" height="40" viewBox="0 0 114 40" fill="none" xmlns="http://www.w3.org/2000/svg">
<path d="M111.601 17.576C107.567 17.576 92.3021 17.576 88.2684 17.576C78.4972 17.576 90.8235 17.576 81.0523 17.576C79.5571 17.576 72.8459 17.576 71.3506 17.576C63.5614 17.576 59.7364 13.9559 55.0073 7.9108C46.001 -3.53039 37.9337 -0.764009 32.057 4.97366C26.2499 10.6089 22.8074 17.3028 16.3048 17.3028C12.3755 17.3028 7.69874 17.3711 3.31733 17.5419C3.24778 17.5419 2.37326 17.5419 2.37326 17.5419C-0.791087 17.5419 -0.791087 22.3916 2.37326 22.3916C6.40694 22.3916 16.4559 22.3916 6.51645 22.3916C16.2877 22.3916 9.57694 22.3916 19.3482 22.3916C23.9034 22.3916 35.3785 22.3916 39.9338 22.3916C45.8105 22.3916 51.2698 25.3629 54.469 30.2126C55.3731 31.5445 56.2076 32.7399 57.077 33.7986C65.3877 43.9762 71.8903 39.912 78.7753 33.7986C90.633 23.2113 87.8511 22.4257 96.6835 22.4257C96.753 22.4257 111.531 22.4257 111.601 22.4257C114.8 22.4257 114.8 17.576 111.601 17.576Z" fill="#FF6B06"/>
</svg>
