<svg width="125" height="60" viewBox="0 0 125 60" fill="none" xmlns="http://www.w3.org/2000/svg">
<path d="M29.8398 24.4023C27.957 24.4023 26.4688 25.0312 25.375 26.2891C24.2891 27.5391 23.7461 29.2539 23.7461 31.4336C23.7461 33.6758 24.2695 35.4102 25.3164 36.6367C26.3711 37.8555 27.8711 38.4648 29.8164 38.4648C31.0117 38.4648 32.375 38.25 33.9062 37.8203V39.5664C32.7188 40.0117 31.2539 40.2344 29.5117 40.2344C26.9883 40.2344 25.0391 39.4688 23.6641 37.9375C22.2969 36.4062 21.6133 34.2305 21.6133 31.4102C21.6133 29.6445 21.9414 28.0977 22.5977 26.7695C23.2617 25.4414 24.2148 24.418 25.457 23.6992C26.707 22.9805 28.1758 22.6211 29.8633 22.6211C31.6602 22.6211 33.2305 22.9492 34.5742 23.6055L33.7305 25.3164C32.4336 24.707 31.1367 24.4023 29.8398 24.4023ZM49.9727 40H47.5586L39.6367 31.3164V40H37.6445V22.8672H39.6367V31.1641L47.3594 22.8672H49.6445L42.0625 31.1875L49.9727 40ZM67.2109 31.4102C67.2109 34.1523 66.5156 36.3086 65.125 37.8789C63.7422 39.4492 61.8164 40.2344 59.3477 40.2344C56.8242 40.2344 54.875 39.4648 53.5 37.9258C52.1328 36.3789 51.4492 34.1992 51.4492 31.3867C51.4492 28.5977 52.1367 26.4375 53.5117 24.9062C54.8867 23.3672 56.8398 22.5977 59.3711 22.5977C61.832 22.5977 63.7539 23.3789 65.1367 24.9414C66.5195 26.5039 67.2109 28.6602 67.2109 31.4102ZM53.5586 31.4102C53.5586 33.7305 54.0508 35.4922 55.0352 36.6953C56.0273 37.8906 57.4648 38.4883 59.3477 38.4883C61.2461 38.4883 62.6797 37.8906 63.6484 36.6953C64.6172 35.5 65.1016 33.7383 65.1016 31.4102C65.1016 29.1055 64.6172 27.3594 63.6484 26.1719C62.6875 24.9766 61.2617 24.3789 59.3711 24.3789C57.4727 24.3789 56.0273 24.9805 55.0352 26.1836C54.0508 27.3789 53.5586 29.1211 53.5586 31.4102ZM81.9062 27.8594C81.9062 29.5938 81.3125 30.9297 80.125 31.8672C78.9453 32.7969 77.2539 33.2617 75.0508 33.2617H73.0352V40H71.043V22.8672H75.4844C79.7656 22.8672 81.9062 24.5312 81.9062 27.8594ZM73.0352 31.5508H74.8281C76.5938 31.5508 77.8711 31.2656 78.6602 30.6953C79.4492 30.125 79.8438 29.2109 79.8438 27.9531C79.8438 26.8203 79.4727 25.9766 78.7305 25.4219C77.9883 24.8672 76.832 24.5898 75.2617 24.5898H73.0352V31.5508ZM100.375 31.4102C100.375 34.1523 99.6797 36.3086 98.2891 37.8789C96.9062 39.4492 94.9805 40.2344 92.5117 40.2344C89.9883 40.2344 88.0391 39.4648 86.6641 37.9258C85.2969 36.3789 84.6133 34.1992 84.6133 31.3867C84.6133 28.5977 85.3008 26.4375 86.6758 24.9062C88.0508 23.3672 90.0039 22.5977 92.5352 22.5977C94.9961 22.5977 96.918 23.3789 98.3008 24.9414C99.6836 26.5039 100.375 28.6602 100.375 31.4102ZM86.7227 31.4102C86.7227 33.7305 87.2148 35.4922 88.1992 36.6953C89.1914 37.8906 90.6289 38.4883 92.5117 38.4883C94.4102 38.4883 95.8438 37.8906 96.8125 36.6953C97.7812 35.5 98.2656 33.7383 98.2656 31.4102C98.2656 29.1055 97.7812 27.3594 96.8125 26.1719C95.8516 24.9766 94.4258 24.3789 92.5352 24.3789C90.6367 24.3789 89.1914 24.9805 88.1992 26.1836C87.2148 27.3789 86.7227 29.1211 86.7227 31.4102Z" fill="#292E4A"/>
<g opacity="0.3">
<path d="M122.369 27.7731C117.946 27.7731 101.208 27.7731 96.7855 27.7731C86.0714 27.7731 99.5872 27.7731 88.8731 27.7731C87.2336 27.7731 79.8748 27.7731 78.2353 27.7731C69.6946 27.7731 65.5004 23.7003 60.315 16.8997C50.4397 4.02831 41.594 7.14049 35.1503 13.5954C28.7828 19.935 25.0081 27.4657 17.8781 27.4657C13.5696 27.4657 8.4416 27.5425 3.63742 27.7346C3.56116 27.7346 2.60226 27.7346 2.60226 27.7346C-0.86742 27.7346 -0.86742 33.1905 2.60226 33.1905C7.02515 33.1905 18.0438 33.1905 7.14523 33.1905C17.8593 33.1905 10.501 33.1905 21.2151 33.1905C26.2099 33.1905 38.7923 33.1905 43.7871 33.1905C50.2308 33.1905 56.2169 36.5332 59.7247 41.9892C60.7161 43.4876 61.6312 44.8324 62.5844 46.0235C71.6971 57.4732 78.8271 52.901 86.3765 46.0235C99.3783 34.1127 96.328 33.229 106.013 33.229C106.089 33.229 122.293 33.229 122.369 33.229C125.877 33.229 125.877 27.7731 122.369 27.7731Z" fill="#FF6B06"/>
<path d="M3.9963 28C7.35242 28 19.9451 27.6 23.3012 27.6C31.4311 27.6 21.6019 27.6 29.7317 27.6C30.9758 27.6 36.5259 27.6 37.7699 27.6C44.2507 27.6 47.1486 20.9338 51.0833 11.8662C58.5767 -5.29558 65.2889 -1.14601 70.1784 7.46049C75.0101 15.9133 76.9716 27.5586 82.3819 27.5586C85.6512 27.5586 90.3918 27.3439 94.0372 27.6C94.4391 27.6 94.7771 27.5586 94.7771 27.5586C97.4099 27.5586 97.8758 32.8 95.243 32.8C91.8869 32.8 92.6266 32.8 91.6258 32.8C83.4959 32.8 89.306 32.8 81.1761 32.8C77.3861 32.8 67.2822 32.8 63.4921 32.8C58.6026 32.8 54.1929 38.0443 51.5312 45.3189C50.779 47.3168 50.0846 49.1098 49.3613 50.6979C42.4465 65.9643 37.0362 59.868 31.3077 50.6979C21.4419 34.8169 23.8175 32 16.4687 32C16.353 30.7614 3.9963 30.7614 3.9963 32C1.33456 32 1.33456 28 3.9963 28Z" fill="#D5D8E5"/>
<path d="M3.42644 30.818C5.45982 30.818 8.4703 30.818 10.5037 30.818C15.4294 30.818 9.21563 30.818 14.1413 30.818C14.8951 30.818 18.2782 30.818 19.032 30.818C22.9585 30.818 24.8867 33.5331 27.2707 38.0669C31.8108 46.6478 35.8775 44.573 38.84 40.2698C41.7673 36.0433 43.5027 31.0229 46.7807 31.0229C48.7615 31.0229 51.119 30.9717 53.3277 30.8436C53.3628 30.8436 53.8036 30.8436 53.8036 30.8436C55.3988 30.8436 55.3988 27.2063 53.8036 27.2063C51.7702 27.2063 46.7045 27.2063 51.715 27.2063C46.7893 27.2063 50.1722 27.2063 45.2465 27.2063C42.9502 27.2063 37.1656 27.2063 34.8693 27.2063C31.9068 27.2063 29.1547 24.9778 27.5421 21.3406C27.0863 20.3416 26.6656 19.4451 26.2274 18.651C22.0379 11.0179 18.7599 14.066 15.2892 18.651C9.3117 26.5916 10.3235 27.7838 5.87114 27.7838C5.87114 29.1977 2.6315 29.1977 3.02897 28.1892C1.41628 28.1892 1.81375 30.818 3.42644 30.818Z" fill="#D5D8E5"/>
<path d="M62.4221 31.9345C64.4493 31.9345 67.4505 31.9345 69.4777 31.9345C74.3884 31.9345 68.1936 31.9345 73.1042 31.9345C73.8557 31.9345 85.1534 31.9636 77.98 31.9345C81.8945 31.9345 88.9821 37.1674 91.3587 41.9646C95.8849 51.0442 101.883 41.9646 101.883 41.9646C101.883 41.9646 110.301 32.1804 113.569 32.1804C115.544 32.1804 109.969 32.0972 112.171 31.9617C112.206 31.9617 112.645 31.9617 112.645 31.9617C114.236 31.9617 114.236 28.113 112.645 28.113C110.618 28.113 105.568 28.113 110.563 28.113C105.653 28.113 109.025 28.113 104.114 28.113C101.825 28.113 96.0582 28.113 93.7689 28.113C90.8155 28.113 89.7282 29.9988 88.1205 26.1501C87.6661 25.0931 83.2952 29.9932 82.8583 29.153C76.3818 29.153 81.4401 23.8726 77.98 28.724C72.0208 37.126 69.2981 28.724 64.8593 28.724C64.8593 30.2201 61.6296 30.2201 62.0258 29.153C60.4181 29.153 60.8143 31.9345 62.4221 31.9345Z" fill="#D5D8E5"/>
<path d="M114.609 31.4998C112.377 31.4998 109.073 31.4998 106.841 31.4998C101.434 31.4998 108.254 31.4998 102.848 31.4998C102.021 31.4998 98.3071 31.4998 97.4797 31.4998C93.1698 31.4998 91.0534 34.4864 88.4366 39.4736C83.4533 48.9126 78.9895 46.6303 75.7378 41.8967C72.5246 37.2477 70.6198 31.7252 67.0218 31.7252C64.8476 31.7252 62.2599 31.6688 59.8355 31.5279C59.7971 31.5279 59.3132 31.5279 59.3132 31.5279C57.5623 31.5279 57.5623 27.5269 59.3132 27.5269C61.5451 27.5269 67.1054 27.5269 61.6057 27.5269C67.0123 27.5269 63.2991 27.5269 68.7057 27.5269C71.2263 27.5269 77.5757 27.5269 80.0962 27.5269C83.3479 27.5269 86.3686 25.0756 88.1388 21.0746C88.639 19.9757 89.1008 18.9896 89.5818 18.1161C94.1803 9.71966 97.7783 13.0726 101.588 18.1161C108.149 26.8507 106.61 27.4988 111.497 27.4988C110.161 27.4878 117.401 27.8902 117.439 27.8902C119.209 27.8902 116.379 31.4998 114.609 31.4998Z" fill="#FF6B06"/>
<path d="M122.369 27.7731C117.946 27.7731 111.673 27.6329 107.25 27.6329C96.5358 27.6329 99.5872 27.7731 88.8731 27.7731C87.2336 27.7731 79.8748 27.7731 78.2353 27.7731C69.6946 27.7731 65.5004 23.7003 60.315 16.8997C50.4397 4.02831 41.594 7.14049 35.1503 13.5954C28.7828 19.935 25.0081 27.4657 17.8781 27.4657C13.5696 27.4657 8.4416 27.5425 3.63742 27.7346C3.56116 27.7346 2.60226 27.7346 2.60226 27.7346C-0.86742 27.7346 -0.86742 33.1905 2.60226 33.1905C7.02515 33.1905 18.0438 33.1905 7.14523 33.1905C17.8593 33.1905 10.501 33.1905 21.2151 33.1905C26.2099 33.1905 38.7923 33.1905 43.7871 33.1905C50.2308 33.1905 56.2169 36.5332 59.7247 41.9892C60.7161 43.4876 61.6312 44.8324 62.5844 46.0235C71.6971 57.4732 78.8271 52.901 86.3765 46.0235C99.3783 34.1127 96.328 33.229 106.013 33.229C106.089 33.229 122.293 33.229 122.369 33.229C125.877 33.229 125.877 27.7731 122.369 27.7731Z" fill="#FF6B06"/>
</g>
</svg>
