<svg width="1052" height="358" viewBox="0 0 1052 358" fill="none" xmlns="http://www.w3.org/2000/svg">
<path d="M230.415 49.0149L198.392 80.1078C195.479 82.937 190.839 82.8743 188.017 79.9674L152.105 42.9817C149.283 40.0748 149.357 35.4355 152.271 32.6062L184.294 1.51334C185.16 0.672598 186.531 0.698549 187.362 1.55484L230.457 45.9392C231.296 46.803 231.281 48.1741 230.415 49.0149Z" fill="#3A3F63"/>
<path d="M27.1748 332.382L3.84062 313.689C1.71734 311.989 1.37244 308.9 3.06928 306.782L24.6591 279.831C26.3559 277.713 29.4455 277.376 31.5688 279.077L54.903 297.77C55.5339 298.275 55.6309 299.188 55.1311 299.812L29.2225 332.154C28.7182 332.783 27.8057 332.888 27.1748 332.382Z" fill="#3A3F63"/>
<path d="M993.859 344.449L967.361 306.545C964.95 303.096 965.783 298.361 969.223 295.955L1013 265.351C1016.44 262.945 1021.18 263.79 1023.59 267.239L1050.08 305.143C1050.8 306.168 1050.55 307.566 1049.53 308.274L996.998 345.001C995.976 345.716 994.576 345.474 993.859 344.449Z" fill="#3A3F63"/>
<path fill-rule="evenodd" clip-rule="evenodd" d="M519.126 357.217C519.155 357.217 519.183 357.217 519.212 357.217C534.826 357.217 548.612 352.394 583.173 274.901C594.149 250.2 607.673 232.928 621.197 220.806C629.56 213.31 642.365 213.18 650.793 220.74C658.567 227.649 666.015 236.578 672.418 248.049C699.597 296.8 710.442 299.798 722.725 299.798C735.007 299.798 745.853 296.735 773.031 248.049C783.092 230.06 795.767 218.329 808.05 210.638C820.528 202.817 836.992 205.163 846.531 216.374L846.727 216.569C862.864 235.731 869.267 236.904 876.584 236.904C883.901 236.904 890.304 235.731 906.441 216.569C916.895 204.186 932.183 199.298 942.571 197.408H958.969H974.584C984.841 197.408 984.776 181.57 974.584 181.57H973.604C968.595 181.483 963.586 181.512 958.577 181.541C956.073 181.556 953.568 181.57 951.064 181.57H942.571C932.248 179.68 916.895 174.857 906.441 162.409C890.304 143.247 883.901 142.074 876.584 142.074C869.267 142.074 862.864 143.247 846.727 162.409L846.531 162.604C836.992 173.814 820.528 176.161 808.05 168.339C795.767 160.649 783.092 148.917 773.031 130.929C745.853 82.1778 735.007 79.1798 722.725 79.1798C710.442 79.1798 699.597 82.243 672.418 130.929C666.277 141.944 659.155 150.547 651.773 157.39C643.345 165.146 630.409 165.341 621.85 157.781C608.13 145.593 594.345 128.192 583.173 103.099C548.612 25.6057 534.826 20.7828 519.212 20.7828C519.183 20.7828 519.155 20.7828 519.126 20.7828C519.098 20.7828 519.069 20.7828 519.041 20.7828C503.426 20.7828 489.641 25.6057 455.079 103.099C443.907 128.192 430.122 145.593 416.402 157.781C407.844 165.341 394.908 165.146 386.48 157.39C379.097 150.547 371.976 141.944 365.834 130.929C338.656 82.243 327.81 79.1798 315.528 79.1798C303.245 79.1798 292.4 82.1778 265.221 130.929C255.16 148.917 242.485 160.649 230.203 168.339C217.724 176.161 201.26 173.814 191.721 162.604L191.525 162.409C175.388 143.247 168.986 142.074 161.668 142.074C154.351 142.074 147.948 143.247 131.811 162.409C121.358 174.857 106.004 179.68 95.6817 181.57H87.1884C84.684 181.57 82.1796 181.556 79.6751 181.541C74.6662 181.512 69.6574 181.483 64.6485 181.57H63.6685C53.4765 181.57 53.4112 197.408 63.6685 197.408H79.2831H95.6817C106.07 199.298 121.358 204.186 131.811 216.569C147.948 235.731 154.351 236.904 161.668 236.904C168.986 236.904 175.388 235.731 191.525 216.569L191.721 216.374C201.26 205.163 217.724 202.817 230.203 210.638C242.485 218.329 255.16 230.06 265.221 248.049C292.4 296.735 303.245 299.798 315.528 299.798C327.81 299.798 338.656 296.8 365.834 248.049C372.237 236.578 379.685 227.649 387.46 220.74C395.888 213.18 408.693 213.31 417.056 220.806C430.579 232.928 444.103 250.2 455.079 274.901C489.641 352.394 503.426 357.217 519.041 357.217C519.069 357.217 519.098 357.217 519.126 357.217Z" fill="#3A3F63"/>
<path d="M114.378 83.609L115.718 84.4061C118.373 86.0259 120.512 88.4428 121.62 91.3481C121.775 91.7595 121.904 92.1709 122.007 92.5823C122.883 95.8476 123.966 98.2902 124.223 102.944C124.687 110.94 119.971 113.897 124.713 118.885C127.574 121.893 145.461 133.669 159.276 142.565C162.729 144.802 165.951 146.859 168.58 148.53C169.095 148.865 169.611 149.199 170.101 149.482C173.322 151.539 174.431 155.729 172.626 159.098C171.905 160.435 170.848 161.463 169.611 162.132C167.343 163.34 164.482 163.34 162.137 161.797L159.74 160.229L151.312 154.727L100.512 121.585C100.512 121.585 90.1764 116.057 91.0527 105.284C91.9033 94.4849 97.9085 90.294 104.558 85.7945C105.306 85.2802 106.208 84.7146 107.084 84.1747C109.301 82.8377 112.007 82.632 114.378 83.609Z" fill="#FF6B06"/>
<path d="M153.038 142.899C154.25 142.257 155.59 141.974 156.879 142.025C157.729 142.077 158.554 142.257 159.327 142.565C162.781 144.802 166.002 146.859 168.631 148.53C169.147 148.865 169.662 149.199 170.152 149.482C173.374 151.539 174.482 155.729 172.678 159.098C171.956 160.435 170.899 161.463 169.662 162.132C167.394 163.34 164.533 163.34 162.188 161.797L159.791 160.229L151.363 154.727C150.822 154.213 150.384 153.595 149.997 152.927C148.038 149.302 149.404 144.828 153.038 142.899Z" fill="white"/>
<path d="M170.771 157.684C169.998 156.244 169.225 154.804 168.477 153.364C167.343 151.23 164.07 153.133 165.204 155.267C165.977 156.707 166.75 158.146 167.498 159.586C168.658 161.746 171.931 159.843 170.771 157.684Z" fill="#161838"/>
<path d="M117.291 88.9313C116.157 87.8257 115.048 86.7458 113.914 85.6402C112.162 83.9433 109.481 86.6172 111.234 88.3142C112.368 89.4198 113.476 90.4997 114.61 91.6053C116.363 93.3022 119.043 90.6282 117.291 88.9313Z" fill="#161838"/>
<path d="M109.223 103.587C109.249 102.327 109.275 101.093 109.301 99.8329C109.352 97.3903 105.563 97.3903 105.512 99.8329C105.486 101.093 105.46 102.327 105.435 103.587C105.383 106.029 109.172 106.004 109.223 103.587Z" fill="#161838"/>
<path d="M901.394 226.216L900.188 228.843C899.203 230.992 897.285 232.529 894.984 233.057C891.91 233.746 887.366 234.588 883.037 234.662C875.568 234.793 873.008 230.321 868.19 234.562C865.292 237.103 853.649 253.272 844.844 265.785C842.634 268.924 840.6 271.819 838.937 274.216C838.608 274.693 838.291 275.138 837.974 275.583C835.928 278.51 832.005 279.371 828.935 277.589C827.713 276.878 826.796 275.861 826.224 274.677C825.183 272.524 825.308 269.862 826.817 267.752L828.369 265.568L833.815 257.944L866.587 212.023C866.587 212.023 872.112 202.635 882.133 203.82C892.154 205.004 895.822 210.72 899.78 217.038C900.23 217.75 900.722 218.601 901.181 219.441C902.297 221.531 902.389 224.035 901.394 226.216Z" fill="#FF6B06"/>
<path d="M844.757 259.932C845.319 261.094 845.515 262.327 845.423 263.513C845.347 264.293 845.154 265.051 844.833 265.763C842.624 268.902 840.589 271.797 838.926 274.194C838.598 274.671 838.281 275.117 837.964 275.562C835.918 278.489 831.995 279.349 828.925 277.567C827.703 276.856 826.785 275.839 826.213 274.655C825.173 272.503 825.297 269.841 826.806 267.731L828.359 265.546L833.805 257.923C834.294 257.448 834.899 257.049 835.547 256.736C838.945 255.067 843.103 256.51 844.757 259.932Z" fill="white"/>
<path d="M829.948 275.744C831.379 274.956 832.833 274.154 834.264 273.366C836.422 272.176 835.271 269.708 833.113 270.897C831.682 271.686 830.228 272.487 828.797 273.276C826.639 274.465 827.79 276.934 829.948 275.744Z" fill="#161838"/>
<path d="M896.518 229.869C897.914 227.787 899.311 225.705 900.683 223.636C901.25 222.794 901.294 221.843 900.478 221.473C899.772 221.153 898.475 221.485 897.893 222.359C896.497 224.441 895.101 226.523 893.728 228.592C893.162 229.434 893.117 230.385 893.934 230.755C894.631 231.057 895.952 230.711 896.518 229.869Z" fill="#161838"/>
<path d="M882.079 220.102C883.083 220.456 884.087 220.811 885.067 221.18C885.893 221.474 887.003 221.185 887.711 220.264C888.323 219.468 888.327 218.323 887.501 218.028C886.497 217.674 885.493 217.319 884.513 216.95C883.687 216.656 882.577 216.945 881.869 217.866C881.265 218.68 881.261 219.826 882.079 220.102Z" fill="#161838"/>
</svg>
