<svg width="733" height="570" viewBox="0 0 733 570" fill="none" xmlns="http://www.w3.org/2000/svg">
<path fill-rule="evenodd" clip-rule="evenodd" d="M374.971 90.9999C374.971 90.4476 374.523 89.9999 373.971 89.9999C373.419 89.9999 372.971 90.4476 372.971 90.9999L372.971 153.949C372.971 154.502 373.419 154.949 373.971 154.949C374.523 154.949 374.971 154.502 374.971 153.949L374.971 90.9999ZM384.963 95.9959C384.963 95.4436 384.515 94.9959 383.963 94.9959C383.41 94.9959 382.963 95.4436 382.963 95.9959L382.963 147.954C382.963 148.507 383.41 148.954 383.963 148.954C384.515 148.954 384.963 148.507 384.963 147.954L384.963 95.9959ZM363.979 94.9959C364.531 94.9959 364.979 95.4436 364.979 95.9959L364.979 147.954C364.979 148.507 364.531 148.954 363.979 148.954C363.427 148.954 362.979 148.507 362.979 147.954L362.979 95.9959C362.979 95.4436 363.427 94.9959 363.979 94.9959ZM394.955 103.99C394.955 103.437 394.507 102.99 393.955 102.99C393.402 102.99 392.955 103.437 392.955 103.99V140.96C392.955 141.512 393.402 141.96 393.955 141.96C394.507 141.96 394.955 141.512 394.955 140.96V103.99ZM353.987 102.99C354.539 102.99 354.987 103.437 354.987 103.99L354.987 140.96C354.987 141.512 354.539 141.96 353.987 141.96C353.434 141.96 352.987 141.512 352.987 140.96L352.987 103.99C352.987 103.437 353.434 102.99 353.987 102.99ZM414.938 103.99C414.938 103.437 414.491 102.99 413.938 102.99C413.386 102.99 412.938 103.437 412.938 103.99V140.96C412.938 141.512 413.386 141.96 413.938 141.96C414.491 141.96 414.938 141.512 414.938 140.96V103.99ZM403.947 108.985C404.499 108.985 404.947 109.432 404.947 109.985V133.965C404.947 134.518 404.499 134.965 403.947 134.965C403.395 134.965 402.947 134.518 402.947 133.965V109.985C402.947 109.432 403.395 108.985 403.947 108.985ZM344.994 109.985C344.994 109.432 344.547 108.985 343.994 108.985C343.442 108.985 342.994 109.432 342.994 109.985L342.994 133.965C342.994 134.518 343.442 134.965 343.994 134.965C344.547 134.965 344.994 134.518 344.994 133.965L344.994 109.985ZM423.931 108.985C424.483 108.985 424.931 109.432 424.931 109.985V133.965C424.931 134.518 424.483 134.965 423.931 134.965C423.378 134.965 422.931 134.518 422.931 133.965V109.985C422.931 109.432 423.378 108.985 423.931 108.985ZM444.915 109.985C444.915 109.432 444.467 108.985 443.915 108.985C443.362 108.985 442.915 109.432 442.915 109.985V133.965C442.915 134.518 443.362 134.965 443.915 134.965C444.467 134.965 444.915 134.518 444.915 133.965V109.985ZM433.923 113.981C434.475 113.981 434.923 114.428 434.923 114.981V128.969C434.923 129.522 434.475 129.969 433.923 129.969C433.371 129.969 432.923 129.522 432.923 128.969V114.981C432.923 114.428 433.371 113.981 433.923 113.981ZM454.906 114.981C454.906 114.428 454.459 113.981 453.906 113.981C453.354 113.981 452.906 114.428 452.906 114.981V128.969C452.906 129.522 453.354 129.969 453.906 129.969C454.459 129.969 454.906 129.522 454.906 128.969V114.981ZM337 113.981C337.552 113.981 338 114.428 338 114.981L338 128.969C338 129.522 337.552 129.969 337 129.969C336.448 129.969 336 129.522 336 128.969L336 114.981C336 114.428 336.448 113.981 337 113.981ZM474.891 119.977C474.891 119.424 474.443 118.977 473.891 118.977C473.338 118.977 472.891 119.424 472.891 119.977V124.973C472.891 125.525 473.338 125.973 473.891 125.973C474.443 125.973 474.891 125.525 474.891 124.973V119.977ZM493.875 118.977C494.427 118.977 494.875 119.424 494.875 119.977V124.973C494.875 125.525 494.427 125.973 493.875 125.973C493.322 125.973 492.875 125.525 492.875 124.973V119.977C492.875 119.424 493.322 118.977 493.875 118.977ZM504.867 120.976C504.867 120.424 504.419 119.976 503.867 119.976C503.315 119.976 502.867 120.424 502.867 120.976V122.974C502.867 123.527 503.315 123.974 503.867 123.974C504.419 123.974 504.867 123.527 504.867 122.974V120.976ZM515.858 121.975C515.858 122.527 515.41 122.975 514.858 122.975H513.859C513.306 122.975 512.859 122.527 512.859 121.975C512.859 121.423 513.306 120.975 513.859 120.975H514.858C515.41 120.975 515.858 121.423 515.858 121.975ZM525.849 122.975C526.401 122.975 526.849 122.527 526.849 121.975C526.849 121.423 526.401 120.975 525.849 120.975H524.85C524.298 120.975 523.85 121.423 523.85 121.975C523.85 122.527 524.298 122.975 524.85 122.975H525.849ZM463.899 116.978C464.451 116.978 464.899 117.426 464.899 117.978V126.971C464.899 127.523 464.451 127.971 463.899 127.971C463.346 127.971 462.899 127.523 462.899 126.971V117.978C462.899 117.426 463.346 116.978 463.899 116.978ZM484.882 117.978C484.882 117.426 484.435 116.978 483.882 116.978C483.33 116.978 482.882 117.426 482.882 117.978V125.972C482.882 126.524 483.33 126.972 483.882 126.972C484.435 126.972 484.882 126.524 484.882 125.972V117.978Z" fill="white"/>
<path d="M460.612 216.65C395.664 272.105 378.858 342.049 309.733 342.049C244.785 342.049 164.849 275.603 100.401 342.049" stroke="url(#paint0_linear)" stroke-width="3" stroke-miterlimit="5.75877" stroke-linecap="round"/>
<path d="M516.737 212.041L469.107 215.649L583.515 331.057L603.499 279.099L548.043 223.643C539.798 215.397 528.365 211.16 516.737 212.041Z" fill="#1C2035"/>
<path d="M474.601 217.649C491.921 212.986 527.459 206.258 545.045 222.645" stroke="#1C2035" stroke-width="4"/>
<rect x="466.11" y="227.377" width="23.6505" height="180.961" rx="11.8253" transform="rotate(-45 466.11 227.377)" fill="#646A8D"/>
<path d="M455.638 270C447.238 256 452.138 236.167 455.638 228L523.638 299C529 330.5 530.7 346.5 519.5 356.5C508.3 366.5 507.971 365.833 507.138 363.5C492.638 350.333 458.959 322.628 461.138 317.5C469 299 466.138 287.5 455.638 270Z" fill="url(#paint1_linear)"/>
<rect x="449.012" y="235.981" width="19.5685" height="180.961" rx="9.78425" transform="rotate(-45 449.012 235.981)" fill="#FF8A3A"/>
<rect x="536.836" y="298.103" width="23.6505" height="80.939" rx="11.8253" transform="rotate(-45 536.836 298.103)" fill="#565C7A"/>
<rect x="614" y="409.988" width="18.2494" height="88.8676" rx="5" transform="rotate(-80.2916 614 409.988)" fill="url(#paint2_linear)"/>
<path d="M435.658 41.1339C433.504 42.8622 430.357 42.5175 428.629 40.3638L392.13 -5.11678C390.401 -7.27043 390.746 -10.4174 392.9 -12.1458L433.838 -45.0001L476.597 8.27957L435.658 41.1339Z" fill="url(#paint3_linear)"/>
<path d="M519.351 282.123C507.075 296.34 488.329 306.376 469.606 296.34C444.465 282.863 441.069 247.578 393.19 247.578" stroke="url(#paint4_linear)" stroke-width="3" stroke-miterlimit="5.75877" stroke-linecap="round"/>
<rect x="482.095" y="210.207" width="22.9816" height="152.195" rx="5" transform="rotate(-44.2592 482.095 210.207)" fill="#FF6B06"/>
<rect x="482.095" y="210.207" width="22.9816" height="152.195" rx="5" transform="rotate(-44.2592 482.095 210.207)" fill="#767DA4"/>
<path d="M573.178 303.677L589.638 287.638L601.282 299.587C603.209 301.565 603.169 304.731 601.191 306.658L591.894 315.718C589.916 317.645 586.75 317.604 584.823 315.626L573.178 303.677Z" fill="#646A8D"/>
<path d="M484.458 206.904L495.192 196.444L541.017 243.469C542.944 245.447 542.903 248.612 540.925 250.54L537.353 254.021C535.375 255.948 532.21 255.907 530.283 253.929L484.458 206.904Z" fill="#1C2035"/>
<rect x="500.418" y="357.786" width="22.9816" height="107.034" rx="5" transform="rotate(103.941 500.418 357.786)" fill="#767DA4"/>
<rect x="500.418" y="357.786" width="22.9816" height="107.034" rx="5" transform="rotate(103.941 500.418 357.786)" fill="url(#paint5_linear)"/>
<path d="M500.151 361.839L496.54 376.385L447.009 364.09C444.329 363.425 442.695 360.713 443.361 358.033L444.562 353.192C445.228 350.511 447.94 348.878 450.62 349.543L500.151 361.839Z" fill="#1C2035"/>
<rect x="607" y="162.662" width="13.8414" height="64.4647" rx="5" transform="rotate(-24.1455 607 162.662)" fill="url(#paint6_linear)"/>
<path d="M611.227 162.718C610.549 161.206 611.226 159.431 612.738 158.753L613.337 158.484C614.849 157.806 616.624 158.483 617.302 159.995L634.352 198.031C635.104 199.708 634.354 201.678 632.677 202.43C630.999 203.182 629.03 202.431 628.278 200.754L611.227 162.718Z" fill="#1C2035"/>
<rect x="450.123" y="224.379" width="23.6505" height="111.043" rx="5" transform="rotate(-45 450.123 224.379)" fill="white"/>
<path d="M573.024 248.623L603.5 279.098C623.918 299.517 623.918 332.621 603.5 353.039L573.024 333.555C591.147 313.353 594.005 283.705 580.075 260.413L573.024 248.623Z" fill="#E94A07"/>
<path d="M573.024 248.623L603.5 279.098C623.918 299.517 623.918 332.621 603.5 353.039L573.024 333.555C591.147 313.353 594.005 283.705 580.075 260.413L573.024 248.623Z" fill="url(#paint7_linear)"/>
<path d="M543.546 221.146C559.034 237.133 609.993 270.107 581.516 321.066" stroke="url(#paint8_linear)" stroke-width="4" stroke-linecap="round"/>
<rect x="503.662" y="299.863" width="39.1716" height="119.081" rx="10" transform="rotate(-45 503.662 299.863)" fill="#FF6B06"/>
<rect x="503.662" y="299.863" width="39.1716" height="119.081" rx="10" transform="rotate(-45 503.662 299.863)" fill="url(#paint9_linear)"/>
<path d="M554.636 335.922C550.73 332.017 550.73 325.685 554.636 321.78L567.806 308.609L608.493 349.296C612.398 353.202 612.398 359.533 608.493 363.438L595.322 376.609L554.636 335.922Z" fill="#E94A07"/>
<rect x="569.027" y="353.528" width="4.22357" height="21.9665" rx="2.11178" transform="rotate(-45 569.027 353.528)" fill="white"/>
<rect x="560.033" y="344.036" width="4.22357" height="8.5437" rx="2.11178" transform="rotate(-45 560.033 344.036)" fill="white"/>
<path d="M305.606 140.074C309.228 121.415 298.922 97.77 294.61 94.1112L291.376 116.064L305.606 140.074Z" fill="#1C2035"/>
<path d="M277.306 90.9583L254.843 98.0165C248.532 108.527 238.513 131.928 248.927 141.447C259.34 150.966 277.722 160.485 285.611 164.055C303.712 142.704 303.296 118.113 298.671 101.074C296.203 91.9811 286.294 88.134 277.306 90.9583Z" fill="#1C2035"/>
<path d="M177.932 350.081C183.234 352.222 232.831 378.427 256.966 391.262C257.699 384.019 260.922 364.119 260.111 361.875C259.096 359.071 196.835 343.241 189.246 339.644C181.656 336.046 183.145 330.178 177.022 324.926C170.927 319.698 173.479 318.317 167.031 316.933C157.975 314.989 153.025 313.435 152.542 316.933C151.369 325.426 147.803 337.519 151.043 340.913C155.094 345.157 171.305 347.404 177.932 350.081Z" fill="#FFE2D1"/>
<path d="M187.466 296.618L208.861 218.38C210.049 214.032 214 211.017 218.507 211.017H251.158L282.594 214.217C286.676 214.633 290.09 217.492 291.223 221.435C295.37 235.863 301.916 258.364 305.751 275.044C308.797 288.295 305.974 300.58 302.389 309.055C299.836 315.09 298.675 321.858 301.301 327.86C307.566 342.182 319.074 366.423 325.348 379.435L254.657 389.874L214.763 318.192C189 323.5 185.5 307.5 187.466 296.618Z" fill="#FF6B06"/>
<path fill-rule="evenodd" clip-rule="evenodd" d="M302.448 261.666C303.665 266.344 304.793 270.876 305.751 275.044C308.797 288.295 305.974 300.58 302.389 309.055C299.836 315.09 298.676 321.858 301.302 327.861C304.746 335.733 309.774 346.604 314.646 356.959C313.379 357.766 311.935 358.289 310.303 358.492C283.167 361.865 285.59 343.556 290.435 329.583C294.149 318.874 287.617 311.562 282.181 305.476C280.524 303.621 278.969 301.88 277.837 300.192C274.429 295.109 276.533 292.171 279.262 288.361C280.413 286.754 281.676 284.991 282.682 282.846C285.396 277.064 278.321 272.407 274.445 270.8C275.898 256.828 287.043 256.346 299.642 259.719C300.523 259.954 301.466 260.624 302.448 261.666Z" fill="#FA540E"/>
<path d="M252.407 208.397L243.003 164.055L212.439 173.774C217.728 190.269 216.491 204.023 213.993 220.51C213.168 225.956 243.199 214.674 252.407 208.397Z" fill="#FFD6BF"/>
<path d="M195.111 110.37C204.811 97.6952 219.089 98.6766 231.608 97.6952C275.034 90.6286 264.471 149.517 259.776 162.472C255.081 175.428 217.524 190.15 197.572 191.916C177.619 193.683 179.38 174.839 179.38 168.95C179.38 157.761 181.26 162.762 173.632 159.228C170.861 157.945 173.368 155.44 177.789 148.759C180.561 144.571 182.639 142.477 181.946 136.893C179.868 130.611 190.222 116.759 195.111 110.37Z" fill="#FFE2D1"/>
<path fill-rule="evenodd" clip-rule="evenodd" d="M233.648 162.698C234.895 159.545 234.592 157.672 232.951 156.019C230.899 153.953 228.547 159.298 229.779 160.263C230.06 160.483 230.413 160.753 230.799 161.033L226.766 170.303C226.414 171.111 226.784 172.051 227.593 172.403C228.401 172.755 229.342 172.385 229.693 171.576L233.567 162.673C233.594 162.682 233.622 162.69 233.648 162.698Z" fill="#FF6B06"/>
<path d="M196.123 107.749C199.39 101.063 235.791 79.0952 258.542 102.973C289.014 134.955 260.218 182.54 238.128 182.54C235.359 182.54 235.63 177.045 235.63 172.548C240.296 169.564 245.468 153.564 238.128 148.012C233.55 144.55 227.982 149.067 226.982 155.062C210.649 142.526 192.04 116.106 196.123 107.749Z" fill="#1C2035"/>
<path d="M260.098 260.845C256.974 233.026 264.906 223.88 272.872 218.41C278.215 214.741 285.374 212.789 290.036 217.29C294.28 221.388 298.591 228.927 300.933 241.95C306.118 270.79 263.277 289.148 260.098 260.845Z" fill="#FFD6BF"/>
<path d="M387.032 525.155C378.657 528.642 287.924 456.567 266.287 434.479C270.94 401.231 290.576 342.547 331.894 373.796C373.213 405.044 374.702 434.711 370.282 445.639L419.138 518.877C453.337 523.062 458.921 558.635 505.683 608.856C511.489 615.091 496.843 611.878 489.63 610.948C439.378 565.61 409.535 541.392 399.595 539.802C394.71 539.021 386.567 527.945 387.032 525.155Z" fill="url(#paint10_linear)"/>
<mask id="mask0" mask-type="alpha" maskUnits="userSpaceOnUse" x="266" y="364" width="242" height="249">
<path d="M387.032 525.155C378.657 528.642 287.924 456.567 266.287 434.479C270.94 401.231 290.576 342.547 331.894 373.796C373.213 405.044 374.702 434.711 370.282 445.639L419.138 518.877C453.337 523.062 458.921 558.635 505.683 608.856C511.489 615.091 496.843 611.878 489.63 610.948C439.378 565.61 409.535 541.392 399.595 539.802C394.71 539.021 386.567 527.945 387.032 525.155Z" fill="#767DA4"/>
</mask>
<g mask="url(#mask0)">
<path d="M321.052 391.276C327.021 398.57 348.905 411.668 354.874 443.499C357.205 455.933 392.769 514.884 421.433 532.524C432.703 537.914 465.532 563.099 506.691 620.722" stroke="#393E5C"/>
<path d="M296.168 407.729C303.483 413.672 328.417 418.869 340.675 448.846C345.463 460.556 351.61 470.051 367.779 489.16C377.334 500.43 402.176 526.791 425.108 542.079C453.772 561.189 480.967 592.058 499.341 616.312" stroke="#393E5C"/>
<path d="M281.264 412.939C289.375 417.739 308.489 427.871 325.032 455.713C332.883 468.926 347.935 491.365 365.574 505.33C375.619 513.17 399.53 531.348 414.818 541.344C433.928 553.839 461.122 583.238 475.822 605.288" stroke="#393E5C"/>
<path d="M269.327 414.533C277.438 419.333 290.713 441.391 307.624 462.557C317.217 474.565 329.56 489.895 349.405 509.005" stroke="#393E5C"/>
<path d="M343.434 384.313C349.403 391.607 366.313 412.165 364.821 444.494C364.291 455.987 385.966 482.722 411.225 516.887C413.034 519.333 415.871 520.781 418.826 521.505C426.342 523.346 438.297 528.931 448.627 542.079C461.563 558.543 498.606 597.938 515.511 615.577" stroke="#393E5C"/>
</g>
<path fill-rule="evenodd" clip-rule="evenodd" d="M216.106 471.009C241.869 460.403 267.122 450.006 275.383 446.919C280.191 445.122 287.342 444.28 295.344 443.338C315.165 441.005 340.209 438.057 347.821 418.461C356.18 396.945 347.125 376.123 321.354 368.488C295.582 360.853 148.015 441.704 142.443 470.855C141.697 474.756 141.932 477.822 142.856 480.23C143.053 487.903 147.83 500.986 164.945 519.09C179.375 534.353 198.427 548.39 215.844 561.222C234.606 575.046 251.471 587.472 258.619 598.528C272.402 619.847 269.002 598.048 263.916 587.046C261.767 582.398 254.952 573.566 247.189 563.507C236.573 549.751 224.187 533.701 219.542 522.916C211.93 505.242 204.131 493.638 187.515 482.764C196.521 479.073 206.35 475.026 216.106 471.009Z" fill="#A1ACDB"/>
<mask id="mask1" mask-type="alpha" maskUnits="userSpaceOnUse" x="142" y="367" width="209" height="241">
<path fill-rule="evenodd" clip-rule="evenodd" d="M216.106 471.009C241.869 460.403 267.122 450.006 275.383 446.919C280.191 445.122 287.342 444.28 295.344 443.338C315.165 441.005 340.209 438.057 347.821 418.461C356.18 396.945 347.125 376.123 321.354 368.488C295.582 360.853 148.015 441.704 142.443 470.855C141.697 474.756 141.932 477.822 142.856 480.23C143.053 487.903 147.83 500.986 164.945 519.09C179.375 534.353 198.427 548.39 215.844 561.222C234.606 575.046 251.471 587.472 258.619 598.528C272.402 619.847 269.002 598.048 263.916 587.046C261.767 582.398 254.952 573.566 247.189 563.507C236.573 549.751 224.187 533.701 219.542 522.916C211.93 505.242 204.131 493.638 187.515 482.764C196.521 479.073 206.35 475.026 216.106 471.009Z" fill="#A1ACDB"/>
</mask>
<g mask="url(#mask1)">
<path d="M354.279 401.947C352.037 409.485 343.792 428.63 315.025 431.562C286.259 434.494 186.969 456.457 179.813 481.076C177.608 486.955 182.018 498.532 204.067 510.475C221.707 520.03 229.792 524.44 262.131 578.828" stroke="#B0BBEA"/>
<path d="M348.541 384.735C350.985 398.589 342.92 417.212 309.696 420.788C276.472 424.364 168.053 445.061 165.113 482.545C163.643 488.425 168.347 510.328 201.862 530.319C243.756 555.309 248.901 580.298 254.781 597.203" stroke="#B0BBEA"/>
<path d="M334.416 370.216C350.493 390.092 335.473 402.527 278.966 409.353C222.459 416.179 147.591 447.219 140.435 471.837" stroke="#B0BBEA"/>
<path d="M312.682 359.979C328.759 379.856 311.914 397.327 257.233 399.117C202.552 400.907 145.685 427.152 138.529 451.771" stroke="#B0BBEA"/>
</g>
<path d="M267.693 250.486C265.695 233.3 276.52 221.009 282.182 217.013C289.676 217.013 291.175 234.998 293.173 253.483C295.171 271.969 286.693 271.18 282.182 265.474C277.442 259.479 268.693 260.478 267.693 250.486Z" fill="#FFC7A7"/>
<path d="M372.522 302.766C366.78 295.519 318.076 245.938 289.517 217.069C286.189 213.704 280.787 213.651 277.376 216.932C267.744 226.197 266.932 241.064 276.263 250.632C301.403 276.411 346.054 317.296 363.412 319.448C385.836 322.228 380.23 312.497 372.522 302.766Z" fill="#FFE2D1"/>
<path d="M208.442 145.07C203.307 139.518 191.755 137.204 186.621 136.742C184.909 133.965 183.797 129.523 193.039 133.965C202.281 138.407 207.158 143.22 208.442 145.07Z" fill="#1C1F33"/>
<path d="M190.725 140.434C186.863 138.073 184.177 140.714 185.108 143.107C186.255 146.053 183.715 148.215 185.467 149.993C186.391 150.93 190.43 147.331 192.495 147.914C199.976 150.027 201.145 148.68 201.592 147.355C202.092 145.874 195.379 143.279 190.725 140.434Z" fill="#FFCDB1"/>
<path d="M254.96 99.1072C258.957 105.102 263.953 113.096 263.953 129.583" stroke="#E8ECFF" stroke-width="4" stroke-linecap="round"/>
<path d="M201.376 279.187L202.204 279.367C203.258 279.596 204.084 280.509 204.379 281.871C204.712 283.241 205.044 285.345 205.282 288.782C205.678 294.398 209.191 294.371 211.771 289.571C215.616 282.394 222.715 283.823 222.715 283.823L224.484 284.208C224.973 284.314 225.467 283.857 225.619 283.156C225.771 282.456 225.512 281.835 225.022 281.729L223.856 281.476C222.877 281.263 222.077 280.412 221.721 279.15C221.312 277.763 220.903 275.474 220.625 271.858C220.217 266.296 217.118 266.413 214.575 271.221C210.756 278.46 203.683 277.093 203.683 277.093L201.914 276.709C201.425 276.603 200.932 277.06 200.78 277.76C200.627 278.461 200.887 279.081 201.376 279.187Z" fill="white"/>
<path d="M217.674 257.98C233.237 257.98 253.864 233.444 257.403 211.005C246.791 203.058 219.374 189.26 214.846 214.504C212.582 227.126 197.815 257.98 217.674 257.98Z" fill="#FFD6BF"/>
<path d="M257.458 314.934C249.864 320.53 236.974 319.264 231.479 317.932C219.988 317.932 236.974 326.425 245.967 326.425C254.96 326.425 262.454 325.426 263.953 317.932C265.152 311.937 260.122 313.435 257.458 314.934Z" fill="#FA540E"/>
<path d="M312.019 377.935C315.876 373.693 357.818 336.111 378.307 317.85C371.678 314.708 353.881 304.942 351.47 304.942C348.457 304.942 312.019 357.906 305.993 363.797C299.966 369.688 295.814 359.399 287.434 362.396C279.821 365.12 285.936 364.395 275.444 373.887C268.575 380.103 272.337 384.145 276.943 387.876C280.83 391.639 289.476 397.706 293.815 395.821C299.239 393.464 307.198 383.236 312.019 377.935Z" fill="#FFE2D1"/>
<path d="M175.024 320.441C189.013 322.909 185.311 327.814 185.311 332.81C185.311 339.604 184.183 346.076 182.518 345.909C175.024 345.16 173.1 337.406 173.819 333.809C174.818 328.813 174.819 327.814 172.321 326.315C171.655 326.148 171.021 328.913 167.824 331.311C163.827 334.309 159.784 331.494 162.328 329.313C166.964 325.339 167.211 322.084 169.323 320.441C170.397 319.605 172.16 319.935 175.024 320.441Z" fill="#FFB88F"/>
<path d="M261.455 112.097C263.953 120.59 263.953 123.588 263.953 129.583" stroke="white" stroke-width="4.1" stroke-linecap="round"/>
<path d="M444.33 663.303C441.939 661.922 441.119 658.864 442.5 656.473L556.32 459.33C557.701 456.939 560.759 456.119 563.151 457.5L732.016 554.994L613.196 760.798L444.33 663.303Z" fill="url(#paint11_linear)"/>
<rect x="92.1171" y="382.792" width="22.9816" height="102.204" rx="5" transform="rotate(103.032 92.1171 382.792)" fill="url(#paint12_linear)"/>
<path d="M91.2158 386.686L87.836 401.288L39.543 390.11C36.8527 389.487 35.1766 386.801 35.7993 384.111L36.9241 379.252C37.5468 376.561 40.2325 374.885 42.9228 375.508L91.2158 386.686Z" fill="#292E4A"/>
<path d="M161.124 575.576C165.474 578.979 166.241 585.264 162.838 589.613L89.2145 683.714C87.5129 685.889 84.3704 686.273 82.1955 684.571L-3 617.915L73.7045 519.876C77.1077 515.527 83.3927 514.759 87.7424 518.162L161.124 575.576Z" fill="url(#paint13_linear)"/>
<path d="M86.8594 102.371C90.3136 106.68 89.6204 112.974 85.311 116.428L-46.9716 222.459C-49.1262 224.187 -52.273 223.84 -54.0001 221.685L-148 104.413L-4.01335 -11L86.8594 102.371Z" fill="url(#paint14_linear)"/>
<path d="M75.7582 107.37C77.4853 109.525 77.1387 112.672 74.984 114.399L-52.0016 216.185C-54.1563 217.912 -57.3031 217.565 -59.0302 215.41L-64.6687 208.376C-66.3958 206.221 -66.0492 203.074 -63.8945 201.347L63.0911 99.5614C65.2457 97.8343 68.3925 98.1809 70.1196 100.336L75.7582 107.37Z" fill="#292E4A"/>
<defs>
<linearGradient id="paint0_linear" x1="461" y1="217" x2="58" y2="377.5" gradientUnits="userSpaceOnUse">
<stop offset="0.596498" stop-color="#3D4368"/>
<stop offset="0.874828" stop-color="#292E4A"/>
</linearGradient>
<linearGradient id="paint1_linear" x1="508.5" y1="223" x2="447" y2="309.5" gradientUnits="userSpaceOnUse">
<stop stop-color="#FF6B06"/>
<stop offset="1" stop-color="#292E4A"/>
</linearGradient>
<linearGradient id="paint2_linear" x1="585.433" y1="291.002" x2="623.125" y2="498.855" gradientUnits="userSpaceOnUse">
<stop stop-color="#767DA4"/>
<stop offset="1" stop-color="#292E4A"/>
</linearGradient>
<linearGradient id="paint3_linear" x1="318.5" y1="74.9999" x2="378" y2="-38.0001" gradientUnits="userSpaceOnUse">
<stop stop-color="#464C71"/>
<stop offset="1" stop-color="#292E4A"/>
</linearGradient>
<linearGradient id="paint4_linear" x1="473.359" y1="316.055" x2="402.655" y2="257.042" gradientUnits="userSpaceOnUse">
<stop stop-color="white"/>
<stop offset="1" stop-color="white" stop-opacity="0"/>
</linearGradient>
<linearGradient id="paint5_linear" x1="495.41" y1="573.548" x2="536.376" y2="441.798" gradientUnits="userSpaceOnUse">
<stop stop-color="white"/>
<stop offset="1" stop-color="#767DA4"/>
</linearGradient>
<linearGradient id="paint6_linear" x1="612.043" y1="256.533" x2="629.538" y2="183.28" gradientUnits="userSpaceOnUse">
<stop stop-color="#292E4A"/>
<stop offset="1" stop-color="#767DA4"/>
</linearGradient>
<linearGradient id="paint7_linear" x1="601.5" y1="343.5" x2="620.5" y2="301" gradientUnits="userSpaceOnUse">
<stop stop-color="#E94A07"/>
<stop offset="1" stop-color="#BC3C06"/>
</linearGradient>
<linearGradient id="paint8_linear" x1="569.117" y1="234.773" x2="585.262" y2="321.066" gradientUnits="userSpaceOnUse">
<stop stop-color="white"/>
<stop offset="0.0001" stop-color="#FFFBFA"/>
<stop offset="1" stop-color="#E94A07"/>
</linearGradient>
<linearGradient id="paint9_linear" x1="503.804" y1="260.601" x2="523.248" y2="418.944" gradientUnits="userSpaceOnUse">
<stop stop-color="#FF6B06"/>
<stop offset="1" stop-color="#FA540E"/>
</linearGradient>
<linearGradient id="paint10_linear" x1="386.651" y1="364.915" x2="386.651" y2="612.605" gradientUnits="userSpaceOnUse">
<stop stop-color="#767DA4"/>
<stop offset="1" stop-color="#292E4A"/>
</linearGradient>
<linearGradient id="paint11_linear" x1="441.446" y1="662.728" x2="694.038" y2="649.686" gradientUnits="userSpaceOnUse">
<stop stop-color="#494F75"/>
<stop offset="1" stop-color="#292E4A"/>
</linearGradient>
<linearGradient id="paint12_linear" x1="70.2876" y1="291.993" x2="125.766" y2="482.901" gradientUnits="userSpaceOnUse">
<stop stop-color="#767DA4"/>
<stop offset="0.9998" stop-color="#292E4A"/>
<stop offset="0.9999" stop-color="#3D425B" stop-opacity="0.90625"/>
</linearGradient>
<linearGradient id="paint13_linear" x1="108" y1="404" x2="83" y2="585.5" gradientUnits="userSpaceOnUse">
<stop offset="0.0713261" stop-color="#767DA4"/>
<stop offset="0.994792" stop-color="#292E4A"/>
</linearGradient>
<linearGradient id="paint14_linear" x1="212.5" y1="390.5" x2="-99.5001" y2="178.5" gradientUnits="userSpaceOnUse">
<stop offset="0.663225" stop-color="#444A6E"/>
<stop offset="1" stop-color="#292E4A"/>
</linearGradient>
</defs>
</svg>
