<svg width="1136" height="413" viewBox="0 0 1136 413" fill="none" xmlns="http://www.w3.org/2000/svg">
<path fill-rule="evenodd" clip-rule="evenodd" d="M568 412.619C568.035 412.619 568.07 412.619 568.105 412.619C587.255 412.619 604.162 406.704 646.55 311.663C660.011 281.368 676.598 260.185 693.184 245.317C703.441 236.125 719.146 235.965 729.482 245.237C739.017 253.71 748.152 264.661 756.004 278.73C789.338 338.52 802.639 342.197 817.703 342.197C832.767 342.197 846.068 338.44 879.401 278.73C891.741 256.668 907.286 242.28 922.349 232.848C937.654 223.256 957.846 226.133 969.545 239.882L969.785 240.122C989.577 263.622 997.429 265.061 1006.4 265.061C1015.38 265.061 1023.23 263.622 1043.02 240.122C1055.84 224.934 1074.59 218.939 1087.33 216.621H1107.44H1126.59C1139.18 216.621 1139.09 197.197 1126.59 197.197H1125.39C1119.25 197.091 1113.11 197.126 1106.96 197.162C1103.89 197.179 1100.82 197.197 1097.75 197.197H1087.33C1074.67 194.879 1055.84 188.964 1043.02 173.697C1023.23 150.196 1015.38 148.757 1006.4 148.757C997.429 148.757 989.577 150.196 969.785 173.697L969.545 173.936C957.846 187.685 937.654 190.563 922.349 180.971C907.286 171.538 891.741 157.15 879.401 135.088C846.068 75.2978 832.767 71.6209 817.703 71.6209C802.639 71.6209 789.338 75.3778 756.004 135.088C748.472 148.597 739.739 159.149 730.684 167.542C720.348 177.054 704.482 177.294 693.986 168.021C677.159 153.074 660.252 131.731 646.55 100.957C604.162 5.91512 587.255 0 568.105 0C568.07 0 568.035 1.97589e-05 568 5.97835e-05C567.965 1.97589e-05 567.93 0 567.895 0C548.745 0 531.838 5.91512 489.45 100.957C475.748 131.731 458.841 153.074 442.014 168.021C431.518 177.294 415.652 177.054 405.316 167.542C396.261 159.149 387.528 148.597 379.996 135.088C346.662 75.3778 333.361 71.6209 318.297 71.6209C303.233 71.6209 289.932 75.2978 256.599 135.088C244.259 157.15 228.714 171.538 213.65 180.971C198.346 190.563 178.154 187.685 166.455 173.936L166.215 173.697C146.423 150.196 138.571 148.757 129.597 148.757C120.622 148.757 112.77 150.196 92.9782 173.697C80.1578 188.964 61.3278 194.879 48.6676 197.197H38.251C35.1794 197.197 32.1079 197.179 29.0363 197.162C22.8932 197.126 16.75 197.091 10.6069 197.197H9.40501C-3.09491 197.197 -3.17504 216.621 9.40501 216.621H28.5555H48.6676C61.4079 218.939 80.1578 224.934 92.9782 240.122C112.77 263.622 120.622 265.061 129.597 265.061C138.571 265.061 146.423 263.622 166.215 240.122L166.455 239.882C178.154 226.133 198.346 223.256 213.65 232.848C228.714 242.28 244.259 256.668 256.599 278.73C289.932 338.44 303.233 342.197 318.297 342.197C333.361 342.197 346.662 338.52 379.996 278.73C387.848 264.661 396.983 253.71 406.518 245.237C416.854 235.965 432.559 236.125 442.816 245.317C459.402 260.185 475.989 281.368 489.45 311.663C531.838 406.704 548.745 412.619 567.895 412.619C567.93 412.619 567.965 412.619 568 412.619Z" fill="#F8FAFE"/>
</svg>
